<svg id="Layer_1" data-name="Layer 1" xmlns="http://www.w3.org/2000/svg" viewBox="0 0 12.6 8.99"><defs><style>.cls-1{fill:blue;}</style></defs><path class="cls-1" d="M2.67,2.31V4a1,1,0,0,1-.41.83,1,1,0,0,1,.41.84V7.32a.63.63,0,0,0,.62.62h.42v.43H3.29a1.06,1.06,0,0,1-1.06-1V5.65a.6.6,0,0,0-.18-.44A.57.57,0,0,0,1.62,5H1.4V4.59h.22a.58.58,0,0,0,.43-.18A.57.57,0,0,0,2.23,4V2.31a1,1,0,0,1,1.06-1h.42v.43H3.29a.61.61,0,0,0-.62.62Z"/><path class="cls-1" d="M7.26,7.58H5.56a1.06,1.06,0,0,1-.76-.31,1.07,1.07,0,0,1-.3-.76V6.4h.43v.11A.58.58,0,0,0,5.12,7a.61.61,0,0,0,.44.19h1.7a.65.65,0,0,0,.64-.64V6.09a.62.62,0,0,0-.34-.49L5.07,4.4h0a1.21,1.21,0,0,1-.28-.21A.93.93,0,0,1,4.62,4a.66.66,0,0,1-.08-.21.41.41,0,0,1,0-.15v-.5A1,1,0,0,1,5.56,2.05h1.7A1,1,0,0,1,8,2.36a1,1,0,0,1,.32.75v.11H7.9V3.11a.61.61,0,0,0-.19-.44.58.58,0,0,0-.45-.19H5.56a.58.58,0,0,0-.44.19.58.58,0,0,0-.19.44v.42a.34.34,0,0,0,0,.11A.64.64,0,0,0,5.26,4l2.5,1.2h0A1,1,0,0,1,8,5.43a1.33,1.33,0,0,1,.17.23,1,1,0,0,1,.08.21l0,.15v.49A1.08,1.08,0,0,1,7.26,7.58Z"/><path class="cls-1" d="M10.16,7.32V5.65a1,1,0,0,1,.41-.84A1,1,0,0,1,10.16,4V2.31A.6.6,0,0,0,10,1.87a.62.62,0,0,0-.44-.18H9.12V1.26h.42a1,1,0,0,1,1.05,1.05V4a.57.57,0,0,0,.18.43.62.62,0,0,0,.44.18h.22V5h-.22a.61.61,0,0,0-.44.17.6.6,0,0,0-.18.44V7.32a1.06,1.06,0,0,1-1.05,1H9.12V7.94h.42A.59.59,0,0,0,10,7.75.58.58,0,0,0,10.16,7.32Z"/></svg>