<svg id="Layer_1" data-name="Layer 1" xmlns="http://www.w3.org/2000/svg" viewBox="0 0 16 16"><defs><style>.cls-1{fill:blue;}</style></defs><path class="cls-1" d="M8,1a7,7,0,1,0,7,7A7,7,0,0,0,8,1Zm4,7.8v.41h-.12l-.07,0a.21.21,0,0,0-.1.08.85.85,0,0,0-.09.36,3.16,3.16,0,0,1,0,.57v.16a.49.49,0,0,1-.51.51H5c-.32,0-.49,0-.62-.09s-.11-.21-.11-.88V9.61s0,0,0,0V9h2s-.07.4.16.53A1.27,1.27,0,0,0,7,9.6H9a2.51,2.51,0,0,0,.31,0,2.3,2.3,0,0,0,.28-.06l.15-.08h0a.37.37,0,0,0,.1-.17l0-.19a.5.5,0,0,0-.18-.4,2,2,0,0,0-.77-.13H4.74c-.58,0-.53-.36-.53-.48V7.61a1.32,1.32,0,0,0-.06-.49A.32.32,0,0,0,3.84,7V6.53c.29,0,.31-.16.34-.23a1.06,1.06,0,0,0,0-.32s0,0,0-.62a.47.47,0,0,1,.51-.49h6.15c.33,0,.5,0,.63.08s.11.21.11.85v.93h-2s.07-.33-.16-.46a1.2,1.2,0,0,0-.57-.11l-1,0s-1,0-1.32,0S6,6.19,6,6.73s.84.45.84.45H8.31l1.21,0s1.23,0,1.66,0,.44.3.44.3,0,.29,0,.52h0v0a1.44,1.44,0,0,0,.06.51.31.31,0,0,0,.31.18Z"/></svg>