<svg id="Layer_1" data-name="Layer 1" xmlns="http://www.w3.org/2000/svg" viewBox="0 0 527 399"><defs><style>.cls-1{fill:#0c00ff;}</style></defs><path class="cls-1" d="M30,197v9.87c0,7.13-3,29.63,33,29.63H79.73c-4.83-.61-11-1.95-15.22-4.93-8-5.6-8.85-13.22-8.85-13.22s-1.1-5.26-.6-17.37,0-22,0-22l.17-9.11a64.29,64.29,0,0,0-.85-10.13c-.82-3.9-1.47-9.84-5.16-14.89s-11-7.77-17.38-6.91V111.78s9.78-.27,14.24-3.7,9-9.09,9.23-21.8.46-34.17.46-34.17l-.2-14.55S55,24.44,63.78,16.43c7.57-6.89,18.13-8.12,21-8.34H62.5S30,7,30.51,38.48c.61,37,0,39,0,39s0,16.07-2,20.07-3.32,13.22-21.66,14.11v26S21.5,136.5,26.5,148.5,30,179,30,179Z"/><path class="cls-1" d="M431.56,368.32c3-6.09,5.07-9.14,6.09-30.46,0,0,1-15.22,1-20.3V295.23a26.57,26.57,0,0,1,4.57-14.72C446.26,276,453,269,453,269s-7.72-4.73-10.76-8.79c0,0-3.56-5.08-3.56-18.78V197.78a64.26,64.26,0,0,0-2-15.23c-2-7.1-4.06-13.19-8.12-18.27-3.05-3.81-10.84-7.13-14.52-8.55-26.87-.56-52.49-1.23-52.49-1.23s-59-2-75-2h-93s-51,6-52-28,19-32,38-35,82.28-1.91,82.28-1.91l59.72.91s22-1,36,7,10.16,28.71,10.16,28.71L493,124V66c0-40,1-47-7-53-8.18-6.14-18.66-4.61-39-5-15.5-.3-52,0-52,0s-50.79-.24-75.65.13-76.87,0-76.87,0H102.54L91.66,16.43a33.6,33.6,0,0,0-8,10c-3,6-5,9-6,30.08,0,0-1,15-1,20V98.64a26.19,26.19,0,0,1-4.52,14.54c-3,4.49-9.63,11.36-9.63,11.36s7.63,4.68,10.64,8.69c0,0,3.51,5,3.51,18.55v43.11a63.59,63.59,0,0,0,2,15c2,7,4,13,8,18,3.17,4,11.35,7.3,14.63,8.52H322.32s36.18,0,48.18,8,11,26.34,11,26.34,0,15.66-8,21.66-21,10-47,11c-7.62.29-17.64.59-28,.85-19.3.16-36.72-.15-36.72-.15l-59.72-.95s-22,1-36-7.29S156,263,156,263H30v38c0,4.18.18,8.21.51,12.1,0,5.17,0,9.87,0,13.56,0,41.62-1,48.9,7,55.15,8.19,6.38,18.67,4.79,39,5.2,15.51.31,52,0,52,0s50.8.25,75.65-.14,76.88,0,76.88,0h131l11.32-8.44A34.1,34.1,0,0,0,431.56,368.32Z"/><path class="cls-1" d="M497.06,240.82c-5-12.49-3.5-31.74-3.5-31.74V208l-.34.06c.25-14.56,0-32.91,0-32.91s-.68-18.65-27.68-18.65c-6.5,0-15.91-.12-26.43-.29,4.1.77,8.56,2.11,11.85,4.44,8.05,5.66,9,13.38,9,13.38s1.17,5.52.66,17.78-.06,22.13-.06,22.13l.06,9.57a51.81,51.81,0,0,0,.63,9.91c.83,4,2.34,10.9,5.22,15.08,3.59,5.21,17.6,20.17,17.6,20.17s-10.57,11.32-14.42,17c-3.2,4.72-9,13.15-9.34,22.07-.45,12.86-.47,34.6-.47,34.6l.2,14.73s.62,13.28-8.31,21.4c-7.73,7-18.52,8.24-21.3,8.44h30.7s32.5,1.14,32-31.61c0-1.81-.05-3.52-.08-5.17s.2-3.14.21-4.82c.32-39.81,0-35.66,0-35.66s.2-11.22,3.2-18.93a17,17,0,0,1,4.36-6.32c6.18-4.89,16-4.84,16-4.84V252.11S502.06,253.3,497.06,240.82Z"/></svg>