<svg id="Layer_1" data-name="Layer 1" xmlns="http://www.w3.org/2000/svg" viewBox="0 0 16 12"><defs><style>.cls-1{fill:blue;}</style></defs><path class="cls-1" d="M6,7.29c0,.54.08.67.37.78a7.17,7.17,0,0,0,1.59.11c2.76,0,3.09-.08,3.09-.72a.62.62,0,0,0-.4-.64c-.25-.08-.25-.08-1.49-.09H7a5.63,5.63,0,0,1-2.55-.34c-.56-.3-.82-.92-.82-2,0-1.41.4-2,1.53-2.28A14.45,14.45,0,0,1,8.38,1.9c2.75,0,3.39.07,3.95.43s.72.85.72,2H10.72c0-.68-.24-.77-1.77-.77-.77,0-1.79,0-2.17,0-.63,0-.84.22-.84.66a.6.6,0,0,0,.5.63,4.52,4.52,0,0,0,1,0H9.63L11.3,5c1.49.07,2.08.73,2.08,2.31S13,9.41,11.8,9.65a19.39,19.39,0,0,1-3.45.2c-2.72,0-3.32-.06-4-.41-.48-.23-.73-.83-.73-1.76,0-.07,0-.22,0-.39Z"/><path class="cls-1" d="M2,3.91a.46.46,0,0,0,.29-.09.44.44,0,0,0,.14-.25,2.35,2.35,0,0,0,0-.54,4.74,4.74,0,0,1,0-.51,1.1,1.1,0,0,1,.07-.31A.72.72,0,0,1,2.74,2,.68.68,0,0,1,3,1.92a1.11,1.11,0,0,1,.29,0h.13v.35H3.3A.42.42,0,0,0,3,2.34a.66.66,0,0,0-.08.39c0,.4,0,.65,0,.76a.76.76,0,0,1-.46.61.73.73,0,0,1,.37.32,1.74,1.74,0,0,1,.11.71c0,.3,0,.48,0,.54A.29.29,0,0,0,3,5.88.5.5,0,0,0,3.3,6h.07v.36H3.24a1.22,1.22,0,0,1-.33,0,.53.53,0,0,1-.24-.17.59.59,0,0,1-.13-.3,4.14,4.14,0,0,1,0-.6,2.54,2.54,0,0,0,0-.57.44.44,0,0,0-.14-.25A.46.46,0,0,0,2,4.29Z"/><path class="cls-1" d="M14.85,7.07v.38a.46.46,0,0,0-.29.09.58.58,0,0,0-.15.25,3.39,3.39,0,0,0,0,.54c0,.26,0,.43,0,.51a.82.82,0,0,1-.08.31.53.53,0,0,1-.13.19.68.68,0,0,1-.21.1,1,1,0,0,1-.29,0h-.13V9.11h.07A.42.42,0,0,0,13.91,9,.66.66,0,0,0,14,8.63a5.71,5.71,0,0,1,0-.72.8.8,0,0,1,.15-.41.7.7,0,0,1,.31-.24.71.71,0,0,1-.37-.33,1.51,1.51,0,0,1-.11-.7c0-.3,0-.48,0-.54a.29.29,0,0,0-.09-.21.52.52,0,0,0-.3-.06h-.07V5.06h.13a1.31,1.31,0,0,1,.33,0,.59.59,0,0,1,.24.17.58.58,0,0,1,.12.3,5.84,5.84,0,0,1,0,.6,3.67,3.67,0,0,0,0,.57.53.53,0,0,0,.15.25A.46.46,0,0,0,14.85,7.07Z"/></svg>