<svg id="Layer_1" data-name="Layer 1" xmlns="http://www.w3.org/2000/svg" viewBox="0 0 667 521"><defs><style>.cls-1{fill:#0c00ff;}.cls-2{fill:#fff;}</style></defs><path class="cls-1" d="M427.66,178.21,553,178V120c0-40,1-47-7-53-8.18-6.14-18.66-4.61-39-5-15.5-.3-52,0-52,0s-50.79-.24-75.65.13-76.87,0-76.87,0h-180S90,61,90.51,92.48c.61,37,0,39,0,39s0,16.07-2,20.07-3.32,13.22-21.66,14.11v26S81.5,190.5,86.5,202.5,90,233,90,233v27.87c0,7.13-3,29.63,33,29.63H382.32s36.18,0,48.18,8,11,26.34,11,26.34,0,15.66-8,21.66-21,10-47,11-80,2-80,2-39,0-50-1-31-3-38-5a19.61,19.61,0,0,1-13-12c-2-5-2.79-24.43-2.79-24.43L90,317v38c0,53,26,83,82,83,14,0,70.5-.5,70.5-.5l101.92.64H521.5s31.36,1,31.68-38.83,0-35.66,0-35.66.32-18.15,6.32-24.15,17.23-5.94,17.23-5.94v-26S558.8,309,554.65,291.25a178,178,0,0,1-1.47-26.9c.32-14.85,0-35.2,0-35.2s-.68-18.65-27.68-18.65-104-2-104-2-59-2-75-2h-93s-51,6-52-28,19-32,38-35,82.28-1.91,82.28-1.91l59.72.91s22-1,36,7S427.66,178.21,427.66,178.21Z"/><path class="cls-1" d="M557.06,294.82c-5-12.49-3.5-31.74-3.5-31.74V262c-28.6,4.77-55.95,16.45-84.43,22.32-16.29,3.36-32.86,5.2-49.11,8.78,11.31,3.49,21.6,11,22,26.69,1,35.38-19,33.3-38,36.42s-82.28,2-82.28,2l-59.72-.95s-22,1-36-7.29S216,317,216,317H90s.56,44.93.56,63.66c0,41.62-1,48.9,7,55.15,8.19,6.38,18.67,4.79,39,5.2,15.51.31,52,0,52,0s50.8.25,75.65-.14,76.88,0,76.88,0h180s32.5,1.14,32-31.61c-.61-38.52,0-40.54,0-40.54s0-16.71,2-20.88,3.33-13.75,21.67-14.68V306.11S562.06,307.3,557.06,294.82Z"/><path class="cls-2" d="M162.67,291H147.18s-14.73.17-22.67-5.42-8.86-13.22-8.86-13.22-1.09-5.26-.59-17.37,0-22,0-22l.17-9.11a64.29,64.29,0,0,0-.85-10.13c-.82-3.9-1.47-9.84-5.16-14.89s-11-7.77-17.38-6.91V165.78s9.78-.27,14.24-3.7,9-9.09,9.23-21.8.45-34.17.45-34.17l-.19-14.55s-.61-13.12,8.21-21.13,21.71-8.38,21.71-8.38l17.18,0-11,8.43a33.65,33.65,0,0,0-8,10c-3,6-5,9-6,30.08,0,0-1,15-1,20.05v22.06a26.19,26.19,0,0,1-4.52,14.54c-3,4.49-9.63,11.36-9.63,11.36s7.63,4.68,10.64,8.69c0,0,3.51,5,3.51,18.55v43.11a63.59,63.59,0,0,0,2,15c2,7,4,13,8,18.05S162.67,291,162.67,291Z"/><path class="cls-2" d="M472,209l16,.15s14.91-.17,22.95,5.5,9,13.38,9,13.38,1.17,5.52.66,17.78-.06,22.13-.06,22.13l.06,9.57a51.81,51.81,0,0,0,.63,9.91c.83,3.95,2.34,10.9,5.22,15.08,3.59,5.21,17.6,20.17,17.6,20.17s-10.57,11.32-14.42,17c-3.2,4.72-9,13.15-9.34,22.07-.45,12.86-.47,34.6-.47,34.6l.2,14.73s.62,13.28-8.31,21.4-22,8.48-22,8.48L472,441l11.44-8.53a34.1,34.1,0,0,0,8.12-10.15c3-6.1,5.07-9.14,6.09-30.46,0,0,1-15.22,1-20.3V349.23a26.57,26.57,0,0,1,4.57-14.72C506.26,330,513,323,513,323s-7.72-4.73-10.76-8.79c0,0-3.56-5.08-3.56-18.78V251.78a64.26,64.26,0,0,0-2-15.23c-2-7.1-4.06-13.19-8.12-18.27S472,209,472,209Z"/></svg>