<svg id="Layer_1" data-name="Layer 1" xmlns="http://www.w3.org/2000/svg" xmlns:xlink="http://www.w3.org/1999/xlink" viewBox="0 0 481.11 618.88"><defs><style>.cls-1{fill:none;}.cls-2{clip-path:url(#clip-path);}</style><clipPath id="clip-path"><path class="cls-1" d="M466.22,108.92s-14.07-17.46-25.71-19.4c0,0-5.82,1.46-11.4,2.91A71.48,71.48,0,0,0,408,85.15a196.71,196.71,0,0,0-25.22-2.91l-25.22,5.83s-4.37,1-7.52,0-7-5.1-7-5.1-7.76-1.45-16.74,4.85c0,0-1.45,2.67-9,0s-2.91-9.7-2.91-9.7,1-13.58-13.82-31.77-35.9-32.25-35.9-32.25-4.12-5.34-6.79-8.73-35.16,5.57-35.16,5.57L215,12.4s-22.8,1-34,7c0,0-2.91,15,2.91,17.22,0,0,4.61,1.7-2.18,11.88,0,0-7,5.82-9.94,9.7S169.26,70,169.26,70l-6,3.26L146.43,87.37h-13l-15.22,2.72-18-6.43-16-1.43L63,90.09H55.3L36.72,96,18.13,106.53l-10,12-2,17.15L13,150.84l13.72,10.58,10,11.44,18.58,2,11.43,5.71,17.16-8h18.29L110.47,186,107,192.87,95.89,205.45,89.6,217.17,83,232l-6.58,11.44-3.71,15.44-6,8,14,19.15,20.87,17.44,16.87,10.87,13.43,9.14,3.43,3.72s1.72,9.15,1.43,12a75.5,75.5,0,0,0,1.72,19.15,117.41,117.41,0,0,1,2.29,15.44s-3.72,6.86,2.28,8a24.77,24.77,0,0,0,5.15-5.14s-4.86-.29-4.86-2.29-1.43-16-1.43-16L140.2,339l2.86-.28,2,9.72A96.63,96.63,0,0,1,155.93,369c4.57,12,11.15,44.31,11.15,44.31l7.72,12.58-1.72,37.45,3.15,32.3,8.57,33.45-2.29,7.44.86,17.15,1.43,22s-1.14,16.58,13.72,21.73,27.16-10.29,27.16-10.29l12.87-22.87,5.14,24.3s3.72,14.86,17.16,16.58,21.44-4.86,21.44-4.86,11.43-8.58,14-26.88,0-39.16,0-39.16L320,492.76S322.88,483,324.6,461,328,437.87,328,437.87V413l7.72-8s6.86-1.43,12.86-15.15,11.15-19.16,11.15-19.16l5.43-7.14,4.86,8.86s.29,6.58,8.29,5.72c0,0,1.72-4-1.43-6.29s-4.57-1.43-4.57-1.43l-5.15-9.52,15.52-10.76s17.21-12.14,28.74-28.89c0,0,15.72-12,19.36-19.75a22,22,0,0,0,1.21-15L409,246l-15.76-30.56-8.73-30.56,7-3.15,18,.48,16-8s9.46,1.7,15.77-1.94S457.49,155,457.49,155s3.64-4.61,7-23.52S466.22,108.92,466.22,108.92ZM261,420.24v10.07l-3.11,7.5-3.39,12.27-6,28.19-3.25,18.31-1.28-23.44-1.47-25.63S247,438,244.84,434.7s-.91-4.94-.91-4.94,5.67-5.5,3.45-9.71,0-17.75,0-17.75l7.07-26.17h1.93V380l3.66,5.31v11l3.84,22.16Z"/></clipPath></defs><g class="cls-2"><image width="3024" height="4032" transform="translate(-1172.16 -2110.49)" xlink:href="IMG_7087.png"/></g></svg>