<svg id="Layer_1" data-name="Layer 1" xmlns="http://www.w3.org/2000/svg" viewBox="0 0 12.6 7.99"><defs><style>.cls-1{fill:#ff7900;}</style></defs><path class="cls-1" d="M3.38,1.28V6.81H2v-3a5.42,5.42,0,0,0,0-.77.29.29,0,0,0-.16-.2,2,2,0,0,0-.62-.06H1V2.16a2.49,2.49,0,0,0,1.52-.88Z"/><path class="cls-1" d="M6.55,3.67A1,1,0,0,1,7,4,2.51,2.51,0,0,1,7.18,5.2a2.7,2.7,0,0,1-.13,1,1,1,0,0,1-.51.52,2,2,0,0,1-1,.21,2.07,2.07,0,0,1-1-.2,1.11,1.11,0,0,1-.51-.52,2.51,2.51,0,0,1-.16-1.07A4.45,4.45,0,0,1,4,4.26a.89.89,0,0,1,.48-.59.76.76,0,0,1-.38-.39,1.53,1.53,0,0,1-.13-.68,1.35,1.35,0,0,1,.4-1.07,1.7,1.7,0,0,1,1.18-.36,1.68,1.68,0,0,1,1.26.38,1.5,1.5,0,0,1,.35,1.08A1.46,1.46,0,0,1,7,3.28,1.29,1.29,0,0,1,6.55,3.67ZM5.8,4.78a.81.81,0,0,0-.07-.42.25.25,0,0,0-.4,0,.94.94,0,0,0-.06.42V5.5A1,1,0,0,0,5.34,6a.22.22,0,0,0,.21.1.2.2,0,0,0,.2-.1,1.46,1.46,0,0,0,0-.47Zm0-2.3a1,1,0,0,0,0-.37A.19.19,0,0,0,5.53,2a.17.17,0,0,0-.18.1,1,1,0,0,0,0,.36V2.9a.92.92,0,0,0,0,.35.21.21,0,0,0,.19.09.18.18,0,0,0,.18-.09.85.85,0,0,0,0-.39Z"/><path class="cls-1" d="M10.92,5.7,7.63,4.33v-.7l3.29-1.37v.9L8.89,4l2,.82Z"/></svg>