<svg id="Layer_1" data-name="Layer 1" xmlns="http://www.w3.org/2000/svg" viewBox="0 0 757 812"><defs><style>.cls-1{fill:#0031ff;}.cls-2{fill:#070707;}.cls-3,.cls-5{fill:none;}.cls-3{stroke:#070707;stroke-miterlimit:10;stroke-width:3px;}.cls-4{fill:#eaeaea;}.cls-6{opacity:0.51;}</style></defs><polygon class="cls-1" points="283 445 472 402 14 348 501 330 285 313 482 265 309 224 455 183 426 157 429 157 489 193 375 225 551 262 369 308 742 327 205 360 598 393 356 458 455 545 452 547 283 445"/><rect class="cls-2" x="426" y="19" width="206" height="44"/><line class="cls-3" x1="427.5" y1="50" x2="427.5" y2="157"/><path class="cls-4" d="M434.33,28.09a12.66,12.66,0,0,1,2.39-.21,4.15,4.15,0,0,1,2.77.74,2.1,2.1,0,0,1,.84,1.78,2.39,2.39,0,0,1-1.71,2.22v0a2.62,2.62,0,0,1,2.09,2.54,2.67,2.67,0,0,1-.86,2,5,5,0,0,1-3.49.95,15.41,15.41,0,0,1-2-.12Zm1.31,4.14h1.18c1.39,0,2.19-.72,2.19-1.69,0-1.19-.89-1.65-2.22-1.65a5.26,5.26,0,0,0-1.15.09Zm0,4.85a7.57,7.57,0,0,0,1.09.06c1.35,0,2.6-.5,2.6-2s-1.19-2-2.61-2h-1.08Z"/><path class="cls-4" d="M443.77,28v6c0,2.27,1,3.23,2.35,3.23s2.46-1,2.46-3.23V28h1.32v5.89c0,3.11-1.63,4.38-3.82,4.38s-3.63-1.18-3.63-4.32V28Z"/><path class="cls-4" d="M452,36.48a4.61,4.61,0,0,0,2.34.66c1.33,0,2.11-.71,2.11-1.73s-.54-1.48-1.9-2c-1.65-.58-2.67-1.44-2.67-2.86,0-1.58,1.3-2.75,3.27-2.75a4.52,4.52,0,0,1,2.23.5L457,29.35a4,4,0,0,0-1.92-.48c-1.38,0-1.9.83-1.9,1.52,0,.94.61,1.41,2,2,1.71.66,2.58,1.48,2.58,3s-1.16,2.91-3.54,2.91a5.21,5.21,0,0,1-2.58-.65Z"/><path class="cls-4" d="M460.87,28V38.07h-1.31V28Z"/><path class="cls-4" d="M463.15,38.07V28h1.42l3.24,5.11a28.75,28.75,0,0,1,1.82,3.29l0,0c-.12-1.35-.15-2.58-.15-4.15V28h1.23V38.07h-1.32l-3.21-5.13a31.27,31.27,0,0,1-1.89-3.38l-.05,0c.08,1.27.11,2.49.11,4.17v4.32Z"/><path class="cls-4" d="M478.25,33.33h-3.93V37h4.38v1.1H473V28h5.46v1.09h-4.16v3.2h3.93Z"/><path class="cls-4" d="M480.22,36.48a4.61,4.61,0,0,0,2.34.66c1.33,0,2.11-.71,2.11-1.73s-.54-1.48-1.9-2c-1.65-.58-2.67-1.44-2.67-2.86,0-1.58,1.3-2.75,3.27-2.75a4.52,4.52,0,0,1,2.23.5l-.36,1.06a4,4,0,0,0-1.92-.48c-1.38,0-1.9.83-1.9,1.52,0,.94.61,1.41,2,2,1.71.66,2.58,1.48,2.58,3s-1.16,2.91-3.54,2.91a5.21,5.21,0,0,1-2.58-.65Z"/><path class="cls-4" d="M487.61,36.48a4.64,4.64,0,0,0,2.34.66c1.34,0,2.12-.71,2.12-1.73s-.54-1.48-1.91-2c-1.65-.58-2.67-1.44-2.67-2.86,0-1.58,1.31-2.75,3.27-2.75a4.54,4.54,0,0,1,2.24.5l-.36,1.06a4,4,0,0,0-1.92-.48c-1.38,0-1.91.83-1.91,1.52,0,.94.62,1.41,2,2,1.71.66,2.58,1.48,2.58,3s-1.15,2.91-3.54,2.91a5.24,5.24,0,0,1-2.58-.65Z"/><path class="cls-4" d="M494.29,39.91a22,22,0,0,0,.9-3.58l1.47-.15a18.51,18.51,0,0,1-1.43,3.64Z"/><path class="cls-4" d="M510,33.63c-.07-1.41-.16-3.11-.15-4.37h0c-.35,1.19-.77,2.45-1.28,3.84L506.74,38h-1l-1.64-4.82c-.48-1.42-.88-2.73-1.17-3.93h0c0,1.26-.1,3-.19,4.47l-.27,4.34H501.2L501.91,28h1.66l1.73,4.89c.42,1.24.76,2.35,1,3.4h0c.26-1,.62-2.13,1.07-3.4l1.8-4.89h1.66l.63,10.11h-1.27Z"/><path class="cls-4" d="M515,34.89l-1,3.18h-1.35L516.05,28h1.58l3.45,10.11h-1.4l-1.08-3.18Zm3.31-1-1-2.91c-.22-.66-.37-1.26-.52-1.85h0c-.15.6-.32,1.22-.51,1.83l-1,2.93Z"/><path class="cls-4" d="M522.56,28.09a14.1,14.1,0,0,1,2.51-.21,4.13,4.13,0,0,1,2.92.83,2.52,2.52,0,0,1,.8,1.92,2.66,2.66,0,0,1-1.91,2.58v0a2.52,2.52,0,0,1,1.49,2,16.2,16.2,0,0,0,.78,2.78H527.8a13.18,13.18,0,0,1-.68-2.42c-.3-1.39-.84-1.92-2-2h-1.23v4.38h-1.31Zm1.31,4.61h1.33c1.4,0,2.28-.77,2.28-1.92,0-1.31-.94-1.88-2.32-1.89a5.37,5.37,0,0,0-1.29.12Z"/><path class="cls-4" d="M530.63,28h1.31v4.87h0c.27-.39.54-.75.8-1.08L535.87,28h1.62l-3.66,4.29,3.94,5.82h-1.54l-3.33-5-1,1.11v3.86h-1.31Z"/><path class="cls-4" d="M544,33.33h-3.93V37h4.38v1.1h-5.69V28h5.46v1.09h-4.15v3.2H544Z"/><path class="cls-4" d="M548.3,29.07h-3.07V28h7.48v1.11h-3.09v9H548.3Z"/><path class="cls-4" d="M555.14,28V38.07h-1.3V28Z"/><path class="cls-4" d="M557.42,38.07V28h1.43l3.24,5.11a28.57,28.57,0,0,1,1.81,3.29l0,0c-.12-1.35-.15-2.58-.15-4.15V28H565V38.07h-1.32l-3.21-5.13a33.07,33.07,0,0,1-1.89-3.38l0,0c.07,1.27.1,2.49.1,4.17v4.32Z"/><path class="cls-4" d="M575,37.62a9.48,9.48,0,0,1-3.11.55,4.74,4.74,0,0,1-5.19-5.1c0-3,2.09-5.22,5.48-5.22a6.25,6.25,0,0,1,2.52.47l-.32,1.06a5.22,5.22,0,0,0-2.23-.43A3.78,3.78,0,0,0,568.07,33c0,2.57,1.55,4.08,3.9,4.08a4.24,4.24,0,0,0,1.74-.27v-3h-2.05V32.76H575Z"/><path class="cls-4" d="M581.8,34.89l-1,3.18H579.4L582.83,28h1.58l3.45,10.11h-1.4l-1.08-3.18Zm3.31-1-1-2.91c-.22-.66-.37-1.26-.52-1.85h0c-.15.6-.32,1.22-.51,1.83l-1,2.93Z"/><path class="cls-4" d="M589.34,38.07V28h1.43L594,33.07a28.57,28.57,0,0,1,1.81,3.29l0,0c-.12-1.35-.15-2.58-.15-4.15V28h1.23V38.07h-1.32l-3.21-5.13a33.07,33.07,0,0,1-1.89-3.38l0,0c.07,1.27.1,2.49.1,4.17v4.32Z"/><path class="cls-4" d="M599.21,28.09a18.76,18.76,0,0,1,2.78-.21,5.8,5.8,0,0,1,4.09,1.26,4.67,4.67,0,0,1,1.43,3.63,5.33,5.33,0,0,1-1.46,3.93,6.19,6.19,0,0,1-4.47,1.46,22.32,22.32,0,0,1-2.37-.12ZM600.52,37a8.17,8.17,0,0,0,1.32.08c2.79,0,4.3-1.56,4.3-4.29,0-2.39-1.33-3.9-4.09-3.9a7.78,7.78,0,0,0-1.53.13Z"/><path class="cls-4" d="M613.69,28V38.07h-1.31V28Z"/><path class="cls-4" d="M617.89,29.07h-3.08V28h7.49v1.11h-3.09v9h-1.32Z"/><path class="cls-4" d="M436.55,47.39h0L435.4,48l-.17-.67,1.42-.76h.75v6.5h-.85Z"/><path class="cls-4" d="M442.08,52a3.08,3.08,0,0,0,1.56.44c.89,0,1.41-.47,1.41-1.15s-.36-1-1.27-1.34c-1.1-.39-1.78-1-1.78-1.91a1.94,1.94,0,0,1,2.18-1.83,3.06,3.06,0,0,1,1.49.33l-.24.71a2.68,2.68,0,0,0-1.28-.32c-.92,0-1.27.55-1.27,1,0,.63.41.94,1.34,1.3,1.14.44,1.72,1,1.72,2s-.77,1.94-2.36,1.94a3.48,3.48,0,0,1-1.72-.43Z"/><path class="cls-4" d="M450.62,49.91H448v2.43h2.92v.73h-3.79V46.33h3.64v.73H448v2.13h2.62Z"/><path class="cls-4" d="M457.73,50.11c-.05-.94-.11-2.07-.1-2.91h0c-.23.79-.51,1.63-.85,2.56L455.56,53h-.66l-1.09-3.21c-.32-1-.59-1.82-.78-2.62h0c0,.84-.07,2-.13,3l-.18,2.89h-.83l.47-6.74h1.11l1.15,3.26c.28.83.51,1.57.68,2.27h0c.17-.68.41-1.42.71-2.27l1.2-3.26h1.11l.42,6.74h-.85Z"/><path class="cls-4" d="M463.58,49.91H461v2.43h2.92v.73h-3.79V46.33h3.64v.73H461v2.13h2.62Z"/><path class="cls-4" d="M464.89,52a3.08,3.08,0,0,0,1.56.44c.89,0,1.41-.47,1.41-1.15s-.36-1-1.27-1.34c-1.1-.39-1.78-1-1.78-1.91A1.94,1.94,0,0,1,467,46.22a3.06,3.06,0,0,1,1.49.33l-.24.71a2.68,2.68,0,0,0-1.28-.32c-.92,0-1.27.55-1.27,1,0,.63.41.94,1.34,1.3,1.14.44,1.72,1,1.72,2s-.77,1.94-2.36,1.94a3.48,3.48,0,0,1-1.72-.43Z"/><path class="cls-4" d="M471.22,47.07h-2.05v-.74h5v.74H472.1v6h-.88Z"/><path class="cls-4" d="M478.4,49.91h-2.62v2.43h2.92v.73h-3.79V46.33h3.64v.73h-2.77v2.13h2.62Z"/><path class="cls-4" d="M479.83,46.42a9.06,9.06,0,0,1,1.67-.14,2.76,2.76,0,0,1,1.95.55,1.68,1.68,0,0,1,.53,1.28,1.77,1.77,0,0,1-1.27,1.72v0a1.68,1.68,0,0,1,1,1.36,10.73,10.73,0,0,0,.52,1.85h-.9a8.73,8.73,0,0,1-.45-1.61c-.2-.93-.56-1.28-1.35-1.31h-.82v2.92h-.87Zm.87,3.07h.89c.93,0,1.52-.51,1.52-1.28S482.48,47,481.56,47a3.58,3.58,0,0,0-.86.08Z"/><path class="cls-4" d="M488.42,51l-.7,2.12h-.9l2.29-6.74h1.05l2.3,6.74h-.93L490.81,51Zm2.21-.68L490,48.33c-.15-.44-.25-.84-.35-1.23h0c-.1.4-.21.81-.34,1.22l-.66,2Z"/><path class="cls-4" d="M493.45,46.42a8.43,8.43,0,0,1,1.59-.14,2.79,2.79,0,0,1,1.85.49,1.41,1.41,0,0,1,.56,1.19,1.6,1.6,0,0,1-1.14,1.48v0a1.74,1.74,0,0,1,1.39,1.69,1.82,1.82,0,0,1-.57,1.35,3.39,3.39,0,0,1-2.33.63,10.17,10.17,0,0,1-1.35-.08Zm.87,2.76h.79c.92,0,1.46-.48,1.46-1.13S496,47,495.09,47a3.73,3.73,0,0,0-.77.06Zm0,3.23a4.65,4.65,0,0,0,.73,0c.9,0,1.73-.33,1.73-1.31s-.79-1.3-1.74-1.3h-.72Z"/><path class="cls-4" d="M498.87,46.42a9.06,9.06,0,0,1,1.67-.14,2.76,2.76,0,0,1,1.95.55,1.68,1.68,0,0,1,.53,1.28,1.77,1.77,0,0,1-1.27,1.72v0a1.68,1.68,0,0,1,1,1.36,10.73,10.73,0,0,0,.52,1.85h-.9a8.73,8.73,0,0,1-.45-1.61c-.2-.93-.56-1.28-1.35-1.31h-.82v2.92h-.87Zm.87,3.07h.89c.93,0,1.52-.51,1.52-1.28S501.52,47,500.6,47a3.58,3.58,0,0,0-.86.08Z"/><path class="cls-4" d="M510,49.63c0,2.32-1.41,3.55-3.13,3.55s-3-1.38-3-3.42,1.33-3.54,3.13-3.54S510,47.63,510,49.63Zm-5.23.11c0,1.44.78,2.73,2.15,2.73s2.16-1.27,2.16-2.8c0-1.34-.7-2.74-2.15-2.74S504.81,48.26,504.81,49.74Z"/><path class="cls-4" d="M512.12,51l-.7,2.12h-.9l2.29-6.74h1.05l2.3,6.74h-.93L514.51,51Zm2.21-.68-.66-1.94c-.15-.44-.25-.84-.35-1.23h0c-.1.4-.21.81-.34,1.22l-.66,2Z"/><path class="cls-4" d="M517.15,46.42a12.46,12.46,0,0,1,1.85-.14,3.86,3.86,0,0,1,2.73.84,3.1,3.1,0,0,1,.95,2.42,3.56,3.56,0,0,1-1,2.62,4.15,4.15,0,0,1-3,1,14,14,0,0,1-1.58-.08Zm.87,6a5.49,5.49,0,0,0,.88,0,2.59,2.59,0,0,0,2.87-2.86A2.4,2.4,0,0,0,519,47a4.94,4.94,0,0,0-1,.09Z"/><path class="cls-4" d="M527,51l-.7,2.12h-.9l2.29-6.74h1l2.3,6.74h-.93L529.41,51Zm2.21-.68-.66-1.94c-.15-.44-.25-.84-.35-1.23h0c-.1.4-.21.81-.34,1.22l-.66,2Z"/><path class="cls-4" d="M532.56,47.07h-2v-.74h5v.74h-2.06v6h-.88Z"/><path class="cls-4" d="M543.08,52.85a4.32,4.32,0,0,1-1.78.32A3.15,3.15,0,0,1,538,49.76a3.35,3.35,0,0,1,3.52-3.54,3.61,3.61,0,0,1,1.6.3l-.21.71a3.17,3.17,0,0,0-1.36-.28,2.51,2.51,0,0,0-2.63,2.78,2.45,2.45,0,0,0,2.59,2.71,3.48,3.48,0,0,0,1.42-.28Z"/><path class="cls-4" d="M545,46.33v6.74h-.87V46.33Z"/><path class="cls-4" d="M546.56,46.42a8.43,8.43,0,0,1,1.59-.14,2.79,2.79,0,0,1,1.85.49,1.41,1.41,0,0,1,.56,1.19,1.6,1.6,0,0,1-1.14,1.48v0a1.74,1.74,0,0,1,1.39,1.69,1.82,1.82,0,0,1-.57,1.35,3.39,3.39,0,0,1-2.33.63,10.17,10.17,0,0,1-1.35-.08Zm.87,2.76h.79c.92,0,1.46-.48,1.46-1.13s-.6-1.1-1.48-1.1a3.73,3.73,0,0,0-.77.06Zm0,3.23a4.65,4.65,0,0,0,.73,0c.9,0,1.73-.33,1.73-1.31s-.79-1.3-1.74-1.3h-.72Z"/><path class="cls-4" d="M552.85,46.33v4c0,1.51.67,2.15,1.57,2.15s1.64-.66,1.64-2.15v-4h.88v3.93c0,2.07-1.09,2.92-2.55,2.92S552,52.39,552,50.3v-4Z"/><path class="cls-4" d="M557.58,54.3a14.39,14.39,0,0,0,.6-2.39l1-.1a12.19,12.19,0,0,1-.95,2.43Z"/><path class="cls-4" d="M562.25,52a3.08,3.08,0,0,0,1.56.44c.89,0,1.41-.47,1.41-1.15s-.36-1-1.27-1.34c-1.1-.39-1.78-1-1.78-1.91a1.94,1.94,0,0,1,2.18-1.83,3.06,3.06,0,0,1,1.49.33l-.24.71a2.68,2.68,0,0,0-1.28-.32c-.92,0-1.27.55-1.27,1,0,.63.41.94,1.34,1.3,1.14.44,1.72,1,1.72,2s-.77,1.94-2.36,1.94a3.48,3.48,0,0,1-1.72-.43Z"/><path class="cls-4" d="M568.39,51l-.7,2.12h-.9l2.29-6.74h1l2.3,6.74h-.93L570.78,51Zm2.21-.68-.66-1.94c-.15-.44-.25-.84-.35-1.23h0c-.1.4-.21.81-.34,1.22l-.66,2Z"/><path class="cls-4" d="M573.42,53.07V46.33h1l2.16,3.41a19.08,19.08,0,0,1,1.21,2.19h0c-.08-.9-.1-1.72-.1-2.77V46.33h.82v6.74h-.88l-2.14-3.42a21.39,21.39,0,0,1-1.26-2.25h0c.05.85.07,1.66.07,2.78v2.88Z"/><path class="cls-4" d="M582.12,46.42a12.46,12.46,0,0,1,1.85-.14,3.86,3.86,0,0,1,2.73.84,3.1,3.1,0,0,1,.95,2.42,3.56,3.56,0,0,1-1,2.62,4.15,4.15,0,0,1-3,1,14,14,0,0,1-1.58-.08Zm.87,6a5.49,5.49,0,0,0,.88,0,2.59,2.59,0,0,0,2.87-2.86A2.4,2.4,0,0,0,584,47a4.94,4.94,0,0,0-1,.09Z"/><path class="cls-4" d="M589.65,46.33v6.74h-.87V46.33Z"/><path class="cls-4" d="M594.66,49.91H592v2.43H595v.73h-3.79V46.33h3.64v.73H592v2.13h2.62Z"/><path class="cls-4" d="M601.22,52.77a6.28,6.28,0,0,1-2.07.37,3.17,3.17,0,0,1-3.46-3.4,3.38,3.38,0,0,1,3.65-3.48,4.17,4.17,0,0,1,1.68.31l-.21.71a3.49,3.49,0,0,0-1.49-.29,2.52,2.52,0,0,0-2.71,2.71,2.47,2.47,0,0,0,2.6,2.72,2.84,2.84,0,0,0,1.16-.18v-2H599v-.7h2.22Z"/><path class="cls-4" d="M608.31,49.63c0,2.32-1.41,3.55-3.13,3.55s-3-1.38-3-3.42,1.33-3.54,3.13-3.54S608.31,47.63,608.31,49.63Zm-5.23.11c0,1.44.78,2.73,2.15,2.73s2.16-1.27,2.16-2.8c0-1.34-.7-2.74-2.15-2.74S603.08,48.26,603.08,49.74Z"/><line class="cls-5" x1="485" y1="84" x2="485" y2="188"/><rect class="cls-2" x="80" y="73" width="232" height="44" transform="translate(392 190) rotate(-180)"/><line class="cls-3" x1="310.5" y1="117" x2="310.5" y2="224"/><path class="cls-4" d="M90.58,89.89l-1,3.18H88.18L91.61,83h1.58l3.45,10.11h-1.4l-1.08-3.18Zm3.31-1L92.9,86c-.22-.66-.37-1.26-.52-1.85h0c-.15.6-.32,1.22-.51,1.83l-1,2.93Z"/><path class="cls-4" d="M99.43,83V93.07H98.12V83Z"/><path class="cls-4" d="M101.71,83.09a14,14,0,0,1,2.5-.21,4.14,4.14,0,0,1,2.93.83,2.51,2.51,0,0,1,.79,1.92,2.66,2.66,0,0,1-1.9,2.58v0a2.52,2.52,0,0,1,1.48,2,16.2,16.2,0,0,0,.78,2.78h-1.35a13.49,13.49,0,0,1-.67-2.42c-.3-1.39-.84-1.92-2-2H103v4.38h-1.3ZM103,87.7h1.34c1.39,0,2.28-.77,2.28-1.92,0-1.31-.95-1.88-2.33-1.89A5.37,5.37,0,0,0,103,84Z"/><path class="cls-4" d="M109.78,83h5.44v1.09h-4.14v3.36h3.83v1.08h-3.83v4.58h-1.3Z"/><path class="cls-4" d="M117.08,83.09a14.1,14.1,0,0,1,2.51-.21,4.13,4.13,0,0,1,2.92.83,2.52,2.52,0,0,1,.8,1.92,2.66,2.66,0,0,1-1.91,2.58v0a2.52,2.52,0,0,1,1.49,2,16.2,16.2,0,0,0,.78,2.78h-1.35a13.18,13.18,0,0,1-.68-2.42c-.3-1.39-.84-1.92-2-2h-1.23v4.38h-1.31Zm1.31,4.61h1.33c1.4,0,2.28-.77,2.28-1.92,0-1.31-.94-1.88-2.32-1.89a5.37,5.37,0,0,0-1.29.12Z"/><path class="cls-4" d="M130.39,88.33h-3.93V92h4.38v1.1h-5.69V83h5.46v1.09h-4.15v3.2h3.93Z"/><path class="cls-4" d="M133.84,83V93.07h-1.31V83Z"/><path class="cls-4" d="M143.81,92.62a9.41,9.41,0,0,1-3.1.55,4.74,4.74,0,0,1-5.19-5.1c0-3,2.08-5.22,5.47-5.22a6.21,6.21,0,0,1,2.52.47l-.31,1.06A5.28,5.28,0,0,0,141,84,3.78,3.78,0,0,0,136.9,88c0,2.57,1.54,4.08,3.9,4.08a4.27,4.27,0,0,0,1.74-.27v-3h-2.06v-1h3.33Z"/><path class="cls-4" d="M147.11,83v4.23H152V83h1.32V93.07H152V88.33h-4.89v4.74h-1.3V83Z"/><path class="cls-4" d="M157.51,84.07h-3.08V83h7.49v1.11h-3.09v9h-1.32Z"/><path class="cls-4" d="M166.22,83h5.45v1.09h-4.14v3.36h3.82v1.08h-3.82v4.58h-1.31Z"/><path class="cls-4" d="M182.17,87.91c0,3.48-2.12,5.32-4.7,5.32s-4.54-2.07-4.54-5.13,2-5.31,4.69-5.31S182.17,84.91,182.17,87.91Zm-7.85.16c0,2.16,1.17,4.1,3.23,4.1s3.24-1.91,3.24-4.2c0-2-1-4.11-3.23-4.11S174.32,85.85,174.32,88.07Z"/><path class="cls-4" d="M183.86,83.09a14.1,14.1,0,0,1,2.51-.21,4.13,4.13,0,0,1,2.92.83,2.52,2.52,0,0,1,.8,1.92,2.66,2.66,0,0,1-1.91,2.58v0a2.52,2.52,0,0,1,1.49,2,16.2,16.2,0,0,0,.78,2.78H189.1a13.18,13.18,0,0,1-.68-2.42c-.3-1.39-.84-1.92-2-2h-1.23v4.38h-1.31Zm1.31,4.61h1.33c1.4,0,2.28-.77,2.28-1.92,0-1.31-.94-1.88-2.32-1.89a5.37,5.37,0,0,0-1.29.12Z"/><path class="cls-4" d="M193.82,93.07,191.26,83h1.38l1.2,5.11c.3,1.26.57,2.52.75,3.5h0c.16-1,.48-2.21.82-3.51l1.35-5.1h1.37l1.23,5.13c.28,1.2.55,2.4.7,3.46h0c.21-1.11.5-2.23.81-3.49l1.34-5.1h1.33l-2.86,10.11h-1.37L198.1,87.8a28.21,28.21,0,0,1-.66-3.3h0a32.28,32.28,0,0,1-.78,3.3l-1.44,5.27Z"/><path class="cls-4" d="M205.64,89.89l-1,3.18h-1.35L206.68,83h1.57l3.45,10.11h-1.39l-1.08-3.18Zm3.32-1L208,86c-.23-.66-.38-1.26-.53-1.85h0c-.15.6-.31,1.22-.51,1.83l-1,2.93Z"/><path class="cls-4" d="M213.19,83.09a14,14,0,0,1,2.5-.21,4.14,4.14,0,0,1,2.93.83,2.51,2.51,0,0,1,.79,1.92,2.66,2.66,0,0,1-1.9,2.58v0a2.52,2.52,0,0,1,1.48,2,16.2,16.2,0,0,0,.78,2.78h-1.35a13.49,13.49,0,0,1-.67-2.42c-.3-1.39-.84-1.92-2-2h-1.23v4.38h-1.3Zm1.3,4.61h1.34c1.39,0,2.28-.77,2.28-1.92,0-1.31-1-1.88-2.33-1.89a5.37,5.37,0,0,0-1.29.12Z"/><path class="cls-4" d="M221.26,83.09a18.62,18.62,0,0,1,2.77-.21,5.83,5.83,0,0,1,4.1,1.26,4.67,4.67,0,0,1,1.42,3.63,5.36,5.36,0,0,1-1.45,3.93,6.22,6.22,0,0,1-4.47,1.46,22.32,22.32,0,0,1-2.37-.12Zm1.3,8.94a8.17,8.17,0,0,0,1.32.08c2.79,0,4.31-1.56,4.31-4.29,0-2.39-1.34-3.9-4.1-3.9a8,8,0,0,0-1.53.13Z"/><path class="cls-4" d="M236.48,88.33h-3.93V92h4.38v1.1h-5.68V83h5.46v1.09h-4.16v3.2h3.93Z"/><path class="cls-4" d="M238.63,83.09a14,14,0,0,1,2.5-.21,4.14,4.14,0,0,1,2.93.83,2.51,2.51,0,0,1,.79,1.92,2.66,2.66,0,0,1-1.9,2.58v0a2.52,2.52,0,0,1,1.48,2,16.2,16.2,0,0,0,.78,2.78h-1.35a13.49,13.49,0,0,1-.67-2.42c-.3-1.39-.84-1.92-2-2h-1.23v4.38h-1.3Zm1.3,4.61h1.34c1.39,0,2.28-.77,2.28-1.92,0-1.31-1-1.88-2.33-1.89a5.37,5.37,0,0,0-1.29.12Z"/><path class="cls-4" d="M251.18,84.07h-3.07V83h7.48v1.11H252.5v9h-1.32Z"/><path class="cls-4" d="M256.72,83.09a14,14,0,0,1,2.5-.21,4.14,4.14,0,0,1,2.93.83,2.51,2.51,0,0,1,.79,1.92,2.66,2.66,0,0,1-1.9,2.58v0a2.52,2.52,0,0,1,1.48,2,16.2,16.2,0,0,0,.78,2.78H262a13.49,13.49,0,0,1-.67-2.42c-.3-1.39-.84-1.92-2-2H258v4.38h-1.3ZM258,87.7h1.34c1.39,0,2.28-.77,2.28-1.92,0-1.31-.95-1.88-2.33-1.89A5.37,5.37,0,0,0,258,84Z"/><path class="cls-4" d="M266.5,89.89l-1.05,3.18H264.1L267.53,83h1.58l3.45,10.11h-1.4l-1.08-3.18Zm3.31-1-1-2.91c-.22-.66-.37-1.26-.52-1.85h0c-.15.6-.32,1.22-.51,1.83l-1,2.93Z"/><path class="cls-4" d="M274,93.07V83h1.43l3.24,5.11a28.57,28.57,0,0,1,1.81,3.29l0,0c-.12-1.35-.15-2.58-.15-4.15V83h1.23V93.07h-1.32l-3.21-5.13a33.07,33.07,0,0,1-1.89-3.38l0,0c.07,1.27.1,2.49.1,4.17v4.32Z"/><path class="cls-4" d="M285.22,83V93.07h-1.31V83Z"/><path class="cls-4" d="M292.73,88.33H288.8V92h4.38v1.1H287.5V83H293v1.09H288.8v3.2h3.93Z"/><path class="cls-4" d="M300.11,88.33h-3.93V92h4.38v1.1h-5.68V83h5.46v1.09h-4.16v3.2h3.93Z"/><path class="cls-4" d="M88.56,103.33h.87v3.25h0c.18-.26.36-.5.53-.72l2.06-2.53h1.08l-2.44,2.86,2.63,3.88h-1l-2.22-3.31-.64.74v2.57h-.87Z"/><path class="cls-4" d="M94.85,103.33v4c0,1.51.67,2.15,1.57,2.15s1.64-.66,1.64-2.15v-4h.88v3.93c0,2.07-1.09,2.92-2.55,2.92S94,109.39,94,107.3v-4Z"/><path class="cls-4" d="M103.94,106.91h-2.62v2.43h2.92v.73h-3.79v-6.74h3.64v.73h-2.77v2.13h2.62Z"/><path class="cls-4" d="M106.24,103.33v2.82h3.26v-2.82h.88v6.74h-.88v-3.16h-3.26v3.16h-.87v-6.74Z"/><path class="cls-4" d="M111.89,110.07v-6.74h1l2.16,3.41a19.08,19.08,0,0,1,1.21,2.19h0c-.08-.9-.1-1.72-.1-2.77v-2.82H117v6.74h-.88l-2.14-3.42a21.39,21.39,0,0,1-1.26-2.25h0c0,.85.07,1.66.07,2.78v2.88Z"/><path class="cls-4" d="M122,106.91h-2.62v2.43h2.92v.73h-3.79v-6.74h3.64v.73h-2.77v2.13H122Z"/><path class="cls-4" d="M128.05,104.75v2.35h2.26v.6h-2.26v2.37h-.64V107.7h-2.26v-.6h2.26v-2.35Z"/><path class="cls-4" d="M133.59,110.07v-6.74h.95l2.16,3.41a19.08,19.08,0,0,1,1.21,2.19h0c-.08-.9-.1-1.72-.1-2.77v-2.82h.82v6.74h-.88l-2.14-3.42a21.39,21.39,0,0,1-1.26-2.25h0c0,.85.07,1.66.07,2.78v2.88Z"/><path class="cls-4" d="M141.26,108l-.7,2.12h-.9l2.29-6.74H143l2.3,6.74h-.93l-.72-2.12Zm2.21-.68-.66-1.94c-.15-.44-.25-.84-.35-1.23h0c-.1.4-.21.81-.34,1.22l-.66,2Z"/><path class="cls-4" d="M151.27,109.77a6.28,6.28,0,0,1-2.07.37,3.17,3.17,0,0,1-3.46-3.4,3.38,3.38,0,0,1,3.65-3.48,4.17,4.17,0,0,1,1.68.31l-.21.71a3.49,3.49,0,0,0-1.49-.29,2.52,2.52,0,0,0-2.71,2.71,2.47,2.47,0,0,0,2.6,2.72,2.84,2.84,0,0,0,1.16-.18v-2h-1.37v-.7h2.22Z"/><path class="cls-4" d="M156.09,106.91h-2.62v2.43h2.92v.73H152.6v-6.74h3.64v.73h-2.77v2.13h2.62Z"/><path class="cls-4" d="M157.52,103.33h.87v6h2.88v.73h-3.75Z"/><path class="cls-4" d="M161.64,111.3a14.39,14.39,0,0,0,.6-2.39l1-.1a12.19,12.19,0,0,1-.95,2.43Z"/><path class="cls-4" d="M166.43,103.33h.87v3.25h0c.18-.26.36-.5.53-.72l2.06-2.53H171l-2.44,2.86,2.63,3.88h-1l-2.22-3.31-.64.74v2.57h-.87Z"/><path class="cls-4" d="M173,108l-.7,2.12h-.9l2.29-6.74h1.05l2.3,6.74h-.93l-.72-2.12Zm2.21-.68-.66-1.94c-.15-.44-.25-.84-.35-1.23h0c-.1.4-.21.81-.34,1.22l-.66,2Z"/><path class="cls-4" d="M178,109a3.08,3.08,0,0,0,1.56.44c.89,0,1.41-.47,1.41-1.15s-.36-1-1.27-1.34c-1.1-.39-1.78-1-1.78-1.91a1.94,1.94,0,0,1,2.18-1.83,3.06,3.06,0,0,1,1.49.33l-.24.71a2.68,2.68,0,0,0-1.28-.32c-.92,0-1.27.55-1.27,1,0,.63.41.94,1.34,1.3,1.14.44,1.72,1,1.72,2s-.77,1.94-2.36,1.94a3.48,3.48,0,0,1-1.72-.43Z"/><path class="cls-4" d="M184.28,104.07h-2.05v-.74h5v.74h-2.06v6h-.88Z"/><path class="cls-4" d="M188,103.42a9.06,9.06,0,0,1,1.67-.14,2.76,2.76,0,0,1,2,.55,1.68,1.68,0,0,1,.53,1.28,1.77,1.77,0,0,1-1.27,1.72v0a1.68,1.68,0,0,1,1,1.36,10.73,10.73,0,0,0,.52,1.85h-.9a8.73,8.73,0,0,1-.45-1.61c-.2-.93-.56-1.28-1.35-1.31h-.82v2.92H188Zm.87,3.07h.89c.93,0,1.52-.51,1.52-1.28s-.63-1.25-1.55-1.26a3.58,3.58,0,0,0-.86.08Z"/><path class="cls-4" d="M194.22,103.33v4c0,1.51.67,2.15,1.57,2.15s1.64-.66,1.64-2.15v-4h.88v3.93c0,2.07-1.09,2.92-2.55,2.92s-2.42-.79-2.42-2.88v-4Z"/><path class="cls-4" d="M199.82,103.41a10.08,10.08,0,0,1,1.67-.13,2.77,2.77,0,0,1,1.89.56,1.81,1.81,0,0,1,.59,1.41,2,2,0,0,1-.52,1.44,2.79,2.79,0,0,1-2.06.74,3,3,0,0,1-.7-.06v2.7h-.87Zm.87,3.25a2.92,2.92,0,0,0,.72.07c1.05,0,1.69-.51,1.69-1.44s-.63-1.32-1.59-1.32a3.65,3.65,0,0,0-.82.07Z"/><path class="cls-4" d="M208.35,108l-.7,2.12h-.9l2.29-6.74h1.05l2.3,6.74h-.93l-.72-2.12Zm2.21-.68-.66-1.94c-.15-.44-.25-.84-.35-1.23h0c-.1.4-.21.81-.34,1.22l-.66,2Z"/><path class="cls-4" d="M214.25,103.33v6.74h-.87v-6.74Z"/><path class="cls-4" d="M215.77,103.42a9.06,9.06,0,0,1,1.67-.14,2.76,2.76,0,0,1,1.95.55,1.68,1.68,0,0,1,.53,1.28,1.77,1.77,0,0,1-1.27,1.72v0a1.68,1.68,0,0,1,1,1.36,10.73,10.73,0,0,0,.52,1.85h-.9a8.73,8.73,0,0,1-.45-1.61c-.2-.93-.56-1.28-1.35-1.31h-.82v2.92h-.87Zm.87,3.07h.89c.93,0,1.52-.51,1.52-1.28s-.63-1.25-1.55-1.26a3.58,3.58,0,0,0-.86.08Z"/><path class="cls-4" d="M221.15,103.41a10.08,10.08,0,0,1,1.67-.13,2.77,2.77,0,0,1,1.89.56,1.81,1.81,0,0,1,.59,1.41,2,2,0,0,1-.52,1.44,2.79,2.79,0,0,1-2.06.74,3,3,0,0,1-.7-.06v2.7h-.87Zm.87,3.25a2.92,2.92,0,0,0,.72.07c1,0,1.69-.51,1.69-1.44s-.63-1.32-1.59-1.32a3.65,3.65,0,0,0-.82.07Z"/><path class="cls-4" d="M232.23,106.63c0,2.32-1.41,3.55-3.13,3.55s-3-1.38-3-3.42,1.33-3.54,3.13-3.54S232.23,104.63,232.23,106.63Zm-5.23.11c0,1.44.78,2.73,2.15,2.73s2.16-1.27,2.16-2.8c0-1.34-.7-2.74-2.15-2.74S227,105.26,227,106.74Z"/><path class="cls-4" d="M233.36,103.42a9.06,9.06,0,0,1,1.67-.14,2.76,2.76,0,0,1,1.95.55,1.68,1.68,0,0,1,.53,1.28,1.77,1.77,0,0,1-1.27,1.72v0a1.68,1.68,0,0,1,1,1.36,10.73,10.73,0,0,0,.52,1.85h-.9a8.73,8.73,0,0,1-.45-1.61c-.2-.93-.56-1.28-1.35-1.31h-.82v2.92h-.87Zm.87,3.07h.89c.93,0,1.52-.51,1.52-1.28S236,104,235.09,104a3.58,3.58,0,0,0-.86.08Z"/><path class="cls-4" d="M240.11,104.07h-2.05v-.74h5v.74H241v6h-.88Z"/><rect class="cls-2" x="547" y="177" width="195" height="44"/><line class="cls-3" x1="740.5" y1="220" x2="740.5" y2="327"/><path class="cls-4" d="M554.33,184.09a18.76,18.76,0,0,1,2.78-.21,5.84,5.84,0,0,1,4.1,1.26,4.7,4.7,0,0,1,1.42,3.63,5.33,5.33,0,0,1-1.46,3.93,6.18,6.18,0,0,1-4.46,1.46,22.52,22.52,0,0,1-2.38-.12Zm1.31,8.94a8.17,8.17,0,0,0,1.32.08c2.79,0,4.3-1.56,4.3-4.29,0-2.39-1.33-3.9-4.09-3.9a7.78,7.78,0,0,0-1.53.13Z"/><path class="cls-4" d="M569.56,189.33h-3.93V193H570v1.1h-5.69V184h5.46v1.09h-4.15v3.2h3.93Z"/><path class="cls-4" d="M571.52,192.48a4.64,4.64,0,0,0,2.34.66c1.34,0,2.12-.71,2.12-1.73s-.54-1.48-1.91-2c-1.65-.58-2.67-1.44-2.67-2.86,0-1.58,1.31-2.75,3.27-2.75a4.54,4.54,0,0,1,2.24.5l-.36,1.06a4,4,0,0,0-1.92-.48c-1.38,0-1.91.83-1.91,1.52,0,.94.62,1.41,2,2,1.71.66,2.58,1.48,2.58,3s-1.15,2.91-3.54,2.91a5.24,5.24,0,0,1-2.58-.65Z"/><path class="cls-4" d="M580.4,184v10.11h-1.3V184Z"/><path class="cls-4" d="M590.38,193.62a9.48,9.48,0,0,1-3.11.55,4.74,4.74,0,0,1-5.19-5.1c0-3,2.09-5.22,5.48-5.22a6.25,6.25,0,0,1,2.52.47l-.32,1.06a5.22,5.22,0,0,0-2.23-.43,3.78,3.78,0,0,0-4.07,4.06c0,2.57,1.55,4.08,3.9,4.08a4.24,4.24,0,0,0,1.74-.27v-3h-2.05v-1.05h3.33Z"/><path class="cls-4" d="M592.38,194.07V184h1.42l3.24,5.11a28.57,28.57,0,0,1,1.81,3.29l0,0c-.12-1.35-.15-2.58-.15-4.15V184H600v10.11h-1.32l-3.21-5.13a33.07,33.07,0,0,1-1.89-3.38l0,0c.07,1.27.1,2.49.1,4.17v4.32Z"/><path class="cls-4" d="M611.75,194.07l-.94-1a4.15,4.15,0,0,1-3,1.15,2.86,2.86,0,0,1-3.1-2.83,3.32,3.32,0,0,1,2-3v0a3.46,3.46,0,0,1-.84-2.12,2.45,2.45,0,0,1,2.56-2.49,2.11,2.11,0,0,1,2.24,2.15c0,1.06-.62,1.9-2.22,2.7v0c.85,1,1.81,2.1,2.46,2.82a7.39,7.39,0,0,0,1-2.95h1.2a7.65,7.65,0,0,1-1.45,3.73c.54.57,1.06,1.14,1.66,1.79Zm-1.59-1.74c-.6-.66-1.72-1.89-2.85-3.18a2.47,2.47,0,0,0-1.3,2,2,2,0,0,0,2.07,2A2.83,2.83,0,0,0,610.16,192.33Zm-3.07-6.17a2.87,2.87,0,0,0,.76,1.82c1-.59,1.68-1.13,1.68-2a1.19,1.19,0,0,0-1.17-1.31A1.31,1.31,0,0,0,607.09,186.16Z"/><path class="cls-4" d="M625.37,193.62a9.41,9.41,0,0,1-3.1.55,4.74,4.74,0,0,1-5.19-5.1c0-3,2.08-5.22,5.47-5.22a6.21,6.21,0,0,1,2.52.47l-.31,1.06a5.28,5.28,0,0,0-2.24-.43,3.78,3.78,0,0,0-4.06,4.06c0,2.57,1.54,4.08,3.9,4.08a4.27,4.27,0,0,0,1.74-.27v-3H622v-1.05h3.33Z"/><path class="cls-4" d="M627.37,184.09a14,14,0,0,1,2.5-.21,4.14,4.14,0,0,1,2.93.83,2.51,2.51,0,0,1,.79,1.92,2.66,2.66,0,0,1-1.9,2.58v0a2.52,2.52,0,0,1,1.48,2,16.2,16.2,0,0,0,.78,2.78H632.6a13.49,13.49,0,0,1-.67-2.42c-.3-1.39-.84-1.92-2-2h-1.23v4.38h-1.3Zm1.3,4.61H630c1.39,0,2.28-.77,2.28-1.92,0-1.31-.95-1.88-2.33-1.89a5.37,5.37,0,0,0-1.29.12Z"/><path class="cls-4" d="M637.15,190.89l-1,3.18h-1.35L638.18,184h1.58l3.45,10.11h-1.4l-1.08-3.18Zm3.31-1-1-2.91c-.22-.66-.37-1.26-.52-1.85h0c-.15.6-.32,1.22-.51,1.83l-1,2.93Z"/><path class="cls-4" d="M644.69,184.08a14.58,14.58,0,0,1,2.51-.2,4.14,4.14,0,0,1,2.83.84,2.72,2.72,0,0,1,.89,2.12,3,3,0,0,1-.78,2.16,4.22,4.22,0,0,1-3.09,1.11,4.78,4.78,0,0,1-1-.09v4h-1.31ZM646,189a4.07,4.07,0,0,0,1.08.11c1.57,0,2.53-.77,2.53-2.16s-.94-2-2.38-2a5.52,5.52,0,0,0-1.23.1Z"/><path class="cls-4" d="M654,184v4.23h4.89V184h1.32v10.11h-1.32v-4.74H654v4.74h-1.31V184Z"/><path class="cls-4" d="M663.76,184v10.11h-1.31V184Z"/><path class="cls-4" d="M673.1,193.74a6.48,6.48,0,0,1-2.67.48,4.72,4.72,0,0,1-5-5.12,5,5,0,0,1,5.28-5.31,5.44,5.44,0,0,1,2.4.45l-.32,1.07a4.74,4.74,0,0,0-2-.42c-2.37,0-3.94,1.51-3.94,4.17,0,2.47,1.42,4.06,3.88,4.06a5.11,5.11,0,0,0,2.13-.42Z"/><path class="cls-4" d="M677.92,184.09a18.62,18.62,0,0,1,2.77-.21,5.83,5.83,0,0,1,4.1,1.26,4.67,4.67,0,0,1,1.42,3.63,5.36,5.36,0,0,1-1.45,3.93,6.22,6.22,0,0,1-4.47,1.46,22.32,22.32,0,0,1-2.37-.12Zm1.3,8.94a8.17,8.17,0,0,0,1.32.08c2.79,0,4.31-1.56,4.31-4.29,0-2.39-1.34-3.9-4.1-3.9a8,8,0,0,0-1.53.13Z"/><path class="cls-4" d="M693.14,189.33h-3.93V193h4.38v1.1h-5.68V184h5.46v1.09h-4.16v3.2h3.93Z"/><path class="cls-4" d="M695.11,192.48a4.61,4.61,0,0,0,2.34.66c1.33,0,2.11-.71,2.11-1.73s-.54-1.48-1.9-2C696,188.82,695,188,695,186.54c0-1.58,1.3-2.75,3.27-2.75a4.52,4.52,0,0,1,2.23.5l-.36,1.06a4,4,0,0,0-1.92-.48c-1.38,0-1.9.83-1.9,1.52,0,.94.61,1.41,2,2,1.71.66,2.58,1.48,2.58,3s-1.16,2.91-3.54,2.91a5.21,5.21,0,0,1-2.58-.65Z"/><path class="cls-4" d="M704,184v10.11h-1.31V184Z"/><path class="cls-4" d="M714,193.62a9.41,9.41,0,0,1-3.1.55,4.74,4.74,0,0,1-5.19-5.1c0-3,2.08-5.22,5.47-5.22a6.21,6.21,0,0,1,2.52.47l-.31,1.06a5.28,5.28,0,0,0-2.24-.43,3.78,3.78,0,0,0-4.06,4.06c0,2.57,1.54,4.08,3.9,4.08a4.27,4.27,0,0,0,1.74-.27v-3h-2.06v-1.05H714Z"/><path class="cls-4" d="M716,194.07V184h1.42l3.24,5.11a28.75,28.75,0,0,1,1.82,3.29l0,0c-.12-1.35-.15-2.58-.15-4.15V184h1.23v10.11h-1.32L719,188.94a31.27,31.27,0,0,1-1.89-3.38l0,0c.08,1.27.11,2.49.11,4.17v4.32Z"/><path class="cls-4" d="M554,204.33h.86v3.25h0c.18-.26.36-.5.53-.72l2.06-2.53h1.08l-2.44,2.86,2.63,3.88h-1l-2.22-3.31-.64.74v2.57H554Z"/><path class="cls-4" d="M559.38,204.42a8.87,8.87,0,0,1,1.66-.14,2.76,2.76,0,0,1,2,.55,1.68,1.68,0,0,1,.53,1.28,1.77,1.77,0,0,1-1.27,1.72v0a1.68,1.68,0,0,1,1,1.36,10.73,10.73,0,0,0,.52,1.85h-.9a8.73,8.73,0,0,1-.45-1.61c-.2-.93-.56-1.28-1.35-1.31h-.82v2.92h-.86Zm.86,3.07h.89c.93,0,1.52-.51,1.52-1.28S562,205,561.1,205a3.58,3.58,0,0,0-.86.08Z"/><path class="cls-4" d="M565.89,209l-.7,2.12h-.9l2.29-6.74h1l2.3,6.74H569l-.72-2.12Zm2.21-.68-.66-1.94c-.15-.44-.25-.84-.35-1.23h0c-.1.4-.21.81-.34,1.22l-.66,2Z"/><path class="cls-4" d="M570.92,204.42a8.43,8.43,0,0,1,1.59-.14,2.79,2.79,0,0,1,1.85.49,1.41,1.41,0,0,1,.56,1.19,1.6,1.6,0,0,1-1.14,1.48v0a1.74,1.74,0,0,1,1.39,1.69,1.82,1.82,0,0,1-.57,1.35,3.39,3.39,0,0,1-2.33.63,10.17,10.17,0,0,1-1.35-.08Zm.87,2.76h.79c.92,0,1.46-.48,1.46-1.13s-.6-1.1-1.48-1.1a3.73,3.73,0,0,0-.77.06Zm0,3.23a4.65,4.65,0,0,0,.73,0c.9,0,1.73-.33,1.73-1.31s-.79-1.3-1.74-1.3h-.72Z"/><path class="cls-4" d="M576.34,204.42a8.43,8.43,0,0,1,1.59-.14,2.79,2.79,0,0,1,1.85.49,1.41,1.41,0,0,1,.56,1.19,1.6,1.6,0,0,1-1.14,1.48v0a1.74,1.74,0,0,1,1.39,1.69,1.82,1.82,0,0,1-.57,1.35,3.39,3.39,0,0,1-2.33.63,10.17,10.17,0,0,1-1.35-.08Zm.87,2.76H578c.92,0,1.46-.48,1.46-1.13s-.6-1.1-1.48-1.1a3.73,3.73,0,0,0-.77.06Zm0,3.23a4.65,4.65,0,0,0,.73,0c.9,0,1.73-.33,1.73-1.31s-.79-1.3-1.74-1.3h-.72Z"/><path class="cls-4" d="M585.25,207.91h-2.62v2.43h2.92v.73h-3.79v-6.74h3.64v.73h-2.77v2.13h2.62Z"/><path class="cls-4" d="M586.56,210a3.08,3.08,0,0,0,1.56.44c.89,0,1.41-.47,1.41-1.15s-.36-1-1.27-1.34c-1.1-.39-1.78-1-1.78-1.91a1.94,1.94,0,0,1,2.18-1.83,3.06,3.06,0,0,1,1.49.33l-.24.71a2.68,2.68,0,0,0-1.28-.32c-.92,0-1.27.55-1.27,1,0,.63.41.94,1.34,1.3,1.14.44,1.72,1,1.72,2s-.77,1.94-2.36,1.94a3.48,3.48,0,0,1-1.72-.43Z"/><path class="cls-4" d="M592.48,204.33v2.82h3.26v-2.82h.88v6.74h-.88v-3.16h-3.26v3.16h-.87v-6.74Z"/><path class="cls-4" d="M603.89,207.63c0,2.32-1.41,3.55-3.13,3.55s-3-1.38-3-3.42,1.33-3.54,3.13-3.54S603.89,205.63,603.89,207.63Zm-5.23.11c0,1.44.78,2.73,2.15,2.73s2.16-1.27,2.16-2.8c0-1.34-.7-2.74-2.15-2.74S598.66,206.26,598.66,207.74Z"/><path class="cls-4" d="M605,204.33h.87v6h2.88v.73H605Z"/><path class="cls-4" d="M615.42,208.11c0-.94-.11-2.07-.1-2.91h0c-.23.79-.51,1.63-.85,2.56L613.25,211h-.66l-1.09-3.21c-.32-.95-.59-1.82-.78-2.62h0c0,.84-.07,2-.13,3l-.18,2.89h-.83l.47-6.74h1.11l1.15,3.26c.28.83.51,1.57.68,2.27h0c.17-.68.41-1.42.71-2.27l1.2-3.26H616l.42,6.74h-.85Z"/><path class="cls-4" d="M620.77,204.33v2.82H624v-2.82h.88v6.74H624v-3.16h-3.26v3.16h-.87v-6.74Z"/><path class="cls-4" d="M626.29,211.11l.62-.88a3.64,3.64,0,0,1-.89-2.49c0-2.13,1.35-3.52,3.11-3.52a2.82,2.82,0,0,1,1.68.53l.59-.81.53.36-.62.86a3.63,3.63,0,0,1,.87,2.48c0,2.35-1.45,3.54-3.06,3.54a2.88,2.88,0,0,1-1.71-.54l-.63.86Zm4.09-5.72a1.9,1.9,0,0,0-1.26-.47c-1.47,0-2.21,1.36-2.21,2.77a3.41,3.41,0,0,0,.5,1.81h0ZM627.84,210a1.73,1.73,0,0,0,1.26.48c1.41,0,2.19-1.29,2.19-2.81a3.3,3.3,0,0,0-.47-1.75h0Z"/><path class="cls-4" d="M634.69,204.33h.87v4.51c0,1.79-.88,2.34-2,2.34a2.82,2.82,0,0,1-.93-.16l.13-.71a2.08,2.08,0,0,0,.73.13c.78,0,1.24-.35,1.24-1.67Z"/><path class="cls-4" d="M636.89,210a3.08,3.08,0,0,0,1.56.44c.89,0,1.41-.47,1.41-1.15s-.36-1-1.27-1.34c-1.1-.39-1.78-1-1.78-1.91a1.94,1.94,0,0,1,2.18-1.83,3.06,3.06,0,0,1,1.49.33l-.24.71a2.68,2.68,0,0,0-1.28-.32c-.92,0-1.27.55-1.27,1,0,.63.41.94,1.34,1.3,1.14.44,1.72,1,1.72,2s-.77,1.94-2.36,1.94a3.48,3.48,0,0,1-1.72-.43Z"/><path class="cls-4" d="M641.94,204.33h.87v3.25h0c.18-.26.36-.5.53-.72l2.06-2.53h1.08l-2.44,2.86,2.63,3.88h-1l-2.22-3.31-.64.74v2.57h-.87Z"/><path class="cls-4" d="M653,207.63c0,2.32-1.41,3.55-3.13,3.55s-3-1.38-3-3.42,1.33-3.54,3.13-3.54S653,205.63,653,207.63Zm-5.23.11c0,1.44.78,2.73,2.15,2.73s2.16-1.27,2.16-2.8c0-1.34-.7-2.74-2.15-2.74S647.72,206.26,647.72,207.74Z"/><path class="cls-4" d="M654.08,204.33H655v6h2.88v.73h-3.75Z"/><path class="cls-4" d="M662.29,207.91h-2.62v2.43h2.92v.73H658.8v-6.74h3.64v.73h-2.77v2.13h2.62Z"/><line class="cls-3" x1="15.5" y1="241" x2="15.5" y2="348"/><rect class="cls-2" x="14" y="198" width="239" height="44"/><path class="cls-4" d="M22.64,205v10.11H21.33V205Z"/><path class="cls-4" d="M24.92,215.07V205h1.42l3.24,5.11a28.75,28.75,0,0,1,1.82,3.29l0,0c-.12-1.35-.15-2.58-.15-4.15V205h1.23v10.11H31.19L28,209.94a31.27,31.27,0,0,1-1.89-3.38l-.05,0c.08,1.27.11,2.49.11,4.17v4.32Z"/><path class="cls-4" d="M36.71,206.07H33.63V205h7.49v1.11H38v9H36.71Z"/><path class="cls-4" d="M47.48,210.33H43.55V214h4.38v1.1H42.24V205H47.7v1.09H43.55v3.2h3.93Z"/><path class="cls-4" d="M49.62,205.09a14.1,14.1,0,0,1,2.51-.21,4.13,4.13,0,0,1,2.92.83,2.52,2.52,0,0,1,.8,1.92,2.66,2.66,0,0,1-1.91,2.58v0a2.52,2.52,0,0,1,1.49,2,16.2,16.2,0,0,0,.78,2.78H54.86a13.18,13.18,0,0,1-.68-2.42c-.3-1.39-.84-1.92-2-2H50.93v4.38H49.62Zm1.31,4.61h1.33c1.4,0,2.28-.77,2.28-1.92,0-1.31-.94-1.88-2.32-1.89a5.37,5.37,0,0,0-1.29.12Z"/><path class="cls-4" d="M64.8,214.74a6.48,6.48,0,0,1-2.67.48,4.72,4.72,0,0,1-5-5.12,5,5,0,0,1,5.28-5.31,5.44,5.44,0,0,1,2.4.45l-.32,1.07a4.74,4.74,0,0,0-2-.42c-2.37,0-3.94,1.51-3.94,4.17,0,2.47,1.42,4.06,3.88,4.06a5.11,5.11,0,0,0,2.13-.42Z"/><path class="cls-4" d="M67.74,205v6c0,2.27,1,3.23,2.36,3.23,1.5,0,2.46-1,2.46-3.23v-6h1.32v5.89c0,3.11-1.64,4.38-3.83,4.38s-3.63-1.18-3.63-4.32V205Z"/><path class="cls-4" d="M76.14,205h1.31v9h4.32v1.1H76.14Z"/><path class="cls-4" d="M83.82,206.07H80.75V205h7.48v1.11H85.14v9H83.82Z"/><path class="cls-4" d="M89.36,205.09a14,14,0,0,1,2.5-.21,4.14,4.14,0,0,1,2.93.83,2.51,2.51,0,0,1,.79,1.92,2.66,2.66,0,0,1-1.9,2.58v0a2.52,2.52,0,0,1,1.48,2,16.2,16.2,0,0,0,.78,2.78H94.59a13.49,13.49,0,0,1-.67-2.42c-.3-1.39-.84-1.92-2-2H90.66v4.38h-1.3Zm1.3,4.61H92c1.39,0,2.28-.77,2.28-1.92,0-1.31-1-1.88-2.33-1.89a5.37,5.37,0,0,0-1.29.12Z"/><path class="cls-4" d="M98.73,205v6c0,2.27,1,3.23,2.36,3.23s2.46-1,2.46-3.23v-6h1.32v5.89c0,3.11-1.64,4.38-3.83,4.38s-3.63-1.18-3.63-4.32V205Z"/><path class="cls-4" d="M107.13,205.09a14.1,14.1,0,0,1,2.51-.21,4.13,4.13,0,0,1,2.92.83,2.52,2.52,0,0,1,.8,1.92,2.66,2.66,0,0,1-1.91,2.58v0a2.52,2.52,0,0,1,1.49,2,16.2,16.2,0,0,0,.78,2.78h-1.35a13.18,13.18,0,0,1-.68-2.42c-.3-1.39-.84-1.92-2-2h-1.23v4.38h-1.31Zm1.31,4.61h1.33c1.4,0,2.28-.77,2.28-1.92,0-1.31-.94-1.88-2.32-1.89a5.37,5.37,0,0,0-1.29.12Z"/><path class="cls-4" d="M116.91,211.89l-1,3.18h-1.35L118,205h1.57L123,215.07h-1.39l-1.08-3.18Zm3.32-1-1-2.91c-.23-.66-.38-1.26-.53-1.85h0c-.15.6-.31,1.22-.51,1.83l-1,2.93Z"/><path class="cls-4" d="M124.46,205h1.3v9h4.32v1.1h-5.62Z"/><path class="cls-4" d="M141.78,214.74a6.48,6.48,0,0,1-2.67.48,4.72,4.72,0,0,1-5-5.12,5,5,0,0,1,5.28-5.31,5.44,5.44,0,0,1,2.4.45l-.32,1.07a4.74,4.74,0,0,0-2-.42c-2.37,0-3.94,1.51-3.94,4.17,0,2.47,1.42,4.06,3.88,4.06a5.11,5.11,0,0,0,2.13-.42Z"/><path class="cls-4" d="M151.74,209.91c0,3.48-2.11,5.32-4.69,5.32s-4.55-2.07-4.55-5.13c0-3.21,2-5.31,4.7-5.31S151.74,206.91,151.74,209.91Zm-7.84.16c0,2.16,1.17,4.1,3.22,4.1s3.24-1.91,3.24-4.2c0-2-1.05-4.11-3.22-4.11S143.9,207.85,143.9,210.07Z"/><path class="cls-4" d="M162,210.63c-.08-1.41-.17-3.11-.15-4.37h-.05c-.34,1.19-.76,2.45-1.27,3.84L158.7,215h-1l-1.63-4.82c-.48-1.42-.89-2.73-1.17-3.93h0c0,1.26-.11,3-.2,4.47l-.27,4.34h-1.24l.7-10.11h1.67l1.72,4.89c.42,1.24.77,2.35,1,3.4h.05c.25-1,.61-2.13,1.06-3.4l1.8-4.89h1.67l.63,10.11h-1.28Z"/><path class="cls-4" d="M174,210.63c-.08-1.41-.17-3.11-.15-4.37h-.05c-.34,1.19-.76,2.45-1.27,3.84L170.76,215h-1l-1.63-4.82c-.48-1.42-.89-2.73-1.17-3.93h0c0,1.26-.11,3-.2,4.47l-.27,4.34h-1.24l.7-10.11h1.67l1.72,4.89c.42,1.24.77,2.35,1,3.4h0c.25-1,.61-2.13,1.06-3.4l1.8-4.89h1.67l.63,10.11h-1.28Z"/><path class="cls-4" d="M178.86,205v6c0,2.27,1,3.23,2.36,3.23,1.5,0,2.46-1,2.46-3.23v-6H185v5.89c0,3.11-1.64,4.38-3.83,4.38s-3.63-1.18-3.63-4.32V205Z"/><path class="cls-4" d="M187.26,215.07V205h1.43l3.24,5.11a28.57,28.57,0,0,1,1.81,3.29l0,0c-.12-1.35-.15-2.58-.15-4.15V205h1.23v10.11h-1.32l-3.21-5.13a33.07,33.07,0,0,1-1.89-3.38l0,0c.07,1.27.1,2.49.1,4.17v4.32Z"/><path class="cls-4" d="M198.44,205v10.11h-1.31V205Z"/><path class="cls-4" d="M207.78,214.74a6.48,6.48,0,0,1-2.67.48,4.72,4.72,0,0,1-5-5.12,5,5,0,0,1,5.28-5.31,5.44,5.44,0,0,1,2.4.45l-.32,1.07a4.74,4.74,0,0,0-2-.42c-2.37,0-3.94,1.51-3.94,4.17,0,2.47,1.42,4.06,3.88,4.06a5.11,5.11,0,0,0,2.13-.42Z"/><path class="cls-4" d="M211.11,211.89l-1.05,3.18h-1.35L212.15,205h1.57l3.45,10.11h-1.39l-1.08-3.18Zm3.32-1-1-2.91c-.23-.66-.38-1.26-.53-1.85h0c-.15.6-.31,1.22-.51,1.83l-1,2.93Z"/><path class="cls-4" d="M219.42,206.07h-3.07V205h7.48v1.11h-3.09v9h-1.32Z"/><path class="cls-4" d="M226.26,205v10.11H225V205Z"/><path class="cls-4" d="M237.18,209.91c0,3.48-2.11,5.32-4.69,5.32s-4.55-2.07-4.55-5.13c0-3.21,2-5.31,4.7-5.31S237.18,206.91,237.18,209.91Zm-7.84.16c0,2.16,1.17,4.1,3.22,4.1s3.24-1.91,3.24-4.2c0-2-1.05-4.11-3.22-4.11S229.34,207.85,229.34,210.07Z"/><path class="cls-4" d="M238.88,215.07V205h1.42l3.24,5.11a28.75,28.75,0,0,1,1.82,3.29l0,0c-.12-1.35-.15-2.58-.15-4.15V205h1.23v10.11h-1.32l-3.21-5.13a31.27,31.27,0,0,1-1.89-3.38l-.05,0c.08,1.27.11,2.49.11,4.17v4.32Z"/><path class="cls-4" d="M22,230l-.7,2.12h-.9l2.29-6.74h1.05l2.3,6.74h-.93L24.43,230Zm2.21-.68-.66-1.94c-.15-.44-.25-.84-.35-1.23h0c-.1.4-.21.81-.34,1.22l-.66,2Z"/><path class="cls-4" d="M31.63,231.85a4.32,4.32,0,0,1-1.78.32,3.15,3.15,0,0,1-3.33-3.41A3.35,3.35,0,0,1,30,225.22a3.61,3.61,0,0,1,1.6.3l-.21.71a3.17,3.17,0,0,0-1.36-.28,2.51,2.51,0,0,0-2.63,2.78A2.45,2.45,0,0,0,30,231.44a3.48,3.48,0,0,0,1.42-.28Z"/><path class="cls-4" d="M33.85,230l-.7,2.12h-.9l2.29-6.74h1.05l2.3,6.74H37L36.24,230Zm2.21-.68-.66-1.94c-.15-.44-.25-.84-.35-1.23h0c-.1.4-.21.81-.34,1.22l-.66,2Z"/><path class="cls-4" d="M38.88,225.42a12.46,12.46,0,0,1,1.85-.14,3.86,3.86,0,0,1,2.73.84,3.1,3.1,0,0,1,.95,2.42,3.56,3.56,0,0,1-1,2.62,4.15,4.15,0,0,1-3,1,14,14,0,0,1-1.58-.08Zm.87,6a5.49,5.49,0,0,0,.88.05,2.59,2.59,0,0,0,2.87-2.86,2.4,2.4,0,0,0-2.73-2.6,4.94,4.94,0,0,0-1,.09Z"/><path class="cls-4" d="M49,228.91H46.41v2.43h2.92v.73H45.54v-6.74h3.64v.73H46.41v2.13H49Z"/><path class="cls-4" d="M56.14,229.11c0-.94-.11-2.07-.1-2.91h0c-.23.79-.51,1.63-.85,2.56L54,232h-.66l-1.09-3.21c-.32-.95-.59-1.82-.78-2.62h0c0,.84-.07,2-.13,3l-.18,2.89h-.83l.47-6.74h1.11L53,228.59c.28.83.51,1.57.68,2.27h0c.17-.68.41-1.42.71-2.27l1.2-3.26h1.11l.42,6.74h-.85Z"/><path class="cls-4" d="M60,232.07v-2.86l-2.13-3.88h1l1,1.86c.26.51.46.92.67,1.39h0c.19-.44.42-.88.68-1.39l1-1.86h1l-2.26,3.87v2.87Z"/><path class="cls-4" d="M70.74,231.85a4.32,4.32,0,0,1-1.78.32,3.15,3.15,0,0,1-3.33-3.41,3.35,3.35,0,0,1,3.52-3.54,3.61,3.61,0,0,1,1.6.3l-.21.71a3.17,3.17,0,0,0-1.36-.28,2.51,2.51,0,0,0-2.63,2.78,2.45,2.45,0,0,0,2.59,2.71,3.48,3.48,0,0,0,1.42-.28Z"/><path class="cls-4" d="M77.38,228.63c0,2.32-1.41,3.55-3.13,3.55s-3-1.38-3-3.42,1.33-3.54,3.13-3.54S77.38,226.63,77.38,228.63Zm-5.23.11c0,1.44.78,2.73,2.15,2.73s2.16-1.27,2.16-2.8c0-1.34-.7-2.74-2.15-2.74S72.15,227.26,72.15,228.74Z"/><path class="cls-4" d="M79.38,225.33v4c0,1.51.67,2.15,1.57,2.15s1.64-.66,1.64-2.15v-4h.88v3.93c0,2.07-1.09,2.92-2.55,2.92s-2.42-.79-2.42-2.88v-4Z"/><path class="cls-4" d="M85,225.42a9.06,9.06,0,0,1,1.67-.14,2.76,2.76,0,0,1,1.95.55,1.68,1.68,0,0,1,.53,1.28,1.77,1.77,0,0,1-1.27,1.72v0a1.68,1.68,0,0,1,1,1.36,10.73,10.73,0,0,0,.52,1.85h-.9a8.73,8.73,0,0,1-.45-1.61c-.2-.93-.56-1.28-1.35-1.31h-.82v2.92H85Zm.87,3.07h.89c.93,0,1.52-.51,1.52-1.28S87.63,226,86.71,226a3.58,3.58,0,0,0-.86.08Z"/><path class="cls-4" d="M90.24,231a3.08,3.08,0,0,0,1.56.44c.89,0,1.41-.47,1.41-1.15s-.36-1-1.27-1.34c-1.1-.39-1.78-1-1.78-1.91a1.94,1.94,0,0,1,2.18-1.83,3.06,3.06,0,0,1,1.49.33l-.24.71a2.68,2.68,0,0,0-1.28-.32c-.92,0-1.27.55-1.27,1,0,.63.41.94,1.34,1.3,1.14.44,1.72,1,1.72,2s-.77,1.94-2.36,1.94a3.48,3.48,0,0,1-1.72-.43Z"/><path class="cls-4" d="M98.78,228.91H96.16v2.43h2.92v.73H95.29v-6.74h3.64v.73H96.16v2.13h2.62Z"/><path class="cls-4" d="M99.57,233.3a14.39,14.39,0,0,0,.6-2.39l1-.1a12.19,12.19,0,0,1-1,2.43Z"/><path class="cls-4" d="M109.07,231.85a4.32,4.32,0,0,1-1.78.32,3.15,3.15,0,0,1-3.33-3.41,3.35,3.35,0,0,1,3.52-3.54,3.61,3.61,0,0,1,1.6.3l-.21.71a3.17,3.17,0,0,0-1.36-.28,2.51,2.51,0,0,0-2.63,2.78,2.45,2.45,0,0,0,2.59,2.71,3.48,3.48,0,0,0,1.42-.28Z"/><path class="cls-4" d="M110.16,225.41a10.08,10.08,0,0,1,1.67-.13,2.77,2.77,0,0,1,1.89.56,1.81,1.81,0,0,1,.59,1.41,2,2,0,0,1-.52,1.44,2.79,2.79,0,0,1-2.06.74,3,3,0,0,1-.7-.06v2.7h-.87Zm.87,3.25a2.92,2.92,0,0,0,.72.07c1,0,1.69-.51,1.69-1.44s-.63-1.32-1.59-1.32a3.65,3.65,0,0,0-.82.07Z"/><path class="cls-4" d="M116.35,225.33v2.82h3.26v-2.82h.88v6.74h-.88v-3.16h-3.26v3.16h-.87v-6.74Z"/><path class="cls-4" d="M124.12,225.42a8.43,8.43,0,0,1,1.59-.14,2.79,2.79,0,0,1,1.85.49,1.41,1.41,0,0,1,.56,1.19,1.6,1.6,0,0,1-1.14,1.48v0a1.74,1.74,0,0,1,1.39,1.69,1.82,1.82,0,0,1-.57,1.35,3.39,3.39,0,0,1-2.33.63,10.17,10.17,0,0,1-1.35-.08Zm.87,2.76h.79c.92,0,1.46-.48,1.46-1.13s-.6-1.1-1.48-1.1a3.73,3.73,0,0,0-.77.06Zm0,3.23a4.65,4.65,0,0,0,.73,0c.9,0,1.73-.33,1.73-1.31s-.79-1.3-1.74-1.3H125Z"/><path class="cls-4" d="M130.41,225.33v4c0,1.51.67,2.15,1.57,2.15s1.64-.66,1.64-2.15v-4h.88v3.93c0,2.07-1.09,2.92-2.55,2.92s-2.42-.79-2.42-2.88v-4Z"/><path class="cls-4" d="M135.89,231a3.08,3.08,0,0,0,1.56.44c.89,0,1.41-.47,1.41-1.15s-.36-1-1.27-1.34c-1.1-.39-1.78-1-1.78-1.91a1.94,1.94,0,0,1,2.18-1.83,3.06,3.06,0,0,1,1.49.33l-.24.71a2.68,2.68,0,0,0-1.28-.32c-.92,0-1.27.55-1.27,1,0,.63.41.94,1.34,1.3,1.14.44,1.72,1,1.72,2s-.77,1.94-2.36,1.94a3.48,3.48,0,0,1-1.72-.43Z"/><path class="cls-4" d="M141.81,225.33v6.74h-.87v-6.74Z"/><path class="cls-4" d="M143.33,232.07v-6.74h.95l2.16,3.41a19.08,19.08,0,0,1,1.21,2.19h0c-.08-.9-.1-1.72-.1-2.77v-2.82h.82v6.74h-.88l-2.14-3.42a21.39,21.39,0,0,1-1.26-2.25h0c0,.85.07,1.66.07,2.78v2.88Z"/><path class="cls-4" d="M153.4,228.91h-2.62v2.43h2.92v.73h-3.79v-6.74h3.64v.73h-2.77v2.13h2.62Z"/><path class="cls-4" d="M154.71,231a3.08,3.08,0,0,0,1.56.44c.89,0,1.41-.47,1.41-1.15s-.36-1-1.27-1.34c-1.1-.39-1.78-1-1.78-1.91a1.94,1.94,0,0,1,2.18-1.83,3.06,3.06,0,0,1,1.49.33l-.24.71a2.68,2.68,0,0,0-1.28-.32c-.92,0-1.27.55-1.27,1,0,.63.41.94,1.34,1.3,1.14.44,1.72,1,1.72,2s-.77,1.94-2.36,1.94a3.48,3.48,0,0,1-1.72-.43Z"/><path class="cls-4" d="M159.64,231a3.08,3.08,0,0,0,1.56.44c.89,0,1.41-.47,1.41-1.15s-.36-1-1.27-1.34c-1.1-.39-1.78-1-1.78-1.91a1.94,1.94,0,0,1,2.18-1.83,3.06,3.06,0,0,1,1.49.33l-.24.71a2.68,2.68,0,0,0-1.28-.32c-.92,0-1.27.55-1.27,1,0,.63.41.94,1.34,1.3,1.14.44,1.72,1,1.72,2s-.77,1.94-2.36,1.94a3.48,3.48,0,0,1-1.72-.43Z"/><rect class="cls-2" x="159" y="294" width="127" height="44"/><line class="cls-3" x1="284.5" y1="338" x2="284.5" y2="445"/><path class="cls-4" d="M167.83,302.58a14.58,14.58,0,0,1,2.51-.2,4.14,4.14,0,0,1,2.83.84,2.72,2.72,0,0,1,.89,2.12,3,3,0,0,1-.78,2.16,4.22,4.22,0,0,1-3.09,1.11,4.78,4.78,0,0,1-1.05-.09v4.05h-1.31Zm1.31,4.87a4.07,4.07,0,0,0,1.08.11c1.57,0,2.53-.77,2.53-2.16s-.94-2-2.38-2a5.52,5.52,0,0,0-1.23.1Z"/><path class="cls-4" d="M175.81,302.59a14.1,14.1,0,0,1,2.51-.21,4.13,4.13,0,0,1,2.92.83,2.52,2.52,0,0,1,.8,1.92,2.66,2.66,0,0,1-1.91,2.58v0a2.52,2.52,0,0,1,1.49,2,16.2,16.2,0,0,0,.78,2.78h-1.35a13.18,13.18,0,0,1-.68-2.42c-.3-1.39-.84-1.92-2-2h-1.23v4.38h-1.31Zm1.31,4.61h1.33c1.4,0,2.28-.77,2.28-1.92,0-1.31-.94-1.88-2.32-1.89a5.37,5.37,0,0,0-1.29.12Z"/><path class="cls-4" d="M192.57,307.41c0,3.48-2.12,5.32-4.7,5.32s-4.54-2.07-4.54-5.13c0-3.21,2-5.31,4.69-5.31S192.57,304.41,192.57,307.41Zm-7.85.16c0,2.16,1.17,4.1,3.23,4.1s3.24-1.91,3.24-4.2c0-2-1.05-4.11-3.23-4.11S184.72,305.35,184.72,307.57Z"/><path class="cls-4" d="M202,312.12a9.48,9.48,0,0,1-3.11.55,4.74,4.74,0,0,1-5.19-5.1c0-3,2.09-5.22,5.48-5.22a6.25,6.25,0,0,1,2.52.47l-.32,1.06a5.22,5.22,0,0,0-2.23-.43,3.78,3.78,0,0,0-4.07,4.06c0,2.57,1.55,4.08,3.9,4.08a4.24,4.24,0,0,0,1.74-.27v-3h-2.05v-1.05H202Z"/><path class="cls-4" d="M204,302.59a14.1,14.1,0,0,1,2.51-.21,4.13,4.13,0,0,1,2.92.83,2.52,2.52,0,0,1,.8,1.92,2.66,2.66,0,0,1-1.91,2.58v0a2.52,2.52,0,0,1,1.49,2,16.2,16.2,0,0,0,.78,2.78h-1.35a13.18,13.18,0,0,1-.68-2.42c-.3-1.39-.84-1.92-2-2h-1.23v4.38H204Zm1.31,4.61h1.33c1.4,0,2.28-.77,2.28-1.92,0-1.31-.94-1.88-2.32-1.89a5.37,5.37,0,0,0-1.29.12Z"/><path class="cls-4" d="M213.73,309.39l-1,3.18h-1.35l3.44-10.11h1.57l3.45,10.11H218.4l-1.08-3.18Zm3.32-1-1-2.91c-.23-.66-.38-1.26-.53-1.85h0c-.15.6-.31,1.22-.51,1.83l-1,2.93Z"/><path class="cls-4" d="M229.74,308.13c-.08-1.41-.17-3.11-.15-4.37h-.05c-.34,1.19-.76,2.45-1.27,3.84l-1.79,4.91h-1l-1.63-4.82c-.48-1.42-.89-2.73-1.17-3.93h0c0,1.26-.11,3-.2,4.47l-.27,4.34H221l.7-10.11h1.67l1.72,4.89c.42,1.24.77,2.35,1,3.4h.05c.25-1,.61-2.13,1.06-3.4l1.8-4.89h1.67l.63,10.11H230Z"/><path class="cls-4" d="M241.8,308.13c-.08-1.41-.17-3.11-.15-4.37h-.05c-.34,1.19-.76,2.45-1.27,3.84l-1.79,4.91h-1l-1.63-4.82c-.48-1.42-.89-2.73-1.17-3.93h0c0,1.26-.11,3-.2,4.47l-.27,4.34H233l.7-10.11h1.67l1.72,4.89c.42,1.24.77,2.35,1,3.4h0c.25-1,.61-2.13,1.06-3.4l1.8-4.89h1.67l.63,10.11h-1.28Z"/><path class="cls-4" d="M246.64,302.46v10.11h-1.3V302.46Z"/><path class="cls-4" d="M248.92,312.57V302.46h1.43l3.24,5.11a28.57,28.57,0,0,1,1.81,3.29l0,0c-.12-1.35-.15-2.58-.15-4.15v-4.23h1.23v10.11h-1.32L252,307.44a33.07,33.07,0,0,1-1.89-3.38l0,0c.07,1.27.1,2.49.1,4.17v4.32Z"/><path class="cls-4" d="M266.49,312.12a9.48,9.48,0,0,1-3.11.55,4.74,4.74,0,0,1-5.19-5.1c0-3,2.09-5.22,5.48-5.22a6.25,6.25,0,0,1,2.52.47l-.32,1.06a5.22,5.22,0,0,0-2.23-.43,3.78,3.78,0,0,0-4.07,4.06c0,2.57,1.55,4.08,3.9,4.08a4.24,4.24,0,0,0,1.74-.27v-3h-2v-1.05h3.33Z"/><path class="cls-4" d="M168.54,327.45l-.7,2.12h-.9l2.29-6.74h1.05l2.3,6.74h-.93l-.72-2.12Zm2.21-.68-.66-1.94c-.15-.44-.25-.84-.35-1.23h0c-.1.4-.21.81-.34,1.22l-.66,1.95Z"/><path class="cls-4" d="M178.13,329.35a4.32,4.32,0,0,1-1.78.32,3.15,3.15,0,0,1-3.33-3.41,3.35,3.35,0,0,1,3.52-3.54,3.61,3.61,0,0,1,1.6.3l-.21.71a3.17,3.17,0,0,0-1.36-.28,2.51,2.51,0,0,0-2.63,2.78,2.45,2.45,0,0,0,2.59,2.71,3.48,3.48,0,0,0,1.42-.28Z"/><path class="cls-4" d="M180.35,327.45l-.7,2.12h-.9l2.29-6.74h1.05l2.3,6.74h-.93l-.72-2.12Zm2.21-.68-.66-1.94c-.15-.44-.25-.84-.35-1.23h0c-.1.4-.21.81-.34,1.22l-.66,1.95Z"/><path class="cls-4" d="M185.38,322.92a12.46,12.46,0,0,1,1.85-.14,3.86,3.86,0,0,1,2.73.84,3.1,3.1,0,0,1,.95,2.42,3.56,3.56,0,0,1-1,2.62,4.15,4.15,0,0,1-3,1,14,14,0,0,1-1.58-.08Zm.87,6a5.49,5.49,0,0,0,.88.05,2.59,2.59,0,0,0,2.87-2.86,2.4,2.4,0,0,0-2.73-2.6,4.94,4.94,0,0,0-1,.09Z"/><path class="cls-4" d="M195.53,326.41h-2.62v2.43h2.92v.73H192v-6.74h3.64v.73h-2.77v2.13h2.62Z"/><path class="cls-4" d="M202.64,326.61c0-.94-.11-2.07-.1-2.91h0c-.23.79-.51,1.63-.85,2.56l-1.19,3.27h-.66l-1.09-3.21c-.32-.95-.59-1.82-.78-2.62h0c0,.84-.07,2-.13,3l-.18,2.89h-.83l.47-6.74h1.11l1.15,3.26c.28.83.51,1.57.68,2.27h0c.17-.68.41-1.42.71-2.27l1.2-3.26h1.11l.42,6.74h-.85Z"/><path class="cls-4" d="M206.5,329.57v-2.86l-2.13-3.88h1l.95,1.86c.26.51.46.92.67,1.39h0c.19-.44.42-.88.68-1.39l1-1.86h1l-2.26,3.87v2.87Z"/><path class="cls-4" d="M217.24,329.35a4.32,4.32,0,0,1-1.78.32,3.15,3.15,0,0,1-3.33-3.41,3.35,3.35,0,0,1,3.52-3.54,3.61,3.61,0,0,1,1.6.3l-.21.71a3.17,3.17,0,0,0-1.36-.28,2.51,2.51,0,0,0-2.63,2.78,2.45,2.45,0,0,0,2.59,2.71,3.48,3.48,0,0,0,1.42-.28Z"/><path class="cls-4" d="M223.88,326.13c0,2.32-1.41,3.55-3.13,3.55s-3-1.38-3-3.42,1.33-3.54,3.13-3.54S223.88,324.13,223.88,326.13Zm-5.23.11c0,1.44.78,2.73,2.15,2.73s2.16-1.27,2.16-2.8c0-1.34-.7-2.74-2.15-2.74S218.65,324.76,218.65,326.24Z"/><path class="cls-4" d="M225.88,322.83v4c0,1.51.67,2.15,1.57,2.15s1.64-.66,1.64-2.15v-4H230v3.93c0,2.07-1.09,2.92-2.55,2.92s-2.42-.79-2.42-2.88v-4Z"/><path class="cls-4" d="M231.48,322.92a9.06,9.06,0,0,1,1.67-.14,2.76,2.76,0,0,1,1.95.55,1.68,1.68,0,0,1,.53,1.28,1.77,1.77,0,0,1-1.27,1.72v0a1.68,1.68,0,0,1,1,1.36,10.73,10.73,0,0,0,.52,1.85H235a8.73,8.73,0,0,1-.45-1.61c-.2-.93-.56-1.28-1.35-1.31h-.82v2.92h-.87Zm.87,3.07h.89c.93,0,1.52-.51,1.52-1.28s-.63-1.25-1.55-1.26a3.58,3.58,0,0,0-.86.08Z"/><path class="cls-4" d="M236.74,328.51a3.08,3.08,0,0,0,1.56.44c.89,0,1.41-.47,1.41-1.15s-.36-1-1.27-1.34c-1.1-.39-1.78-1-1.78-1.91a1.94,1.94,0,0,1,2.18-1.83,3.06,3.06,0,0,1,1.49.33l-.24.71a2.68,2.68,0,0,0-1.28-.32c-.92,0-1.27.55-1.27,1,0,.63.41.94,1.34,1.3,1.14.44,1.72,1,1.72,2s-.77,1.94-2.36,1.94a3.48,3.48,0,0,1-1.72-.43Z"/><path class="cls-4" d="M245.28,326.41h-2.62v2.43h2.92v.73h-3.79v-6.74h3.64v.73h-2.77v2.13h2.62Z"/><path class="cls-4" d="M246.07,330.8a14.39,14.39,0,0,0,.6-2.39l1-.1a12.19,12.19,0,0,1-1,2.43Z"/><path class="cls-4" d="M250.86,322.83h.87v3.25h0c.18-.26.36-.5.53-.72l2.06-2.53h1.08L253,325.69l2.63,3.88h-1l-2.22-3.31-.64.74v2.57h-.87Z"/><path class="cls-4" d="M259.77,326.41h-2.62v2.43h2.92v.73h-3.79v-6.74h3.64v.73h-2.77v2.13h2.62Z"/><path class="cls-4" d="M262.29,327.45l-.7,2.12h-.9l2.29-6.74h1l2.3,6.74h-.93l-.72-2.12Zm2.21-.68-.66-1.94c-.15-.44-.25-.84-.35-1.23h0c-.1.4-.21.81-.34,1.22l-.66,1.95Z"/><rect class="cls-2" x="452" y="418" width="158" height="60"/><line class="cls-3" x1="453.5" y1="469" x2="453.5" y2="547.5"/><path class="cls-4" d="M470.85,430.63c-.07-1.41-.16-3.11-.14-4.37h0c-.35,1.19-.77,2.45-1.28,3.84L467.6,435h-1L465,430.19c-.48-1.42-.88-2.73-1.17-3.93h0c0,1.26-.11,3-.2,4.47l-.27,4.34h-1.25l.71-10.11h1.66l1.73,4.89c.42,1.24.76,2.35,1,3.4h0c.26-1,.62-2.13,1.07-3.4l1.8-4.89h1.66l.63,10.11h-1.27Z"/><path class="cls-4" d="M475.7,425v6c0,2.27,1,3.23,2.35,3.23s2.46-1,2.46-3.23v-6h1.32v5.89c0,3.11-1.63,4.38-3.82,4.38s-3.63-1.18-3.63-4.32v-6Z"/><path class="cls-4" d="M484.1,425h1.3v9h4.32v1.1H484.1Z"/><path class="cls-4" d="M491.78,426.07H488.7V425h7.49v1.11H493.1v9h-1.32Z"/><path class="cls-4" d="M498.62,425v10.11h-1.31V425Z"/><path class="cls-4" d="M509.42,430.63c-.08-1.41-.17-3.11-.15-4.37h0c-.34,1.19-.76,2.45-1.27,3.84L506.16,435h-1l-1.63-4.82c-.48-1.42-.89-2.73-1.17-3.93h0c0,1.26-.11,3-.2,4.47l-.27,4.34h-1.24l.7-10.11H503l1.72,4.89c.42,1.24.77,2.35,1,3.4h.05c.25-1,.61-2.13,1.06-3.4l1.8-4.89h1.67l.63,10.11h-1.28Z"/><path class="cls-4" d="M518.19,430.33h-3.93V434h4.38v1.1H513V425h5.46v1.09h-4.16v3.2h3.93Z"/><path class="cls-4" d="M520.34,425.09a18.62,18.62,0,0,1,2.77-.21,5.83,5.83,0,0,1,4.1,1.26,4.67,4.67,0,0,1,1.42,3.63,5.36,5.36,0,0,1-1.45,3.93,6.22,6.22,0,0,1-4.47,1.46,22.32,22.32,0,0,1-2.37-.12Zm1.3,8.94a8.17,8.17,0,0,0,1.32.08c2.79,0,4.31-1.56,4.31-4.29,0-2.39-1.34-3.9-4.1-3.9a8,8,0,0,0-1.53.13Z"/><path class="cls-4" d="M531.63,425v10.11h-1.3V425Z"/><path class="cls-4" d="M539.15,430.33h-3.93V434h4.38v1.1h-5.69V425h5.46v1.09h-4.15v3.2h3.93Z"/><path class="cls-4" d="M541.29,425.09a18.76,18.76,0,0,1,2.78-.21,5.8,5.8,0,0,1,4.09,1.26,4.67,4.67,0,0,1,1.43,3.63,5.33,5.33,0,0,1-1.46,3.93,6.19,6.19,0,0,1-4.47,1.46,22.32,22.32,0,0,1-2.37-.12ZM542.6,434a8.17,8.17,0,0,0,1.32.08c2.79,0,4.3-1.56,4.3-4.29,0-2.39-1.33-3.9-4.09-3.9a7.78,7.78,0,0,0-1.53.13Z"/><path class="cls-4" d="M556.52,430.33h-3.93V434H557v1.1h-5.69V425h5.46v1.09h-4.15v3.2h3.93Z"/><path class="cls-4" d="M558.48,433.48a4.64,4.64,0,0,0,2.34.66c1.34,0,2.12-.71,2.12-1.73s-.54-1.48-1.91-2c-1.65-.58-2.67-1.44-2.67-2.86,0-1.58,1.31-2.75,3.27-2.75a4.54,4.54,0,0,1,2.24.5l-.36,1.06a4,4,0,0,0-1.92-.48c-1.38,0-1.91.83-1.91,1.52,0,.94.62,1.41,2,1.95,1.71.66,2.58,1.48,2.58,3s-1.15,2.91-3.54,2.91a5.24,5.24,0,0,1-2.58-.65Z"/><path class="cls-4" d="M567.36,425v10.11h-1.3V425Z"/><path class="cls-4" d="M577.34,434.62a9.48,9.48,0,0,1-3.11.55,4.74,4.74,0,0,1-5.19-5.1c0-3,2.09-5.22,5.48-5.22a6.25,6.25,0,0,1,2.52.47l-.32,1.06a5.22,5.22,0,0,0-2.23-.43,3.78,3.78,0,0,0-4.07,4.06c0,2.57,1.55,4.08,3.9,4.08a4.24,4.24,0,0,0,1.74-.27v-3h-2v-1.05h3.33Z"/><path class="cls-4" d="M579.33,435.07V425h1.43l3.24,5.11a28.57,28.57,0,0,1,1.81,3.29l0,0c-.12-1.35-.15-2.58-.15-4.15V425h1.23v10.11H585.6l-3.21-5.13a33.07,33.07,0,0,1-1.89-3.38l0,0c.07,1.27.1,2.49.1,4.17v4.32Z"/><path class="cls-4" d="M463,450l-.7,2.12h-.89l2.28-6.74h1l2.3,6.74h-.93l-.72-2.12Zm2.21-.68-.66-1.94c-.15-.44-.25-.84-.35-1.23h0c-.1.4-.21.81-.34,1.22l-.66,1.95Z"/><path class="cls-4" d="M468.07,445.41a10.08,10.08,0,0,1,1.67-.13,2.77,2.77,0,0,1,1.89.56,1.81,1.81,0,0,1,.59,1.41,2,2,0,0,1-.52,1.44,2.79,2.79,0,0,1-2.06.74,3,3,0,0,1-.7-.06v2.7h-.87Zm.87,3.25a2.92,2.92,0,0,0,.72.07c1,0,1.69-.51,1.69-1.44s-.63-1.32-1.59-1.32a3.65,3.65,0,0,0-.82.07Z"/><path class="cls-4" d="M475.51,445.42a12.46,12.46,0,0,1,1.85-.14,3.86,3.86,0,0,1,2.73.84,3.1,3.1,0,0,1,1,2.42,3.56,3.56,0,0,1-1,2.62,4.15,4.15,0,0,1-3,1,14,14,0,0,1-1.58-.08Zm.87,6a5.49,5.49,0,0,0,.88.05,2.59,2.59,0,0,0,2.87-2.86,2.4,2.4,0,0,0-2.73-2.6,4.94,4.94,0,0,0-1,.09Z"/><path class="cls-4" d="M485.66,448.91H483v2.43H486v.73h-3.79v-6.74h3.64v.73H483v2.13h2.62Z"/><path class="cls-4" d="M492.22,451.77a6.28,6.28,0,0,1-2.07.37,3.17,3.17,0,0,1-3.46-3.4,3.38,3.38,0,0,1,3.65-3.48,4.17,4.17,0,0,1,1.68.31l-.21.71a3.49,3.49,0,0,0-1.49-.29,2.52,2.52,0,0,0-2.71,2.71,2.47,2.47,0,0,0,2.6,2.72,2.84,2.84,0,0,0,1.16-.18v-2H490v-.7h2.22Z"/><path class="cls-4" d="M493.55,445.42a9.06,9.06,0,0,1,1.67-.14,2.76,2.76,0,0,1,1.95.55,1.68,1.68,0,0,1,.53,1.28,1.77,1.77,0,0,1-1.27,1.72v0a1.68,1.68,0,0,1,1,1.36,10.73,10.73,0,0,0,.52,1.85H497a8.73,8.73,0,0,1-.45-1.61c-.2-.93-.56-1.28-1.35-1.31h-.82v2.92h-.87Zm.87,3.07h.89c.93,0,1.52-.51,1.52-1.28s-.63-1.25-1.55-1.26a3.58,3.58,0,0,0-.86.08Z"/><path class="cls-4" d="M502.42,448.91H499.8v2.43h2.92v.73h-3.79v-6.74h3.64v.73H499.8v2.13h2.62Z"/><path class="cls-4" d="M507.34,448.91h-2.62v2.43h2.92v.73h-3.79v-6.74h3.64v.73h-2.77v2.13h2.62Z"/><path class="cls-4" d="M508.13,453.3a14.39,14.39,0,0,0,.6-2.39l1-.1a12.19,12.19,0,0,1-.95,2.43Z"/><path class="cls-4" d="M512.92,445.33h.87v3.25h0c.18-.26.36-.5.53-.72l2.06-2.53h1.08l-2.44,2.86,2.63,3.88h-1l-2.22-3.31-.64.74v2.57h-.87Z"/><path class="cls-4" d="M521.83,448.91h-2.62v2.43h2.92v.73h-3.79v-6.74H522v.73h-2.77v2.13h2.62Z"/><path class="cls-4" d="M524.35,450l-.7,2.12h-.9l2.29-6.74h1.05l2.3,6.74h-.93l-.72-2.12Zm2.21-.68-.66-1.94c-.15-.44-.25-.84-.35-1.23h0c-.1.4-.21.81-.34,1.22l-.66,1.95Z"/><path class="cls-4" d="M462,462.33h3.62v.73h-2.76v2.24h2.55V466h-2.55v3.05H462Z"/><path class="cls-4" d="M466.82,462.42a9.06,9.06,0,0,1,1.67-.14,2.76,2.76,0,0,1,1.95.55,1.68,1.68,0,0,1,.53,1.28,1.77,1.77,0,0,1-1.27,1.72v0a1.68,1.68,0,0,1,1,1.36,10.73,10.73,0,0,0,.52,1.85h-.9a8.73,8.73,0,0,1-.45-1.61c-.2-.93-.56-1.28-1.35-1.31h-.82v2.92h-.87Zm.87,3.07h.89c.93,0,1.52-.51,1.52-1.28s-.63-1.25-1.55-1.26a3.58,3.58,0,0,0-.86.08Z"/><path class="cls-4" d="M478,465.63c0,2.32-1.41,3.55-3.13,3.55s-3-1.38-3-3.42,1.33-3.54,3.13-3.54S478,463.63,478,465.63Zm-5.23.11c0,1.44.78,2.73,2.15,2.73s2.16-1.27,2.16-2.8c0-1.34-.7-2.74-2.15-2.74S472.76,464.26,472.76,465.74Z"/><path class="cls-4" d="M479.12,469.07v-6.74h.95l2.16,3.41a19.08,19.08,0,0,1,1.21,2.19h0c-.08-.9-.1-1.72-.1-2.77v-2.82h.82v6.74h-.88l-2.14-3.42a21.39,21.39,0,0,1-1.26-2.25h0c.05.85.07,1.66.07,2.78v2.88Z"/><path class="cls-4" d="M487,463.07h-2.05v-.74h5v.74h-2.06v6H487Z"/><path class="cls-4" d="M494.16,465.91h-2.62v2.43h2.92v.73h-3.79v-6.74h3.64v.73h-2.77v2.13h2.62Z"/><path class="cls-4" d="M495.59,469.07v-6.74h1l2.16,3.41a19.08,19.08,0,0,1,1.21,2.19h0c-.08-.9-.1-1.72-.1-2.77v-2.82h.82v6.74h-.88l-2.14-3.42a21.39,21.39,0,0,1-1.26-2.25h0c.05.85.07,1.66.07,2.78v2.88Z"/><path class="cls-4" d="M502.17,462.42a12.46,12.46,0,0,1,1.85-.14,3.86,3.86,0,0,1,2.73.84,3.1,3.1,0,0,1,.95,2.42,3.56,3.56,0,0,1-1,2.62,4.15,4.15,0,0,1-3,1,14,14,0,0,1-1.58-.08Zm.87,6a5.49,5.49,0,0,0,.88.05,2.59,2.59,0,0,0,2.87-2.86,2.4,2.4,0,0,0-2.73-2.6,4.94,4.94,0,0,0-1,.09Z"/><path class="cls-4" d="M514.44,465.91h-2.62v2.43h2.92v.73H511v-6.74h3.64v.73h-2.77v2.13h2.62Z"/><path class="cls-4" d="M515.87,462.33h.87v6h2.88v.73h-3.75Z"/><path class="cls-4" d="M524.08,465.91h-2.62v2.43h2.92v.73h-3.79v-6.74h3.64v.73h-2.77v2.13h2.62Z"/><path class="cls-4" d="M530.22,468.85a4.32,4.32,0,0,1-1.78.32,3.15,3.15,0,0,1-3.33-3.41,3.35,3.35,0,0,1,3.52-3.54,3.61,3.61,0,0,1,1.6.3l-.21.71a3.17,3.17,0,0,0-1.36-.28,2.51,2.51,0,0,0-2.63,2.78,2.45,2.45,0,0,0,2.59,2.71,3.48,3.48,0,0,0,1.42-.28Z"/><path class="cls-4" d="M532.87,463.07h-2v-.74h5v.74h-2.06v6h-.88Z"/><path class="cls-4" d="M537.43,462.33v6.74h-.87v-6.74Z"/><path class="cls-4" d="M540.43,469.07l-2.2-6.74h.94l1.05,3.32c.29.91.54,1.73.72,2.52h0c.19-.78.47-1.63.77-2.51l1.14-3.33h.93l-2.41,6.74Z"/><path class="cls-4" d="M548,465.91H545.4v2.43h2.92v.73h-3.79v-6.74h3.64v.73H545.4v2.13H548Z"/><rect class="cls-2" x="382" y="242" width="216" height="44"/><line class="cls-3" x1="596.5" y1="286" x2="596.5" y2="393"/><path class="cls-4" d="M398.4,259.74a6.48,6.48,0,0,1-2.67.48,4.73,4.73,0,0,1-5-5.12,5,5,0,0,1,5.28-5.31,5.4,5.4,0,0,1,2.4.45l-.31,1.07a4.77,4.77,0,0,0-2-.42c-2.37,0-3.94,1.51-3.94,4.17,0,2.47,1.42,4.06,3.88,4.06a5.18,5.18,0,0,0,2.13-.42Z"/><path class="cls-4" d="M400,250.09a13.9,13.9,0,0,1,2.5-.21,4.13,4.13,0,0,1,2.92.83,2.52,2.52,0,0,1,.8,1.92,2.66,2.66,0,0,1-1.91,2.58v0a2.52,2.52,0,0,1,1.49,2,16.2,16.2,0,0,0,.78,2.78h-1.35a13.18,13.18,0,0,1-.68-2.42c-.3-1.39-.84-1.92-2-2h-1.23v4.38H400Zm1.3,4.61h1.33c1.4,0,2.28-.77,2.28-1.92,0-1.31-.94-1.88-2.32-1.89a5.37,5.37,0,0,0-1.29.12Z"/><path class="cls-4" d="M413.34,255.33h-3.93V259h4.38v1.1H408.1V250h5.46v1.09h-4.15v3.2h3.93Z"/><path class="cls-4" d="M417.12,256.89l-1.05,3.18h-1.35L418.15,250h1.58l3.45,10.11h-1.4l-1.08-3.18Zm3.31-1-1-2.91c-.22-.66-.37-1.26-.52-1.85h0c-.15.6-.32,1.22-.51,1.83l-1,2.93Z"/><path class="cls-4" d="M425.43,251.07h-3.08V250h7.49v1.11h-3.09v9h-1.32Z"/><path class="cls-4" d="M432.27,250v10.11H431V250Z"/><path class="cls-4" d="M436.77,260.07,433.47,250h1.41l1.57,5c.44,1.36.81,2.59,1.08,3.78h0c.29-1.17.71-2.45,1.16-3.77l1.71-5h1.39l-3.61,10.11Z"/><path class="cls-4" d="M448.15,255.33h-3.93V259h4.38v1.1h-5.68V250h5.46v1.09h-4.16v3.2h3.93Z"/><path class="cls-4" d="M460.54,259.74a6.48,6.48,0,0,1-2.67.48,4.72,4.72,0,0,1-5-5.12,5,5,0,0,1,5.28-5.31,5.44,5.44,0,0,1,2.4.45l-.32,1.07a4.74,4.74,0,0,0-2-.42c-2.37,0-3.94,1.51-3.94,4.17,0,2.47,1.42,4.06,3.88,4.06a5.11,5.11,0,0,0,2.13-.42Z"/><path class="cls-4" d="M470.5,254.91c0,3.48-2.11,5.32-4.69,5.32s-4.55-2.07-4.55-5.13,2-5.31,4.7-5.31S470.5,251.91,470.5,254.91Zm-7.84.16c0,2.16,1.17,4.1,3.22,4.1s3.24-1.91,3.24-4.2c0-2-1.05-4.11-3.22-4.11S462.66,252.85,462.66,255.07Z"/><path class="cls-4" d="M472.2,250.09a18.62,18.62,0,0,1,2.77-.21,5.83,5.83,0,0,1,4.1,1.26,4.67,4.67,0,0,1,1.42,3.63A5.36,5.36,0,0,1,479,258.7a6.22,6.22,0,0,1-4.47,1.46,22.32,22.32,0,0,1-2.37-.12Zm1.3,8.94a8.17,8.17,0,0,0,1.32.08c2.79,0,4.31-1.56,4.31-4.29,0-2.39-1.34-3.9-4.1-3.9a8,8,0,0,0-1.53.13Z"/><path class="cls-4" d="M483.49,250v10.11h-1.3V250Z"/><path class="cls-4" d="M485.77,260.07V250h1.43l3.24,5.11a28.57,28.57,0,0,1,1.81,3.29l0,0c-.12-1.35-.15-2.58-.15-4.15V250h1.23v10.11H492l-3.21-5.13a33.07,33.07,0,0,1-1.89-3.38l0,0c.07,1.27.1,2.49.1,4.17v4.32Z"/><path class="cls-4" d="M503.34,259.62a9.48,9.48,0,0,1-3.11.55,4.74,4.74,0,0,1-5.19-5.1c0-3,2.09-5.22,5.48-5.22a6.25,6.25,0,0,1,2.52.47l-.32,1.06a5.22,5.22,0,0,0-2.23-.43,3.78,3.78,0,0,0-4.07,4.06c0,2.57,1.55,4.08,3.9,4.08a4.24,4.24,0,0,0,1.74-.27v-3H500v-1.05h3.33Z"/><path class="cls-4" d="M390.83,276a3.08,3.08,0,0,0,1.56.44c.89,0,1.41-.47,1.41-1.15s-.36-1-1.27-1.34c-1.1-.39-1.78-1-1.78-1.91a1.94,1.94,0,0,1,2.18-1.83,3.06,3.06,0,0,1,1.49.33l-.24.71a2.68,2.68,0,0,0-1.28-.32c-.92,0-1.27.55-1.27,1,0,.63.41.94,1.34,1.3,1.14.44,1.72,1,1.72,2s-.77,1.94-2.36,1.94a3.41,3.41,0,0,1-1.71-.43Z"/><path class="cls-4" d="M396.75,270.33v2.82H400v-2.82h.88v6.74H400v-3.16h-3.26v3.16h-.87v-6.74Z"/><path class="cls-4" d="M408.16,273.63c0,2.32-1.41,3.55-3.13,3.55s-3-1.38-3-3.42,1.33-3.54,3.13-3.54S408.16,271.63,408.16,273.63Zm-5.23.11c0,1.44.78,2.73,2.15,2.73s2.16-1.27,2.16-2.8c0-1.34-.7-2.74-2.15-2.74S402.93,272.26,402.93,273.74Z"/><path class="cls-4" d="M409.29,270.42a9.06,9.06,0,0,1,1.67-.14,2.76,2.76,0,0,1,2,.55,1.68,1.68,0,0,1,.53,1.28,1.77,1.77,0,0,1-1.27,1.72v0a1.68,1.68,0,0,1,1,1.36,10.73,10.73,0,0,0,.52,1.85h-.9a8.73,8.73,0,0,1-.45-1.61c-.2-.93-.56-1.28-1.35-1.31h-.82v2.92h-.87Zm.87,3.07h.89c.93,0,1.52-.51,1.52-1.28S411.94,271,411,271a3.58,3.58,0,0,0-.86.08Z"/><path class="cls-4" d="M416,271.07H414v-.74h5v.74h-2.06v6H416Z"/><path class="cls-4" d="M426.56,276.85a4.32,4.32,0,0,1-1.78.32,3.15,3.15,0,0,1-3.33-3.41,3.35,3.35,0,0,1,3.52-3.54,3.61,3.61,0,0,1,1.6.3l-.21.71A3.17,3.17,0,0,0,425,271a2.51,2.51,0,0,0-2.63,2.78,2.45,2.45,0,0,0,2.59,2.71,3.48,3.48,0,0,0,1.42-.28Z"/><path class="cls-4" d="M433.2,273.63c0,2.32-1.41,3.55-3.13,3.55s-3-1.38-3-3.42,1.33-3.54,3.13-3.54S433.2,271.63,433.2,273.63Zm-5.23.11c0,1.44.78,2.73,2.15,2.73s2.16-1.27,2.16-2.8c0-1.34-.7-2.74-2.15-2.74S428,272.26,428,273.74Z"/><path class="cls-4" d="M435.2,270.33v4c0,1.51.67,2.15,1.57,2.15s1.64-.66,1.64-2.15v-4h.88v3.93c0,2.07-1.09,2.92-2.55,2.92s-2.42-.79-2.42-2.88v-4Z"/><path class="cls-4" d="M440.8,270.42a9.06,9.06,0,0,1,1.67-.14,2.76,2.76,0,0,1,1.95.55,1.68,1.68,0,0,1,.53,1.28,1.77,1.77,0,0,1-1.27,1.72v0a1.68,1.68,0,0,1,1,1.36,10.73,10.73,0,0,0,.52,1.85h-.9a8.73,8.73,0,0,1-.45-1.61c-.2-.93-.56-1.28-1.35-1.31h-.82v2.92h-.87Zm.87,3.07h.89c.93,0,1.52-.51,1.52-1.28s-.63-1.25-1.55-1.26a3.58,3.58,0,0,0-.86.08Z"/><path class="cls-4" d="M446.06,276a3.08,3.08,0,0,0,1.56.44c.89,0,1.41-.47,1.41-1.15s-.36-1-1.27-1.34c-1.1-.39-1.78-1-1.78-1.91a1.94,1.94,0,0,1,2.18-1.83,3.06,3.06,0,0,1,1.49.33l-.24.71a2.68,2.68,0,0,0-1.28-.32c-.92,0-1.27.55-1.27,1,0,.63.41.94,1.34,1.3,1.14.44,1.72,1,1.72,2s-.77,1.94-2.36,1.94a3.48,3.48,0,0,1-1.72-.43Z"/><path class="cls-4" d="M454.6,273.91H452v2.43h2.92v.73h-3.79v-6.74h3.64v.73H452v2.13h2.62Z"/><path class="cls-4" d="M455.39,278.3a14.39,14.39,0,0,0,.6-2.39l1-.1a12.19,12.19,0,0,1-1,2.43Z"/><path class="cls-4" d="M461.05,270.33v4c0,1.51.67,2.15,1.57,2.15s1.64-.66,1.64-2.15v-4h.88v3.93c0,2.07-1.09,2.92-2.55,2.92s-2.42-.79-2.42-2.88v-4Z"/><path class="cls-4" d="M466.65,277.07v-6.74h1l2.16,3.41a19.08,19.08,0,0,1,1.21,2.19h0c-.08-.9-.1-1.72-.1-2.77v-2.82h.82v6.74h-.88l-2.14-3.42a21.39,21.39,0,0,1-1.26-2.25h0c.05.85.07,1.66.07,2.78v2.88Z"/><path class="cls-4" d="M474.1,270.33v6.74h-.87v-6.74Z"/><path class="cls-4" d="M477.1,277.07l-2.2-6.74h.94l1.05,3.32c.29.91.54,1.73.72,2.52h0c.19-.78.47-1.63.77-2.51l1.14-3.33h.93l-2.41,6.74Z"/><path class="cls-4" d="M484.69,273.91h-2.62v2.43H485v.73H481.2v-6.74h3.64v.73h-2.77v2.13h2.62Z"/><path class="cls-4" d="M486.12,270.42a9.06,9.06,0,0,1,1.67-.14,2.76,2.76,0,0,1,1.95.55,1.68,1.68,0,0,1,.53,1.28,1.77,1.77,0,0,1-1.27,1.72v0a1.68,1.68,0,0,1,1,1.36,10.73,10.73,0,0,0,.52,1.85h-.9a8.73,8.73,0,0,1-.45-1.61c-.2-.93-.56-1.28-1.35-1.31H487v2.92h-.87Zm.87,3.07h.89c.93,0,1.52-.51,1.52-1.28s-.63-1.25-1.55-1.26a3.58,3.58,0,0,0-.86.08Z"/><path class="cls-4" d="M491.38,276a3.08,3.08,0,0,0,1.56.44c.89,0,1.41-.47,1.41-1.15s-.36-1-1.27-1.34c-1.1-.39-1.78-1-1.78-1.91a1.94,1.94,0,0,1,2.18-1.83,3.06,3.06,0,0,1,1.49.33l-.24.71a2.68,2.68,0,0,0-1.28-.32c-.92,0-1.27.55-1.27,1,0,.63.41.94,1.34,1.3,1.14.44,1.72,1,1.72,2s-.77,1.94-2.36,1.94a3.48,3.48,0,0,1-1.72-.43Z"/><path class="cls-4" d="M497.3,270.33v6.74h-.87v-6.74Z"/><path class="cls-4" d="M500.1,271.07h-2.05v-.74h5v.74H501v6h-.88Z"/><path class="cls-4" d="M505.57,277.07v-2.86l-2.13-3.88h1l.95,1.86c.26.51.46.92.67,1.39h0c.19-.44.42-.88.68-1.39l1-1.86h1l-2.26,3.87v2.87Z"/><path class="cls-4" d="M517.36,273.63c0,2.32-1.41,3.55-3.13,3.55s-3-1.38-3-3.42,1.33-3.54,3.13-3.54S517.36,271.63,517.36,273.63Zm-5.23.11c0,1.44.78,2.73,2.15,2.73s2.16-1.27,2.16-2.8c0-1.34-.7-2.74-2.15-2.74S512.13,272.26,512.13,273.74Z"/><path class="cls-4" d="M518.49,270.33h3.63v.73h-2.76v2.24h2.55V274h-2.55v3.05h-.87Z"/><path class="cls-4" d="M526.57,275l-.7,2.12H525l2.29-6.74h1l2.3,6.74h-.93L529,275Zm2.21-.68-.66-1.94c-.15-.44-.25-.84-.35-1.23h0c-.1.4-.21.81-.34,1.22l-.66,1.95Z"/><path class="cls-4" d="M531.6,270.42a9.06,9.06,0,0,1,1.67-.14,2.76,2.76,0,0,1,2,.55,1.68,1.68,0,0,1,.53,1.28,1.77,1.77,0,0,1-1.27,1.72v0a1.68,1.68,0,0,1,1,1.36,10.73,10.73,0,0,0,.52,1.85h-.9a8.73,8.73,0,0,1-.45-1.61c-.2-.93-.56-1.28-1.35-1.31h-.82v2.92h-.87Zm.87,3.07h.89c.93,0,1.52-.51,1.52-1.28s-.63-1.25-1.55-1.26a3.58,3.58,0,0,0-.86.08Z"/><path class="cls-4" d="M538.35,271.07H536.3v-.74h5v.74h-2.06v6h-.88Z"/><path class="cls-4" d="M541.86,276a3.08,3.08,0,0,0,1.56.44c.89,0,1.41-.47,1.41-1.15s-.36-1-1.27-1.34c-1.1-.39-1.78-1-1.78-1.91a1.94,1.94,0,0,1,2.18-1.83,3.06,3.06,0,0,1,1.49.33l-.24.71a2.68,2.68,0,0,0-1.28-.32c-.92,0-1.27.55-1.27,1,0,.63.41.94,1.34,1.3,1.14.44,1.72,1,1.72,2s-.77,1.94-2.36,1.94a3.48,3.48,0,0,1-1.72-.43Z"/><path class="cls-4" d="M546.31,278.3a14.39,14.39,0,0,0,.6-2.39l1-.1a12.19,12.19,0,0,1-.95,2.43Z"/><path class="cls-4" d="M551.1,270.33H552v6h2.88v.73H551.1Z"/><path class="cls-4" d="M561.19,273.63c0,2.32-1.41,3.55-3.13,3.55s-3-1.38-3-3.42,1.33-3.54,3.13-3.54S561.19,271.63,561.19,273.63Zm-5.23.11c0,1.44.78,2.73,2.15,2.73s2.16-1.27,2.16-2.8c0-1.34-.7-2.74-2.15-2.74S556,272.26,556,273.74Z"/><path class="cls-4" d="M562.32,277.07v-6.74h.95l2.16,3.41a19.08,19.08,0,0,1,1.21,2.19h0c-.08-.9-.1-1.72-.1-2.77v-2.82h.82v6.74h-.88l-2.14-3.42a21.39,21.39,0,0,1-1.26-2.25h0c0,.85.07,1.66.07,2.78v2.88Z"/><path class="cls-4" d="M568.9,270.42a12.46,12.46,0,0,1,1.85-.14,3.86,3.86,0,0,1,2.73.84,3.1,3.1,0,0,1,.95,2.42,3.56,3.56,0,0,1-1,2.62,4.15,4.15,0,0,1-3,1,14,14,0,0,1-1.58-.08Zm.87,6a5.49,5.49,0,0,0,.88.05,2.59,2.59,0,0,0,2.87-2.86,2.4,2.4,0,0,0-2.73-2.6,4.94,4.94,0,0,0-1,.09Z"/><path class="cls-4" d="M581.32,273.63c0,2.32-1.41,3.55-3.13,3.55s-3-1.38-3-3.42,1.33-3.54,3.13-3.54S581.32,271.63,581.32,273.63Zm-5.23.11c0,1.44.78,2.73,2.15,2.73s2.16-1.27,2.16-2.8c0-1.34-.7-2.74-2.15-2.74S576.09,272.26,576.09,273.74Z"/><path class="cls-4" d="M582.45,277.07v-6.74h.95l2.16,3.41a19.08,19.08,0,0,1,1.21,2.19h0c-.08-.9-.1-1.72-.1-2.77v-2.82h.82v6.74h-.88l-2.14-3.42a21.39,21.39,0,0,1-1.26-2.25h0c0,.85.07,1.66.07,2.78v2.88Z"/><ellipse class="cls-1" cx="511" cy="783" rx="15" ry="7"/><rect class="cls-2" x="432" y="663" width="158" height="44"/><line class="cls-3" x1="511.5" y1="706" x2="511.5" y2="784.5"/><path class="cls-4" d="M463.13,681.07,460.56,671h1.38l1.2,5.11c.3,1.26.57,2.52.75,3.5h0c.17-1,.48-2.21.83-3.51l1.35-5.1h1.36l1.23,5.13c.29,1.2.56,2.4.71,3.46h0c.21-1.11.49-2.23.81-3.49l1.33-5.1h1.34L470,681.07h-1.36l-1.28-5.27a33.06,33.06,0,0,1-.66-3.3h0a29.83,29.83,0,0,1-.78,3.3l-1.44,5.27Z"/><path class="cls-4" d="M479.4,676.33h-3.93V680h4.38v1.1h-5.68V671h5.46v1.09h-4.16v3.2h3.93Z"/><path class="cls-4" d="M481.55,671.09a12.63,12.63,0,0,1,2.38-.21,4.18,4.18,0,0,1,2.78.74,2.13,2.13,0,0,1,.84,1.78,2.4,2.4,0,0,1-1.71,2.22v0a2.61,2.61,0,0,1,2.08,2.54,2.7,2.7,0,0,1-.85,2,5.07,5.07,0,0,1-3.5.95,15.11,15.11,0,0,1-2-.12Zm1.3,4.14H484c1.38,0,2.19-.72,2.19-1.69,0-1.19-.9-1.65-2.22-1.65a5.31,5.31,0,0,0-1.16.09Zm0,4.85a7.73,7.73,0,0,0,1.1.06c1.35,0,2.59-.5,2.59-2s-1.18-1.95-2.61-1.95h-1.08Z"/><path class="cls-4" d="M489.68,671.09a18.62,18.62,0,0,1,2.77-.21,5.83,5.83,0,0,1,4.1,1.26,4.67,4.67,0,0,1,1.42,3.63,5.36,5.36,0,0,1-1.45,3.93,6.22,6.22,0,0,1-4.47,1.46,22.32,22.32,0,0,1-2.37-.12ZM491,680a8.17,8.17,0,0,0,1.32.08c2.79,0,4.31-1.56,4.31-4.29,0-2.39-1.34-3.9-4.1-3.9a8,8,0,0,0-1.53.13Z"/><path class="cls-4" d="M504.9,676.33H501V680h4.38v1.1h-5.68V671h5.46v1.09H501v3.2h3.93Z"/><path class="cls-4" d="M509.4,681.07,506.1,671h1.41l1.58,5c.43,1.36.81,2.59,1.08,3.78h0c.28-1.17.7-2.45,1.15-3.77l1.71-5h1.4l-3.62,10.11Z"/><path class="cls-4" d="M520.79,676.33h-3.93V680h4.38v1.1h-5.69V671H521v1.09h-4.15v3.2h3.93Z"/><path class="cls-4" d="M522.93,671h1.31v9h4.32v1.1h-5.63Z"/><path class="cls-4" d="M538.07,675.91c0,3.48-2.12,5.32-4.7,5.32s-4.54-2.07-4.54-5.13c0-3.21,2-5.31,4.69-5.31S538.07,672.91,538.07,675.91Zm-7.85.16c0,2.16,1.17,4.1,3.23,4.1s3.24-1.91,3.24-4.2c0-2-1.05-4.11-3.23-4.11S530.22,673.85,530.22,676.07Z"/><path class="cls-4" d="M539.76,671.08a14.58,14.58,0,0,1,2.51-.2,4.14,4.14,0,0,1,2.83.84,2.72,2.72,0,0,1,.89,2.12,3,3,0,0,1-.78,2.16,4.22,4.22,0,0,1-3.09,1.11,4.78,4.78,0,0,1-1-.09v4.05h-1.31Zm1.31,4.87a4.07,4.07,0,0,0,1.08.11c1.57,0,2.53-.77,2.53-2.16s-.94-2-2.38-2a5.52,5.52,0,0,0-1.23.1Z"/><path class="cls-4" d="M553,676.33h-3.93V680h4.38v1.1h-5.69V671h5.46v1.09h-4.15v3.2H553Z"/><path class="cls-4" d="M555.12,671.09a14.1,14.1,0,0,1,2.51-.21,4.13,4.13,0,0,1,2.92.83,2.52,2.52,0,0,1,.8,1.92,2.66,2.66,0,0,1-1.91,2.58v0a2.52,2.52,0,0,1,1.49,2,16.2,16.2,0,0,0,.78,2.78h-1.35a13.18,13.18,0,0,1-.68-2.42c-.3-1.39-.84-1.92-2-2h-1.23v4.38h-1.31Zm1.31,4.61h1.33c1.4,0,2.28-.77,2.28-1.92,0-1.31-.94-1.88-2.32-1.89a5.37,5.37,0,0,0-1.29.12Z"/><path class="cls-4" d="M479,691.42a8.23,8.23,0,0,1,1.58-.14,2.79,2.79,0,0,1,1.85.49A1.41,1.41,0,0,1,483,693a1.6,1.6,0,0,1-1.14,1.48v0a1.74,1.74,0,0,1,1.39,1.69,1.82,1.82,0,0,1-.57,1.35,3.39,3.39,0,0,1-2.33.63,9.87,9.87,0,0,1-1.34-.08Zm.86,2.76h.79c.92,0,1.46-.48,1.46-1.13s-.6-1.1-1.48-1.1a3.73,3.73,0,0,0-.77.06Zm0,3.23a4.65,4.65,0,0,0,.73,0c.9,0,1.73-.33,1.73-1.31s-.79-1.3-1.74-1.3h-.72Z"/><path class="cls-4" d="M485.52,696l-.7,2.12h-.89l2.28-6.74h1.05l2.3,6.74h-.93l-.72-2.12Zm2.21-.68-.66-1.94c-.15-.44-.25-.84-.35-1.23h0c-.1.4-.21.81-.34,1.22l-.66,1.95Z"/><path class="cls-4" d="M495.11,697.85a4.32,4.32,0,0,1-1.78.32,3.14,3.14,0,0,1-3.32-3.41,3.35,3.35,0,0,1,3.51-3.54,3.61,3.61,0,0,1,1.6.3l-.21.71a3.17,3.17,0,0,0-1.36-.28,2.51,2.51,0,0,0-2.63,2.78,2.45,2.45,0,0,0,2.59,2.71,3.48,3.48,0,0,0,1.42-.28Z"/><path class="cls-4" d="M497.07,691.33v2.82h3.26v-2.82h.88v6.74h-.88v-3.16h-3.26v3.16h-.86v-6.74Z"/><path class="cls-4" d="M506.21,694.91h-2.62v2.43h2.92v.73h-3.79v-6.74h3.64v.73h-2.77v2.13h2.62Z"/><path class="cls-4" d="M507.64,691.33h.87v6h2.88v.73h-3.75Z"/><path class="cls-4" d="M517.73,694.63c0,2.32-1.41,3.55-3.13,3.55s-3-1.38-3-3.42,1.33-3.54,3.13-3.54S517.73,692.63,517.73,694.63Zm-5.23.11c0,1.44.78,2.73,2.15,2.73s2.16-1.27,2.16-2.8c0-1.34-.7-2.74-2.15-2.74S512.5,693.26,512.5,694.74Z"/><path class="cls-4" d="M518.87,691.42a8.87,8.87,0,0,1,1.66-.14,2.76,2.76,0,0,1,2,.55,1.68,1.68,0,0,1,.53,1.28,1.77,1.77,0,0,1-1.27,1.72v0a1.68,1.68,0,0,1,1,1.36,10.73,10.73,0,0,0,.52,1.85h-.9a8.73,8.73,0,0,1-.45-1.61c-.2-.93-.56-1.28-1.35-1.31h-.82v2.92h-.86Zm.86,3.07h.89c.93,0,1.52-.51,1.52-1.28s-.63-1.25-1.55-1.26a3.58,3.58,0,0,0-.86.08Z"/><path class="cls-4" d="M523.64,699.3a13.46,13.46,0,0,0,.6-2.39l1-.1a12.19,12.19,0,0,1-1,2.43Z"/><path class="cls-4" d="M528.43,691.33h.87v3.25h0c.18-.26.36-.5.53-.72l2.06-2.53H533l-2.44,2.86,2.63,3.88h-1l-2.22-3.31-.64.74v2.57h-.87Z"/><path class="cls-4" d="M537.34,694.91h-2.62v2.43h2.92v.73h-3.79v-6.74h3.64v.73h-2.77v2.13h2.62Z"/><path class="cls-4" d="M539.86,696l-.7,2.12h-.9l2.29-6.74h1.05l2.3,6.74H543l-.72-2.12Zm2.21-.68-.66-1.94c-.15-.44-.25-.84-.35-1.23h0c-.1.4-.21.81-.34,1.22l-.66,1.95Z"/><path d="M538,784.64a2.56,2.56,0,0,1-1.9-.69,2.78,2.78,0,0,1-.69-2.05v-3.61h.66v3.58a2.3,2.3,0,0,0,.51,1.65,1.87,1.87,0,0,0,1.42.53,1.89,1.89,0,0,0,1.43-.53,2.3,2.3,0,0,0,.5-1.65v-3.58h.65v3.61a2.78,2.78,0,0,1-.69,2.05A2.55,2.55,0,0,1,538,784.64Z"/><path d="M542.63,784.59v-6.3H545a3.35,3.35,0,0,1,1.37.26,1.92,1.92,0,0,1,.89.74,2.31,2.31,0,0,1,0,2.31,2,2,0,0,1-.89.74,3.35,3.35,0,0,1-1.37.26h-2l.29-.31v2.3Zm.66-2.25L543,782h2a2.18,2.18,0,0,0,1.43-.41,1.43,1.43,0,0,0,.49-1.16,1.45,1.45,0,0,0-.49-1.17,2.12,2.12,0,0,0-1.43-.41h-2l.29-.32Z"/><path d="M551.83,784.64a3.52,3.52,0,0,1-1.32-.23,3.21,3.21,0,0,1-1-.67,3.12,3.12,0,0,1-.69-1,3.4,3.4,0,0,1,0-2.56,3.12,3.12,0,0,1,.69-1,3,3,0,0,1,1-.67,3.52,3.52,0,0,1,1.32-.24,3.42,3.42,0,0,1,1.28.23,2.57,2.57,0,0,1,1,.69l-.42.42a2.23,2.23,0,0,0-.86-.57,2.79,2.79,0,0,0-1-.18,3,3,0,0,0-1.05.19,2.71,2.71,0,0,0-.85.55,2.76,2.76,0,0,0-.56.83,2.71,2.71,0,0,0-.2,1,2.68,2.68,0,0,0,.2,1,2.76,2.76,0,0,0,.56.83,2.54,2.54,0,0,0,.85.55,3,3,0,0,0,2.06,0,2.38,2.38,0,0,0,.86-.58l.42.43a2.79,2.79,0,0,1-1,.69A3.44,3.44,0,0,1,551.83,784.64Z"/><path d="M558.18,784.64a3.59,3.59,0,0,1-1.32-.23,3.22,3.22,0,0,1-1.05-.68,3,3,0,0,1-.69-1,3.35,3.35,0,0,1,0-2.54,3,3,0,0,1,.69-1,3,3,0,0,1,1.05-.67,3.72,3.72,0,0,1,2.63,0,2.87,2.87,0,0,1,1,.67,3,3,0,0,1,.7,1,3.53,3.53,0,0,1,0,2.56,3.11,3.11,0,0,1-1.75,1.69A3.5,3.5,0,0,1,558.18,784.64Zm0-.59a2.76,2.76,0,0,0,1.05-.19,2.5,2.5,0,0,0,.84-.55,2.73,2.73,0,0,0,.55-.83,2.68,2.68,0,0,0,.2-1,2.62,2.62,0,0,0-.75-1.87,2.66,2.66,0,0,0-.84-.55,3,3,0,0,0-2.1,0,2.6,2.6,0,0,0-.85.55,2.76,2.76,0,0,0-.56.83,2.71,2.71,0,0,0-.19,1,2.51,2.51,0,0,0,.75,1.87,2.45,2.45,0,0,0,.85.55A2.76,2.76,0,0,0,558.18,784.05Z"/><path d="M563,784.59v-6.3h.55l2.88,4.92h-.29l2.85-4.92h.55v6.3h-.64v-5.3H569l-2.62,4.5h-.32l-2.64-4.5h.17v5.3Z"/><path d="M571.57,784.59v-6.3h.67v6.3Z"/><path d="M574.29,784.59v-6.3h.55l4.35,5.47h-.29v-5.47h.65v6.3H579l-4.34-5.47H575v5.47Z"/><path d="M584.37,784.64a3.61,3.61,0,0,1-1.33-.23,3.37,3.37,0,0,1-1-.67,3,3,0,0,1-.69-1,3.4,3.4,0,0,1,0-2.56,2.84,2.84,0,0,1,.69-1,3.08,3.08,0,0,1,1.06-.67,3.61,3.61,0,0,1,1.33-.24,3.73,3.73,0,0,1,1.32.22,2.57,2.57,0,0,1,1,.69l-.42.42a2.31,2.31,0,0,0-.87-.57,3.16,3.16,0,0,0-2.1,0,2.6,2.6,0,0,0-.85.55,2.46,2.46,0,0,0-.57.83,2.54,2.54,0,0,0-.2,1,2.57,2.57,0,0,0,.2,1,2.57,2.57,0,0,0,1.42,1.38,2.87,2.87,0,0,0,1.07.19,3.11,3.11,0,0,0,1-.16,2.29,2.29,0,0,0,.88-.55l.38.5a2.88,2.88,0,0,1-1,.6A3.78,3.78,0,0,1,584.37,784.64Zm1.67-.88v-2.32h.64v2.4Z"/><ellipse class="cls-1" cx="345" cy="698" rx="15" ry="7"/><path d="M271,699.64a2.56,2.56,0,0,1-1.9-.69,2.78,2.78,0,0,1-.69-2.05v-3.61h.66v3.58a2.3,2.3,0,0,0,.51,1.65,1.87,1.87,0,0,0,1.42.53,1.89,1.89,0,0,0,1.43-.53,2.3,2.3,0,0,0,.5-1.65v-3.58h.65v3.61a2.78,2.78,0,0,1-.69,2.05A2.55,2.55,0,0,1,271,699.64Z"/><path d="M275.63,699.59v-6.3H278a3.35,3.35,0,0,1,1.37.26,1.92,1.92,0,0,1,.89.74,2.31,2.31,0,0,1,0,2.31,2,2,0,0,1-.89.74,3.35,3.35,0,0,1-1.37.26h-2l.29-.31v2.3Zm.66-2.25L276,697h2a2.18,2.18,0,0,0,1.43-.41,1.43,1.43,0,0,0,.49-1.16,1.45,1.45,0,0,0-.49-1.17,2.12,2.12,0,0,0-1.43-.41h-2l.29-.32Z"/><path d="M284.83,699.64a3.52,3.52,0,0,1-1.32-.23,3.21,3.21,0,0,1-1-.67,3.12,3.12,0,0,1-.69-1,3.4,3.4,0,0,1,0-2.56,3.12,3.12,0,0,1,.69-1,3,3,0,0,1,1-.67,3.52,3.52,0,0,1,1.32-.24,3.42,3.42,0,0,1,1.28.23,2.57,2.57,0,0,1,1,.69l-.42.42a2.23,2.23,0,0,0-.86-.57,2.79,2.79,0,0,0-1-.18,3,3,0,0,0-1.05.19,2.71,2.71,0,0,0-.85.55,2.76,2.76,0,0,0-.56.83,2.71,2.71,0,0,0-.2,1,2.68,2.68,0,0,0,.2,1,2.76,2.76,0,0,0,.56.83,2.54,2.54,0,0,0,.85.55,3,3,0,0,0,2.06,0,2.38,2.38,0,0,0,.86-.58l.42.43a2.79,2.79,0,0,1-1,.69A3.44,3.44,0,0,1,284.83,699.64Z"/><path d="M291.18,699.64a3.59,3.59,0,0,1-1.32-.23,3.22,3.22,0,0,1-1.05-.68,3,3,0,0,1-.69-1,3.35,3.35,0,0,1,0-2.54,3,3,0,0,1,.69-1,3,3,0,0,1,1.05-.67,3.72,3.72,0,0,1,2.63,0,2.87,2.87,0,0,1,1.05.67,3,3,0,0,1,.7,1,3.53,3.53,0,0,1,0,2.56,3.11,3.11,0,0,1-1.75,1.69A3.5,3.5,0,0,1,291.18,699.64Zm0-.59a2.76,2.76,0,0,0,1.05-.19,2.5,2.5,0,0,0,.84-.55,2.73,2.73,0,0,0,.55-.83,2.68,2.68,0,0,0,.2-1,2.62,2.62,0,0,0-.75-1.87,2.66,2.66,0,0,0-.84-.55,3,3,0,0,0-2.1,0,2.6,2.6,0,0,0-.85.55,2.76,2.76,0,0,0-.56.83,2.71,2.71,0,0,0-.19,1,2.51,2.51,0,0,0,.75,1.87,2.45,2.45,0,0,0,.85.55A2.76,2.76,0,0,0,291.18,699.05Z"/><path d="M296,699.59v-6.3h.55l2.88,4.92h-.29l2.85-4.92h.55v6.3h-.64v-5.3H302l-2.62,4.5h-.32l-2.64-4.5h.17v5.3Z"/><path d="M304.57,699.59v-6.3h.67v6.3Z"/><path d="M307.29,699.59v-6.3h.55l4.35,5.47h-.29v-5.47h.65v6.3H312l-4.34-5.47H308v5.47Z"/><path d="M317.37,699.64a3.61,3.61,0,0,1-1.33-.23,3.37,3.37,0,0,1-1.05-.67,3,3,0,0,1-.69-1,3.4,3.4,0,0,1,0-2.56,2.84,2.84,0,0,1,.69-1,3.08,3.08,0,0,1,1.06-.67,3.61,3.61,0,0,1,1.33-.24,3.73,3.73,0,0,1,1.32.22,2.57,2.57,0,0,1,1,.69l-.42.42a2.31,2.31,0,0,0-.87-.57,3.16,3.16,0,0,0-2.1,0,2.6,2.6,0,0,0-.85.55,2.46,2.46,0,0,0-.57.83,2.54,2.54,0,0,0-.2,1,2.57,2.57,0,0,0,.2,1,2.57,2.57,0,0,0,1.42,1.38,2.87,2.87,0,0,0,1.07.19,3.11,3.11,0,0,0,1-.16,2.29,2.29,0,0,0,.88-.55l.38.5a2.88,2.88,0,0,1-1.05.6A3.78,3.78,0,0,1,317.37,699.64Zm1.67-.88v-2.32h.64v2.4Z"/><path d="M464,546.64a3.5,3.5,0,0,1-1.31-.23,3.37,3.37,0,0,1-1-.67,3.09,3.09,0,0,1-.68-1,3.4,3.4,0,0,1,0-2.56,2.84,2.84,0,0,1,.69-1,3,3,0,0,1,1.05-.67,3.51,3.51,0,0,1,1.31-.24,3.44,3.44,0,0,1,1.29.23,2.57,2.57,0,0,1,1,.69l-.43.42A2.2,2.2,0,0,0,465,541a2.79,2.79,0,0,0-1-.18,3,3,0,0,0-1.05.19,2.52,2.52,0,0,0-1.41,1.38,2.54,2.54,0,0,0-.2,1,2.51,2.51,0,0,0,.2,1,2.59,2.59,0,0,0,.56.83,2.45,2.45,0,0,0,.85.55,3,3,0,0,0,2.06,0,2.35,2.35,0,0,0,.85-.58l.43.43a2.79,2.79,0,0,1-1,.69A3.49,3.49,0,0,1,464,546.64Z"/><path d="M470.24,546.64a2.56,2.56,0,0,1-1.9-.69,2.74,2.74,0,0,1-.7-2.05v-3.61h.67v3.58a2.34,2.34,0,0,0,.5,1.65,2.19,2.19,0,0,0,2.86,0,2.34,2.34,0,0,0,.5-1.65v-3.58h.65v3.61a2.78,2.78,0,0,1-.69,2.05A2.55,2.55,0,0,1,470.24,546.64Z"/><path d="M474.83,546.59v-6.3h2.35a3.36,3.36,0,0,1,1.38.26,2,2,0,0,1,.89.74,2.31,2.31,0,0,1,0,2.31,2,2,0,0,1-.89.74,3.37,3.37,0,0,1-1.38.25h-2l.3-.3v2.3Zm.66-2.25-.3-.31h2a2.16,2.16,0,0,0,1.43-.42,1.41,1.41,0,0,0,.49-1.16,1.45,1.45,0,0,0-.49-1.17,2.16,2.16,0,0,0-1.43-.41h-2l.3-.32Zm3.64,2.25-1.62-2.29h.72l1.63,2.29Z"/><path d="M481.33,546.59v-6.3h2.36a3.43,3.43,0,0,1,1.38.26,1.89,1.89,0,0,1,.88.74,2.31,2.31,0,0,1,0,2.31,2,2,0,0,1-.88.74,3.44,3.44,0,0,1-1.38.25h-2l.3-.3v2.3Zm.67-2.25-.3-.31h2a2.17,2.17,0,0,0,1.44-.42,1.44,1.44,0,0,0,.49-1.16,1.48,1.48,0,0,0-.49-1.17,2.17,2.17,0,0,0-1.44-.41h-2l.3-.32Zm3.63,2.25L484,544.3h.72l1.63,2.29Z"/><path d="M488.5,546h3.79v.58h-4.45v-6.3h4.32v.58H488.5Zm-.07-2.9h3.33v.56h-3.33Z"/><path d="M493.86,546.59v-6.3h.55l4.35,5.47h-.29v-5.47h.65v6.3h-.54l-4.34-5.47h.29v5.47Z"/><path d="M502.4,546.59v-5.72h-2.21v-.58h5.09v.58h-2.21v5.72Z"/><path d="M510.44,546.64a4.07,4.07,0,0,1-1.35-.22,2.6,2.6,0,0,1-1-.59l.26-.52a2.65,2.65,0,0,0,.89.55,3.4,3.4,0,0,0,1.19.22,2.67,2.67,0,0,0,1-.15,1.15,1.15,0,0,0,.54-.4,1,1,0,0,0,.18-.56.82.82,0,0,0-.21-.59,1.55,1.55,0,0,0-.55-.36,6.84,6.84,0,0,0-.76-.23c-.28-.06-.55-.13-.83-.21a3.44,3.44,0,0,1-.76-.3,1.59,1.59,0,0,1-.56-.5,1.45,1.45,0,0,1-.21-.82,1.51,1.51,0,0,1,.25-.85,1.6,1.6,0,0,1,.76-.63,3.1,3.1,0,0,1,1.31-.24,3.82,3.82,0,0,1,1.06.15,3.08,3.08,0,0,1,.9.4l-.23.54a2.92,2.92,0,0,0-.86-.4,3.41,3.41,0,0,0-.88-.13,2.28,2.28,0,0,0-.93.16,1.19,1.19,0,0,0-.55.41,1,1,0,0,0-.17.58.84.84,0,0,0,.21.59,1.38,1.38,0,0,0,.56.35,6.25,6.25,0,0,0,.76.23c.27.06.55.13.82.21a4.3,4.3,0,0,1,.76.3,1.77,1.77,0,0,1,.56.49,1.43,1.43,0,0,1,.21.81,1.62,1.62,0,0,1-.25.85,1.81,1.81,0,0,1-.77.63A3.21,3.21,0,0,1,510.44,546.64Z"/><path d="M515.37,546.59v-5.72h-2.21v-.58h5.09v.58H516v5.72Z"/><path d="M518,546.59l2.88-6.3h.66l2.88,6.3h-.71l-2.64-5.91h.27l-2.65,5.91Zm1.13-1.68.2-.54H523l.2.54Z"/><path d="M526.36,546.59v-5.72h-2.22v-.58h5.1v.58H527v5.72Z"/><path d="M532.71,546.64a2.59,2.59,0,0,1-1.9-.69,2.78,2.78,0,0,1-.69-2.05v-3.61h.67v3.58a2.3,2.3,0,0,0,.5,1.65,2.18,2.18,0,0,0,2.85,0,2.3,2.3,0,0,0,.51-1.65v-3.58h.65v3.61a2.78,2.78,0,0,1-.69,2.05A2.56,2.56,0,0,1,532.71,546.64Z"/><path d="M539,546.64a4.07,4.07,0,0,1-1.35-.22,2.6,2.6,0,0,1-1-.59l.26-.52a2.6,2.6,0,0,0,.9.55,3.3,3.3,0,0,0,1.18.22,2.63,2.63,0,0,0,1-.15,1.18,1.18,0,0,0,.55-.4,1,1,0,0,0,.17-.56.82.82,0,0,0-.21-.59A1.55,1.55,0,0,0,540,544a6.25,6.25,0,0,0-.76-.23c-.28-.06-.55-.13-.83-.21a3.65,3.65,0,0,1-.76-.3,1.68,1.68,0,0,1-.56-.5,1.45,1.45,0,0,1-.21-.82,1.51,1.51,0,0,1,.25-.85,1.6,1.6,0,0,1,.76-.63,3.1,3.1,0,0,1,1.31-.24,3.82,3.82,0,0,1,1.06.15,2.86,2.86,0,0,1,.9.4l-.23.54a2.81,2.81,0,0,0-.86-.4,3.4,3.4,0,0,0-.87-.13,2.33,2.33,0,0,0-.94.16,1.19,1.19,0,0,0-.55.41,1,1,0,0,0-.17.58.84.84,0,0,0,.21.59,1.38,1.38,0,0,0,.56.35,6.25,6.25,0,0,0,.76.23c.28.06.55.13.82.21a4,4,0,0,1,.76.3,1.67,1.67,0,0,1,.56.49,1.43,1.43,0,0,1,.21.81,1.62,1.62,0,0,1-.25.85,1.81,1.81,0,0,1-.77.63A3.21,3.21,0,0,1,539,546.64Z"/><g class="cls-6"><ellipse class="cls-1" cx="445.49" cy="559.29" rx="3.07" ry="2.8" transform="translate(-266.76 622.34) rotate(-56.52)"/><ellipse class="cls-1" cx="439.39" cy="568.51" rx="3.07" ry="2.8" transform="translate(-277.18 621.39) rotate(-56.52)"/><ellipse class="cls-1" cx="433.3" cy="577.72" rx="3.07" ry="2.8" transform="translate(-287.59 620.44) rotate(-56.52)"/><ellipse class="cls-1" cx="427.2" cy="586.94" rx="3.07" ry="2.8" transform="translate(-298.01 619.48) rotate(-56.52)"/><ellipse class="cls-1" cx="421.11" cy="596.15" rx="3.07" ry="2.8" transform="translate(-308.43 618.53) rotate(-56.52)"/><ellipse class="cls-1" cx="415.01" cy="605.37" rx="3.07" ry="2.8" transform="translate(-318.85 617.58) rotate(-56.52)"/><ellipse class="cls-1" cx="408.92" cy="614.58" rx="3.07" ry="2.8" transform="translate(-329.27 616.63) rotate(-56.52)"/><ellipse class="cls-1" cx="402.83" cy="623.8" rx="3.07" ry="2.8" transform="translate(-339.69 615.68) rotate(-56.52)"/><ellipse class="cls-1" cx="396.73" cy="633.01" rx="3.07" ry="2.8" transform="matrix(0.55, -0.83, 0.83, 0.55, -350.1, 614.73)"/><ellipse class="cls-1" cx="390.64" cy="642.23" rx="3.07" ry="2.8" transform="translate(-360.52 613.77) rotate(-56.52)"/><ellipse class="cls-1" cx="384.54" cy="651.44" rx="3.07" ry="2.8" transform="translate(-370.94 612.82) rotate(-56.52)"/><ellipse class="cls-1" cx="378.45" cy="660.65" rx="3.07" ry="2.8" transform="translate(-381.36 611.87) rotate(-56.52)"/><ellipse class="cls-1" cx="372.35" cy="669.87" rx="3.07" ry="2.8" transform="translate(-391.78 610.92) rotate(-56.52)"/><ellipse class="cls-1" cx="366.26" cy="679.08" rx="3.07" ry="2.8" transform="matrix(0.55, -0.83, 0.83, 0.55, -402.2, 609.97)"/></g><g class="cls-6"><ellipse class="cls-1" cx="367.8" cy="708.91" rx="2.8" ry="2.89" transform="translate(-430.51 685.69) rotate(-60.91)"/><ellipse class="cls-1" cx="376.88" cy="713.96" rx="2.8" ry="2.89" transform="translate(-430.25 696.22) rotate(-60.91)"/><ellipse class="cls-1" cx="385.96" cy="719.01" rx="2.8" ry="2.89" transform="translate(-430 706.75) rotate(-60.91)"/><ellipse class="cls-1" cx="395.04" cy="724.06" rx="2.8" ry="2.89" transform="translate(-429.75 717.28) rotate(-60.91)"/><ellipse class="cls-1" cx="404.11" cy="729.11" rx="2.8" ry="2.89" transform="translate(-429.5 727.81) rotate(-60.91)"/><ellipse class="cls-1" cx="413.19" cy="734.16" rx="2.8" ry="2.89" transform="translate(-429.25 738.34) rotate(-60.91)"/><ellipse class="cls-1" cx="422.27" cy="739.21" rx="2.8" ry="2.89" transform="translate(-429 748.87) rotate(-60.91)"/><ellipse class="cls-1" cx="431.35" cy="744.27" rx="2.8" ry="2.89" transform="translate(-428.74 759.4) rotate(-60.91)"/><ellipse class="cls-1" cx="440.43" cy="749.32" rx="2.8" ry="2.89" transform="translate(-428.49 769.93) rotate(-60.91)"/><ellipse class="cls-1" cx="449.51" cy="754.37" rx="2.8" ry="2.89" transform="translate(-428.24 780.46) rotate(-60.91)"/><ellipse class="cls-1" cx="458.59" cy="759.42" rx="2.8" ry="2.89" transform="translate(-427.99 790.99) rotate(-60.91)"/><ellipse class="cls-1" cx="467.67" cy="764.47" rx="2.8" ry="2.89" transform="translate(-427.74 801.52) rotate(-60.91)"/><ellipse class="cls-1" cx="476.75" cy="769.52" rx="2.8" ry="2.89" transform="translate(-427.49 812.05) rotate(-60.91)"/><ellipse class="cls-1" cx="485.83" cy="774.57" rx="2.8" ry="2.89" transform="translate(-427.23 822.58) rotate(-60.91)"/></g><rect class="cls-2" x="266" y="578" width="158" height="44"/><line class="cls-3" x1="345.5" y1="621" x2="345.5" y2="699.5"/><path class="cls-4" d="M291.8,590.24v14.83h-1.91V590.24Z"/><path class="cls-4" d="M295.15,605.07V590.24h2.09l4.75,7.5a41.35,41.35,0,0,1,2.66,4.82l.05,0c-.18-2-.22-3.79-.22-6.1v-6.2h1.8v14.83h-1.94l-4.7-7.53a46.08,46.08,0,0,1-2.78-4.95l-.06,0c.11,1.87.15,3.66.15,6.12v6.34Z"/><path class="cls-4" d="M312.44,591.87h-4.51v-1.63h11v1.63h-4.53v13.2h-1.94Z"/><path class="cls-4" d="M328.24,598.12h-5.77v5.34h6.43v1.61h-8.34V590.24h8v1.6h-6.1v4.69h5.77Z"/><path class="cls-4" d="M331.38,590.44a19.76,19.76,0,0,1,3.68-.31c2,0,3.36.37,4.29,1.21a3.71,3.71,0,0,1,1.16,2.81,3.9,3.9,0,0,1-2.79,3.79V598c1.14.4,1.82,1.46,2.18,3a23,23,0,0,0,1.14,4.07h-2a19.79,19.79,0,0,1-1-3.54c-.44-2-1.23-2.82-3-2.89h-1.81v6.43h-1.91Zm1.91,6.75h2c2.05,0,3.35-1.12,3.35-2.81,0-1.92-1.39-2.76-3.41-2.78a7.76,7.76,0,0,0-1.9.18Z"/><path class="cls-4" d="M343.22,605.07V590.24h2.09l4.75,7.5a41.35,41.35,0,0,1,2.66,4.82l0,0c-.18-2-.22-3.79-.22-6.1v-6.2h1.8v14.83h-1.94l-4.7-7.53a46.08,46.08,0,0,1-2.78-4.95l-.06,0c.11,1.87.15,3.66.15,6.12v6.34Z"/><path class="cls-4" d="M357.43,602.74a6.86,6.86,0,0,0,3.43,1c2,0,3.1-1,3.1-2.53s-.79-2.17-2.79-2.94c-2.42-.86-3.92-2.12-3.92-4.21,0-2.31,1.92-4,4.8-4a6.8,6.8,0,0,1,3.28.72l-.53,1.56a5.94,5.94,0,0,0-2.82-.7c-2,0-2.79,1.21-2.79,2.22,0,1.39.9,2.07,2.95,2.86,2.51,1,3.78,2.18,3.78,4.36s-1.69,4.27-5.19,4.27a7.69,7.69,0,0,1-3.79-.95Z"/><path class="cls-4" d="M370.45,590.24v6.2h7.18v-6.2h1.93v14.83h-1.93v-7h-7.18v7h-1.91V590.24Z"/><path class="cls-4" d="M384.8,590.24v14.83h-1.92V590.24Z"/><path class="cls-4" d="M388.14,590.41a22.64,22.64,0,0,1,3.67-.28,6.09,6.09,0,0,1,4.16,1.23,4,4,0,0,1,1.3,3.1,4.36,4.36,0,0,1-1.14,3.17,6.15,6.15,0,0,1-4.54,1.63,6.6,6.6,0,0,1-1.54-.13v5.94h-1.91Zm1.91,7.16a6.49,6.49,0,0,0,1.59.15c2.31,0,3.72-1.12,3.72-3.17s-1.39-2.9-3.5-2.9a8,8,0,0,0-1.81.15Z"/></svg>