<svg id="Layer_1" data-name="Layer 1" xmlns="http://www.w3.org/2000/svg" viewBox="0 0 694 395"><defs><style>.cls-1{fill:#0031ff;}.cls-2{fill:#070707;}.cls-3,.cls-5,.cls-6{fill:none;}.cls-3{stroke:#070707;stroke-width:3px;}.cls-3,.cls-6{stroke-miterlimit:10;}.cls-4{fill:#eaeaea;}.cls-6{stroke:#0031ff;stroke-width:0.75px;}</style></defs><path class="cls-1" d="M424,300,88,276c-31-6-5-13.6,6-14l234.48-10.4c11-.41,11.52-16.73.52-17.6l-81-27c-16-7-5-22,20-23l164-2c13-1,16.22-4.53,10-6l-97-16c-15.32-3.63-29-28-.24-35.94l62.33-17.5c31.91-6.56,15.12-18.13,6.1-26.22L407,74.81a1,1,0,0,1,.69-1.81,1,1,0,0,1,.54.15l29.29,17.57C456,102,446.73,115,433.8,118.6l-31.28,8.78c-12.44,3.49-11.85,21.33.79,24L507,170c60,22-21.56,28.36-32,31H316c-1.63.1-13,0-17,2.33-18.9,11.13,86.48,16.44,91,16.67l248,8c42,1,41,15,8,17L303.7,268.64c-10.79.67-10.47,5.46.3,6.36l150,7c18,1,55,4,63,11,39.51,34.57-94,60-94,60s59.49-34.8,58-40C479,306,449,302,424,300Z"/><rect class="cls-2" x="202" y="7" width="206" height="44"/><line class="cls-3" x1="406.5" y1="7.5" x2="406.5" y2="73"/><path class="cls-4" d="M210.33,16.09a12.66,12.66,0,0,1,2.39-.21,4.17,4.17,0,0,1,2.77.74,2.1,2.1,0,0,1,.84,1.78,2.39,2.39,0,0,1-1.71,2.22v0a2.62,2.62,0,0,1,2.09,2.54,2.71,2.71,0,0,1-.86,2,5,5,0,0,1-3.49.95,15.41,15.41,0,0,1-2-.12Zm1.31,4.14h1.18c1.38,0,2.19-.72,2.19-1.69,0-1.19-.9-1.65-2.22-1.65a5.2,5.2,0,0,0-1.15.09Zm0,4.85a7.57,7.57,0,0,0,1.09.06c1.35,0,2.6-.5,2.6-2s-1.19-2-2.61-2h-1.08Z"/><path class="cls-4" d="M219.77,16v6c0,2.27,1,3.23,2.35,3.23,1.5,0,2.46-1,2.46-3.23V16h1.32v5.89c0,3.11-1.63,4.38-3.82,4.38s-3.63-1.18-3.63-4.32V16Z"/><path class="cls-4" d="M228,24.48a4.61,4.61,0,0,0,2.34.66c1.33,0,2.11-.71,2.11-1.73s-.54-1.48-1.9-2c-1.65-.58-2.67-1.44-2.67-2.86,0-1.58,1.3-2.75,3.27-2.75a4.52,4.52,0,0,1,2.23.5L233,17.35a4,4,0,0,0-1.92-.48c-1.38,0-1.9.83-1.9,1.52,0,.94.61,1.41,2,1.95,1.71.66,2.58,1.48,2.58,3s-1.16,2.91-3.54,2.91a5.21,5.21,0,0,1-2.58-.65Z"/><path class="cls-4" d="M236.87,16V26.07h-1.31V16Z"/><path class="cls-4" d="M239.15,26.07V16h1.42l3.24,5.11a28.75,28.75,0,0,1,1.82,3.29l0,0c-.12-1.35-.15-2.58-.15-4.15V16h1.23V26.07h-1.32l-3.21-5.13a31.27,31.27,0,0,1-1.89-3.38l0,0c.08,1.27.11,2.49.11,4.17v4.32Z"/><path class="cls-4" d="M254.25,21.33h-3.93V25h4.38v1.1H249V16h5.46v1.09h-4.16v3.2h3.93Z"/><path class="cls-4" d="M256.22,24.48a4.61,4.61,0,0,0,2.34.66c1.33,0,2.11-.71,2.11-1.73s-.54-1.48-1.9-2c-1.65-.58-2.67-1.44-2.67-2.86,0-1.58,1.3-2.75,3.27-2.75a4.52,4.52,0,0,1,2.23.5l-.36,1.06a4,4,0,0,0-1.92-.48c-1.38,0-1.9.83-1.9,1.52,0,.94.61,1.41,2,1.95,1.71.66,2.58,1.48,2.58,3s-1.16,2.91-3.54,2.91a5.21,5.21,0,0,1-2.58-.65Z"/><path class="cls-4" d="M263.61,24.48a4.64,4.64,0,0,0,2.34.66c1.34,0,2.12-.71,2.12-1.73s-.54-1.48-1.91-2c-1.65-.58-2.67-1.44-2.67-2.86,0-1.58,1.31-2.75,3.27-2.75a4.54,4.54,0,0,1,2.24.5l-.36,1.06a4,4,0,0,0-1.92-.48c-1.38,0-1.91.83-1.91,1.52,0,.94.62,1.41,2,1.95,1.71.66,2.58,1.48,2.58,3s-1.15,2.91-3.54,2.91a5.24,5.24,0,0,1-2.58-.65Z"/><path class="cls-4" d="M270.29,27.91a22,22,0,0,0,.9-3.58l1.47-.15a18.51,18.51,0,0,1-1.43,3.64Z"/><path class="cls-4" d="M286,21.63c-.07-1.41-.16-3.11-.15-4.37h0c-.35,1.19-.77,2.45-1.28,3.84L282.74,26h-1l-1.64-4.82c-.48-1.42-.88-2.73-1.17-3.93h0c0,1.26-.1,3-.19,4.47l-.27,4.34H277.2L277.91,16h1.66l1.73,4.89c.42,1.24.76,2.35,1,3.4h0c.26-1,.62-2.13,1.07-3.4l1.8-4.89h1.66l.63,10.11h-1.27Z"/><path class="cls-4" d="M291,22.89l-1,3.18h-1.35L292.05,16h1.58l3.45,10.11h-1.4l-1.08-3.18Zm3.31-1-1-2.91c-.22-.66-.37-1.26-.52-1.85h0c-.15.6-.32,1.22-.51,1.83l-1,2.93Z"/><path class="cls-4" d="M298.56,16.09a14.1,14.1,0,0,1,2.51-.21,4.13,4.13,0,0,1,2.92.83,2.52,2.52,0,0,1,.8,1.92,2.66,2.66,0,0,1-1.91,2.58v0a2.52,2.52,0,0,1,1.49,2,16.2,16.2,0,0,0,.78,2.78H303.8a13.18,13.18,0,0,1-.68-2.42c-.3-1.39-.84-1.92-2-2h-1.23v4.38h-1.31Zm1.31,4.61h1.33c1.4,0,2.28-.77,2.28-1.92,0-1.31-.94-1.88-2.32-1.89a5.37,5.37,0,0,0-1.29.12Z"/><path class="cls-4" d="M306.63,16h1.31v4.87h0c.27-.39.54-.75.8-1.08L311.87,16h1.62l-3.66,4.29,3.94,5.82h-1.54l-3.33-5-1,1.11v3.86h-1.31Z"/><path class="cls-4" d="M320,21.33h-3.93V25h4.38v1.1h-5.69V16h5.46v1.09h-4.15v3.2H320Z"/><path class="cls-4" d="M324.3,17.07h-3.07V16h7.48v1.11h-3.09v9H324.3Z"/><path class="cls-4" d="M331.14,16V26.07h-1.3V16Z"/><path class="cls-4" d="M333.42,26.07V16h1.43l3.24,5.11a28.57,28.57,0,0,1,1.81,3.29l0,0c-.12-1.35-.15-2.58-.15-4.15V16H341V26.07h-1.32l-3.21-5.13a33.07,33.07,0,0,1-1.89-3.38l0,0c.07,1.27.1,2.49.1,4.17v4.32Z"/><path class="cls-4" d="M351,25.62a9.48,9.48,0,0,1-3.11.55,5.21,5.21,0,0,1-3.78-1.33,5.2,5.2,0,0,1-1.41-3.77c0-3,2.09-5.22,5.48-5.22a6.25,6.25,0,0,1,2.52.47l-.32,1.06a5.22,5.22,0,0,0-2.23-.43A3.78,3.78,0,0,0,344.07,21c0,2.57,1.55,4.08,3.9,4.08a4.24,4.24,0,0,0,1.74-.27v-3h-2v-1H351Z"/><path class="cls-4" d="M357.8,22.89l-1.05,3.18H355.4L358.83,16h1.58l3.45,10.11h-1.4l-1.08-3.18Zm3.31-1-1-2.91c-.22-.66-.37-1.26-.52-1.85h0c-.15.6-.32,1.22-.51,1.83l-1,2.93Z"/><path class="cls-4" d="M365.34,26.07V16h1.43L370,21.07a28.57,28.57,0,0,1,1.81,3.29l0,0c-.12-1.35-.15-2.58-.15-4.15V16h1.23V26.07h-1.32l-3.21-5.13a33.07,33.07,0,0,1-1.89-3.38l0,0c.07,1.27.1,2.49.1,4.17v4.32Z"/><path class="cls-4" d="M375.21,16.09a18.76,18.76,0,0,1,2.78-.21,5.8,5.8,0,0,1,4.09,1.26,4.67,4.67,0,0,1,1.43,3.63,5.33,5.33,0,0,1-1.46,3.93,6.19,6.19,0,0,1-4.47,1.46,22.32,22.32,0,0,1-2.37-.12ZM376.52,25a8.17,8.17,0,0,0,1.32.08c2.79,0,4.3-1.56,4.3-4.29,0-2.39-1.33-3.9-4.09-3.9a7.78,7.78,0,0,0-1.53.13Z"/><path class="cls-4" d="M389.69,16V26.07h-1.31V16Z"/><path class="cls-4" d="M393.89,17.07h-3.08V16h7.49v1.11h-3.09v9h-1.32Z"/><path class="cls-4" d="M212,39l-.7,2.12h-.9l2.29-6.74h1.05l2.3,6.74h-.93L214.43,39Zm2.21-.68-.66-1.94c-.15-.44-.25-.84-.35-1.23h0c-.1.4-.21.81-.34,1.22l-.66,2Z"/><path class="cls-4" d="M219.07,40a3.08,3.08,0,0,0,1.56.44c.89,0,1.41-.47,1.41-1.15s-.36-1-1.27-1.34c-1.1-.39-1.78-1-1.78-1.91a1.94,1.94,0,0,1,2.18-1.83,3.06,3.06,0,0,1,1.49.33l-.24.71a2.68,2.68,0,0,0-1.28-.32c-.92,0-1.27.55-1.27,1,0,.63.41.94,1.34,1.3,1.14.44,1.72,1,1.72,2s-.77,1.94-2.36,1.94a3.48,3.48,0,0,1-1.72-.43Z"/><path class="cls-4" d="M227.61,37.91H225v2.43h2.92v.73h-3.79V34.33h3.64v.73H225v2.13h2.62Z"/><path class="cls-4" d="M234.72,38.11c-.05-.94-.11-2.07-.1-2.91h0c-.23.79-.51,1.63-.85,2.56L232.55,41h-.66l-1.09-3.21c-.32-1-.59-1.82-.78-2.62h0c0,.84-.07,2-.13,3l-.18,2.89h-.83l.47-6.74h1.11l1.15,3.26c.28.83.51,1.57.68,2.27h0c.17-.68.41-1.42.71-2.27l1.2-3.26h1.11l.42,6.74h-.85Z"/><path class="cls-4" d="M240.57,37.91H238v2.43h2.92v.73h-3.79V34.33h3.64v.73H238v2.13h2.62Z"/><path class="cls-4" d="M241.88,40a3.08,3.08,0,0,0,1.56.44c.89,0,1.41-.47,1.41-1.15s-.36-1-1.27-1.34c-1.1-.39-1.78-1-1.78-1.91A1.94,1.94,0,0,1,244,34.22a3.06,3.06,0,0,1,1.49.33l-.24.71a2.68,2.68,0,0,0-1.28-.32c-.92,0-1.27.55-1.27,1,0,.63.41.94,1.34,1.3,1.14.44,1.72,1,1.72,2s-.77,1.94-2.36,1.94a3.48,3.48,0,0,1-1.72-.43Z"/><path class="cls-4" d="M248.21,35.07h-2.05v-.74h5v.74h-2.06v6h-.88Z"/><path class="cls-4" d="M255.39,37.91h-2.62v2.43h2.92v.73H251.9V34.33h3.64v.73h-2.77v2.13h2.62Z"/><path class="cls-4" d="M256.82,34.42a9.06,9.06,0,0,1,1.67-.14,2.76,2.76,0,0,1,1.95.55,1.68,1.68,0,0,1,.53,1.28,1.77,1.77,0,0,1-1.27,1.72v0a1.68,1.68,0,0,1,1,1.36,10.73,10.73,0,0,0,.52,1.85h-.9a8.73,8.73,0,0,1-.45-1.61c-.2-.93-.56-1.28-1.35-1.31h-.82v2.92h-.87Zm.87,3.07h.89c.93,0,1.52-.51,1.52-1.28S259.47,35,258.55,35a3.58,3.58,0,0,0-.86.08Z"/><path class="cls-4" d="M265.41,39l-.7,2.12h-.9l2.29-6.74h1l2.3,6.74h-.93L267.8,39Zm2.21-.68L267,36.33c-.15-.44-.25-.84-.35-1.23h0c-.1.4-.21.81-.34,1.22l-.66,2Z"/><path class="cls-4" d="M270.44,34.42a8.43,8.43,0,0,1,1.59-.14,2.79,2.79,0,0,1,1.85.49,1.41,1.41,0,0,1,.56,1.19,1.6,1.6,0,0,1-1.14,1.48v0a1.74,1.74,0,0,1,1.39,1.69,1.82,1.82,0,0,1-.57,1.35,3.39,3.39,0,0,1-2.33.63,10.17,10.17,0,0,1-1.35-.08Zm.87,2.76h.79c.92,0,1.46-.48,1.46-1.13S273,35,272.08,35a3.73,3.73,0,0,0-.77.06Zm0,3.23a4.65,4.65,0,0,0,.73,0c.9,0,1.73-.33,1.73-1.31s-.79-1.3-1.74-1.3h-.72Z"/><path class="cls-4" d="M275.86,34.42a9.06,9.06,0,0,1,1.67-.14,2.76,2.76,0,0,1,2,.55,1.68,1.68,0,0,1,.53,1.28,1.77,1.77,0,0,1-1.27,1.72v0a1.68,1.68,0,0,1,1,1.36,10.73,10.73,0,0,0,.52,1.85h-.9a8.73,8.73,0,0,1-.45-1.61c-.2-.93-.56-1.28-1.35-1.31h-.82v2.92h-.87Zm.87,3.07h.89c.93,0,1.52-.51,1.52-1.28S278.51,35,277.59,35a3.58,3.58,0,0,0-.86.08Z"/><path class="cls-4" d="M287,37.63c0,2.32-1.41,3.55-3.13,3.55s-3-1.38-3-3.42,1.33-3.54,3.13-3.54S287,35.63,287,37.63Zm-5.23.11c0,1.44.78,2.73,2.15,2.73s2.16-1.27,2.16-2.8c0-1.34-.7-2.74-2.15-2.74S281.8,36.26,281.8,37.74Z"/><path class="cls-4" d="M289.11,39l-.7,2.12h-.9l2.29-6.74h1.05l2.3,6.74h-.93L291.5,39Zm2.21-.68-.66-1.94c-.15-.44-.25-.84-.35-1.23h0c-.1.4-.21.81-.34,1.22l-.66,2Z"/><path class="cls-4" d="M294.14,34.42a12.46,12.46,0,0,1,1.85-.14,3.86,3.86,0,0,1,2.73.84,3.1,3.1,0,0,1,.95,2.42,3.56,3.56,0,0,1-1,2.62,4.15,4.15,0,0,1-3,1,14,14,0,0,1-1.58-.08Zm.87,6a5.49,5.49,0,0,0,.88,0,2.59,2.59,0,0,0,2.87-2.86A2.4,2.4,0,0,0,296,35a4.94,4.94,0,0,0-1,.09Z"/><path class="cls-4" d="M304,39l-.7,2.12h-.9l2.29-6.74h1.05l2.3,6.74h-.93L306.4,39Zm2.21-.68-.66-1.94c-.15-.44-.25-.84-.35-1.23h0c-.1.4-.21.81-.34,1.22l-.66,2Z"/><path class="cls-4" d="M309.55,35.07H307.5v-.74h5v.74h-2.06v6h-.88Z"/><path class="cls-4" d="M320.07,40.85a4.32,4.32,0,0,1-1.78.32A3.15,3.15,0,0,1,315,37.76a3.35,3.35,0,0,1,3.52-3.54,3.61,3.61,0,0,1,1.6.3l-.21.71a3.17,3.17,0,0,0-1.36-.28,2.51,2.51,0,0,0-2.63,2.78,2.45,2.45,0,0,0,2.59,2.71,3.48,3.48,0,0,0,1.42-.28Z"/><path class="cls-4" d="M322,34.33v6.74h-.87V34.33Z"/><path class="cls-4" d="M323.55,34.42a8.43,8.43,0,0,1,1.59-.14,2.79,2.79,0,0,1,1.85.49,1.41,1.41,0,0,1,.56,1.19,1.6,1.6,0,0,1-1.14,1.48v0a1.74,1.74,0,0,1,1.39,1.69,1.82,1.82,0,0,1-.57,1.35,3.39,3.39,0,0,1-2.33.63,10.17,10.17,0,0,1-1.35-.08Zm.87,2.76h.79c.92,0,1.46-.48,1.46-1.13s-.6-1.1-1.48-1.1a3.73,3.73,0,0,0-.77.06Zm0,3.23a4.65,4.65,0,0,0,.73,0c.9,0,1.73-.33,1.73-1.31s-.79-1.3-1.74-1.3h-.72Z"/><path class="cls-4" d="M329.84,34.33v4c0,1.51.67,2.15,1.57,2.15s1.64-.66,1.64-2.15v-4h.88v3.93c0,2.07-1.09,2.92-2.55,2.92S329,40.39,329,38.3v-4Z"/><path class="cls-4" d="M334.57,42.3a14.39,14.39,0,0,0,.6-2.39l1-.1a12.19,12.19,0,0,1-.95,2.43Z"/><path class="cls-4" d="M339.24,40a3.08,3.08,0,0,0,1.56.44c.89,0,1.41-.47,1.41-1.15s-.36-1-1.27-1.34c-1.1-.39-1.78-1-1.78-1.91a1.94,1.94,0,0,1,2.18-1.83,3.06,3.06,0,0,1,1.49.33l-.24.71a2.68,2.68,0,0,0-1.28-.32c-.92,0-1.27.55-1.27,1,0,.63.41.94,1.34,1.3,1.14.44,1.72,1,1.72,2s-.77,1.94-2.36,1.94a3.48,3.48,0,0,1-1.72-.43Z"/><path class="cls-4" d="M345.38,39l-.7,2.12h-.9l2.29-6.74h1.05l2.3,6.74h-.93L347.77,39Zm2.21-.68-.66-1.94c-.15-.44-.25-.84-.35-1.23h0c-.1.4-.21.81-.34,1.22l-.66,2Z"/><path class="cls-4" d="M350.41,41.07V34.33h.95l2.16,3.41a19.08,19.08,0,0,1,1.21,2.19h0c-.08-.9-.1-1.72-.1-2.77V34.33h.82v6.74h-.88l-2.14-3.42a21.39,21.39,0,0,1-1.26-2.25h0c0,.85.07,1.66.07,2.78v2.88Z"/><path class="cls-4" d="M359.11,34.42a12.46,12.46,0,0,1,1.85-.14,3.86,3.86,0,0,1,2.73.84,3.1,3.1,0,0,1,.95,2.42,3.56,3.56,0,0,1-1,2.62,4.15,4.15,0,0,1-3,1,14,14,0,0,1-1.58-.08Zm.87,6a5.49,5.49,0,0,0,.88,0,2.59,2.59,0,0,0,2.87-2.86A2.4,2.4,0,0,0,361,35a4.94,4.94,0,0,0-1,.09Z"/><path class="cls-4" d="M366.64,34.33v6.74h-.87V34.33Z"/><path class="cls-4" d="M371.65,37.91H369v2.43H372v.73h-3.79V34.33h3.64v.73H369v2.13h2.62Z"/><path class="cls-4" d="M378.21,40.77a6.28,6.28,0,0,1-2.07.37,3.17,3.17,0,0,1-3.46-3.4,3.38,3.38,0,0,1,3.65-3.48,4.17,4.17,0,0,1,1.68.31l-.21.71a3.49,3.49,0,0,0-1.49-.29,2.52,2.52,0,0,0-2.71,2.71,2.47,2.47,0,0,0,2.6,2.72,2.84,2.84,0,0,0,1.16-.18v-2H376v-.7h2.22Z"/><path class="cls-4" d="M385.3,37.63c0,2.32-1.41,3.55-3.13,3.55s-3-1.38-3-3.42,1.33-3.54,3.13-3.54S385.3,35.63,385.3,37.63Zm-5.23.11c0,1.44.78,2.73,2.15,2.73s2.16-1.27,2.16-2.8c0-1.34-.7-2.74-2.15-2.74S380.07,36.26,380.07,37.74Z"/><line class="cls-5" x1="464" x2="464" y2="104"/><rect class="cls-2" x="439" y="31" width="232" height="44" transform="translate(1110 106) rotate(-180)"/><line class="cls-3" x1="440.5" y1="32" x2="440.5" y2="106"/><path class="cls-4" d="M449.58,47.89l-1.05,3.18h-1.35L450.61,41h1.58l3.45,10.11h-1.4l-1.08-3.18Zm3.31-1-1-2.91c-.22-.66-.37-1.26-.52-1.85h0c-.15.6-.32,1.22-.51,1.83l-1,2.93Z"/><path class="cls-4" d="M458.43,41V51.07h-1.31V41Z"/><path class="cls-4" d="M460.71,41.09a14,14,0,0,1,2.5-.21,4.14,4.14,0,0,1,2.93.83,2.51,2.51,0,0,1,.79,1.92,2.66,2.66,0,0,1-1.9,2.58v0a2.52,2.52,0,0,1,1.48,2,16.2,16.2,0,0,0,.78,2.78h-1.35a13.49,13.49,0,0,1-.67-2.42c-.3-1.39-.84-1.92-2-2H462v4.38h-1.3ZM462,45.7h1.34c1.39,0,2.28-.77,2.28-1.92,0-1.31-.95-1.88-2.33-1.89A5.37,5.37,0,0,0,462,42Z"/><path class="cls-4" d="M468.78,41h5.44v1.09h-4.14v3.36h3.83v1.08h-3.83v4.58h-1.3Z"/><path class="cls-4" d="M476.08,41.09a14.1,14.1,0,0,1,2.51-.21,4.13,4.13,0,0,1,2.92.83,2.52,2.52,0,0,1,.8,1.92,2.66,2.66,0,0,1-1.91,2.58v0a2.52,2.52,0,0,1,1.49,2,16.2,16.2,0,0,0,.78,2.78h-1.35a13.18,13.18,0,0,1-.68-2.42c-.3-1.39-.84-1.92-2-2h-1.23v4.38h-1.31Zm1.31,4.61h1.33c1.4,0,2.28-.77,2.28-1.92,0-1.31-.94-1.88-2.32-1.89a5.37,5.37,0,0,0-1.29.12Z"/><path class="cls-4" d="M489.39,46.33h-3.93V50h4.38v1.1h-5.69V41h5.46v1.09h-4.15v3.2h3.93Z"/><path class="cls-4" d="M492.84,41V51.07h-1.31V41Z"/><path class="cls-4" d="M502.81,50.62a9.41,9.41,0,0,1-3.1.55,4.74,4.74,0,0,1-5.19-5.1c0-3,2.08-5.22,5.47-5.22a6.21,6.21,0,0,1,2.52.47l-.31,1.06A5.28,5.28,0,0,0,500,42,3.78,3.78,0,0,0,495.9,46c0,2.57,1.54,4.08,3.9,4.08a4.27,4.27,0,0,0,1.74-.27v-3h-2.06V45.76h3.33Z"/><path class="cls-4" d="M506.11,41v4.23H511V41h1.32V51.07H511V46.33h-4.89v4.74h-1.3V41Z"/><path class="cls-4" d="M516.51,42.07h-3.08V41h7.49v1.11h-3.09v9h-1.32Z"/><path class="cls-4" d="M525.22,41h5.45v1.09h-4.14v3.36h3.82v1.08h-3.82v4.58h-1.31Z"/><path class="cls-4" d="M541.17,45.91c0,3.48-2.12,5.32-4.7,5.32s-4.54-2.07-4.54-5.13c0-3.21,2-5.31,4.69-5.31S541.17,42.91,541.17,45.91Zm-7.85.16c0,2.16,1.17,4.1,3.23,4.1s3.24-1.91,3.24-4.2c0-2-1-4.11-3.23-4.11S533.32,43.85,533.32,46.07Z"/><path class="cls-4" d="M542.86,41.09a14.1,14.1,0,0,1,2.51-.21,4.13,4.13,0,0,1,2.92.83,2.52,2.52,0,0,1,.8,1.92,2.66,2.66,0,0,1-1.91,2.58v0a2.52,2.52,0,0,1,1.49,2,16.2,16.2,0,0,0,.78,2.78H548.1a13.18,13.18,0,0,1-.68-2.42c-.3-1.39-.84-1.92-2-2h-1.23v4.38h-1.31Zm1.31,4.61h1.33c1.4,0,2.28-.77,2.28-1.92,0-1.31-.94-1.88-2.32-1.89a5.37,5.37,0,0,0-1.29.12Z"/><path class="cls-4" d="M552.82,51.07,550.26,41h1.38l1.2,5.11c.3,1.26.57,2.52.75,3.5h0c.16-1,.48-2.21.82-3.51l1.35-5.1h1.37l1.23,5.13c.28,1.2.55,2.4.7,3.46h0c.21-1.11.5-2.23.81-3.49l1.34-5.1h1.33l-2.86,10.11h-1.37L557.1,45.8a28.21,28.21,0,0,1-.66-3.3h0a32.28,32.28,0,0,1-.78,3.3l-1.44,5.27Z"/><path class="cls-4" d="M564.64,47.89l-1,3.18h-1.35L565.68,41h1.57l3.45,10.11h-1.39l-1.08-3.18Zm3.32-1L567,44c-.23-.66-.38-1.26-.53-1.85h0c-.15.6-.31,1.22-.51,1.83l-1,2.93Z"/><path class="cls-4" d="M572.19,41.09a14,14,0,0,1,2.5-.21,4.14,4.14,0,0,1,2.93.83,2.51,2.51,0,0,1,.79,1.92,2.66,2.66,0,0,1-1.9,2.58v0a2.52,2.52,0,0,1,1.48,2,16.2,16.2,0,0,0,.78,2.78h-1.35a13.49,13.49,0,0,1-.67-2.42c-.3-1.39-.84-1.92-2-2h-1.23v4.38h-1.3Zm1.3,4.61h1.34c1.39,0,2.28-.77,2.28-1.92,0-1.31-1-1.88-2.33-1.89a5.37,5.37,0,0,0-1.29.12Z"/><path class="cls-4" d="M580.26,41.09a18.62,18.62,0,0,1,2.77-.21,5.83,5.83,0,0,1,4.1,1.26,4.67,4.67,0,0,1,1.42,3.63,5.36,5.36,0,0,1-1.45,3.93,6.22,6.22,0,0,1-4.47,1.46,22.32,22.32,0,0,1-2.37-.12Zm1.3,8.94a8.17,8.17,0,0,0,1.32.08c2.79,0,4.31-1.56,4.31-4.29,0-2.39-1.34-3.9-4.1-3.9a8,8,0,0,0-1.53.13Z"/><path class="cls-4" d="M595.48,46.33h-3.93V50h4.38v1.1h-5.68V41h5.46v1.09h-4.16v3.2h3.93Z"/><path class="cls-4" d="M597.63,41.09a14,14,0,0,1,2.5-.21,4.14,4.14,0,0,1,2.93.83,2.51,2.51,0,0,1,.79,1.92,2.66,2.66,0,0,1-1.9,2.58v0a2.52,2.52,0,0,1,1.48,2,16.2,16.2,0,0,0,.78,2.78h-1.35a13.49,13.49,0,0,1-.67-2.42c-.3-1.39-.84-1.92-2-2h-1.23v4.38h-1.3Zm1.3,4.61h1.34c1.39,0,2.28-.77,2.28-1.92,0-1.31-.95-1.88-2.33-1.89a5.37,5.37,0,0,0-1.29.12Z"/><path class="cls-4" d="M610.18,42.07h-3.07V41h7.48v1.11H611.5v9h-1.32Z"/><path class="cls-4" d="M615.72,41.09a14,14,0,0,1,2.5-.21,4.14,4.14,0,0,1,2.93.83,2.51,2.51,0,0,1,.79,1.92,2.66,2.66,0,0,1-1.9,2.58v0a2.52,2.52,0,0,1,1.48,2,16.2,16.2,0,0,0,.78,2.78H621a13.49,13.49,0,0,1-.67-2.42c-.3-1.39-.84-1.92-2-2H617v4.38h-1.3ZM617,45.7h1.34c1.39,0,2.28-.77,2.28-1.92,0-1.31-.95-1.88-2.33-1.89A5.37,5.37,0,0,0,617,42Z"/><path class="cls-4" d="M625.5,47.89l-1,3.18H623.1L626.53,41h1.58l3.45,10.11h-1.4l-1.08-3.18Zm3.31-1-1-2.91c-.22-.66-.37-1.26-.52-1.85h0c-.15.6-.32,1.22-.51,1.83l-1,2.93Z"/><path class="cls-4" d="M633,51.07V41h1.43l3.24,5.11a28.57,28.57,0,0,1,1.81,3.29l0,0c-.12-1.35-.15-2.58-.15-4.15V41h1.23V51.07h-1.32l-3.21-5.13a33.07,33.07,0,0,1-1.89-3.38l0,0c.07,1.27.1,2.49.1,4.17v4.32Z"/><path class="cls-4" d="M644.22,41V51.07h-1.31V41Z"/><path class="cls-4" d="M651.73,46.33H647.8V50h4.38v1.1H646.5V41H652v1.09H647.8v3.2h3.93Z"/><path class="cls-4" d="M659.11,46.33h-3.93V50h4.38v1.1h-5.68V41h5.46v1.09h-4.16v3.2h3.93Z"/><path class="cls-4" d="M447.56,61.33h.87v3.25h0c.18-.26.36-.5.53-.72l2.06-2.53h1.08l-2.44,2.86,2.63,3.88h-1l-2.22-3.31-.64.74v2.57h-.87Z"/><path class="cls-4" d="M453.85,61.33v4c0,1.51.67,2.15,1.57,2.15s1.64-.66,1.64-2.15v-4h.88v3.93c0,2.07-1.09,2.92-2.55,2.92S453,67.39,453,65.3v-4Z"/><path class="cls-4" d="M462.94,64.91h-2.62v2.43h2.92v.73h-3.79V61.33h3.64v.73h-2.77v2.13h2.62Z"/><path class="cls-4" d="M465.24,61.33v2.82h3.26V61.33h.88v6.74h-.88V64.91h-3.26v3.16h-.87V61.33Z"/><path class="cls-4" d="M470.89,68.07V61.33h.95L474,64.74a19.08,19.08,0,0,1,1.21,2.19h0c-.08-.9-.1-1.72-.1-2.77V61.33H476v6.74h-.88l-2.14-3.42a21.39,21.39,0,0,1-1.26-2.25h0c.05.85.07,1.66.07,2.78v2.88Z"/><path class="cls-4" d="M481,64.91h-2.62v2.43h2.92v.73h-3.79V61.33h3.64v.73h-2.77v2.13H481Z"/><path class="cls-4" d="M487.05,62.75V65.1h2.26v.6h-2.26v2.37h-.64V65.7h-2.26v-.6h2.26V62.75Z"/><path class="cls-4" d="M492.59,68.07V61.33h1l2.16,3.41a19.08,19.08,0,0,1,1.21,2.19h0c-.08-.9-.1-1.72-.1-2.77V61.33h.82v6.74h-.88l-2.14-3.42a21.39,21.39,0,0,1-1.26-2.25h0c.05.85.07,1.66.07,2.78v2.88Z"/><path class="cls-4" d="M500.26,66l-.7,2.12h-.9L501,61.33H502l2.3,6.74h-.93L502.65,66Zm2.21-.68-.66-1.94c-.15-.44-.25-.84-.35-1.23h0c-.1.4-.21.81-.34,1.22l-.66,1.95Z"/><path class="cls-4" d="M510.27,67.77a6.28,6.28,0,0,1-2.07.37,3.17,3.17,0,0,1-3.46-3.4,3.38,3.38,0,0,1,3.65-3.48,4.17,4.17,0,0,1,1.68.31l-.21.71a3.49,3.49,0,0,0-1.49-.29,2.52,2.52,0,0,0-2.71,2.71,2.47,2.47,0,0,0,2.6,2.72,2.84,2.84,0,0,0,1.16-.18v-2h-1.37v-.7h2.22Z"/><path class="cls-4" d="M515.09,64.91h-2.62v2.43h2.92v.73H511.6V61.33h3.64v.73h-2.77v2.13h2.62Z"/><path class="cls-4" d="M516.52,61.33h.87v6h2.88v.73h-3.75Z"/><path class="cls-4" d="M520.64,69.3a14.39,14.39,0,0,0,.6-2.39l1-.1a12.19,12.19,0,0,1-1,2.43Z"/><path class="cls-4" d="M525.43,61.33h.87v3.25h0c.18-.26.36-.5.53-.72l2.06-2.53H530l-2.44,2.86,2.63,3.88h-1l-2.22-3.31-.64.74v2.57h-.87Z"/><path class="cls-4" d="M532,66l-.7,2.12h-.9l2.29-6.74h1l2.3,6.74h-.93L534.43,66Zm2.21-.68-.66-1.94c-.15-.44-.25-.84-.35-1.23h0c-.1.4-.21.81-.34,1.22l-.66,1.95Z"/><path class="cls-4" d="M537,67a3.08,3.08,0,0,0,1.56.44c.89,0,1.41-.47,1.41-1.15s-.36-1-1.27-1.34c-1.1-.39-1.78-1-1.78-1.91a1.94,1.94,0,0,1,2.18-1.83,3.06,3.06,0,0,1,1.49.33l-.24.71a2.68,2.68,0,0,0-1.28-.32c-.92,0-1.27.55-1.27,1,0,.63.41.94,1.34,1.3,1.14.44,1.72,1,1.72,2s-.77,1.94-2.36,1.94a3.48,3.48,0,0,1-1.72-.43Z"/><path class="cls-4" d="M543.28,62.07h-2v-.74h5v.74h-2.06v6h-.88Z"/><path class="cls-4" d="M547,61.42a9.06,9.06,0,0,1,1.67-.14,2.76,2.76,0,0,1,2,.55,1.68,1.68,0,0,1,.53,1.28,1.77,1.77,0,0,1-1.27,1.72v0a1.68,1.68,0,0,1,1,1.36,10.73,10.73,0,0,0,.52,1.85h-.9a8.73,8.73,0,0,1-.45-1.61c-.2-.93-.56-1.28-1.35-1.31h-.82v2.92H547Zm.87,3.07h.89c.93,0,1.52-.51,1.52-1.28S549.62,62,548.7,62a3.58,3.58,0,0,0-.86.08Z"/><path class="cls-4" d="M553.22,61.33v4c0,1.51.67,2.15,1.57,2.15s1.64-.66,1.64-2.15v-4h.88v3.93c0,2.07-1.09,2.92-2.55,2.92s-2.42-.79-2.42-2.88v-4Z"/><path class="cls-4" d="M558.82,61.41a10.08,10.08,0,0,1,1.67-.13,2.77,2.77,0,0,1,1.89.56,1.81,1.81,0,0,1,.59,1.41,2,2,0,0,1-.52,1.44,2.79,2.79,0,0,1-2.06.74,3,3,0,0,1-.7-.06v2.7h-.87Zm.87,3.25a2.92,2.92,0,0,0,.72.07c1.05,0,1.69-.51,1.69-1.44S561.47,62,560.51,62a3.65,3.65,0,0,0-.82.07Z"/><path class="cls-4" d="M567.35,66l-.7,2.12h-.9L568,61.33h1.05l2.3,6.74h-.93L569.74,66Zm2.21-.68-.66-1.94c-.15-.44-.25-.84-.35-1.23h0c-.1.4-.21.81-.34,1.22l-.66,1.95Z"/><path class="cls-4" d="M573.25,61.33v6.74h-.87V61.33Z"/><path class="cls-4" d="M574.77,61.42a9.06,9.06,0,0,1,1.67-.14,2.76,2.76,0,0,1,1.95.55,1.68,1.68,0,0,1,.53,1.28,1.77,1.77,0,0,1-1.27,1.72v0a1.68,1.68,0,0,1,1,1.36,10.73,10.73,0,0,0,.52,1.85h-.9a8.73,8.73,0,0,1-.45-1.61c-.2-.93-.56-1.28-1.35-1.31h-.82v2.92h-.87Zm.87,3.07h.89c.93,0,1.52-.51,1.52-1.28S577.42,62,576.5,62a3.58,3.58,0,0,0-.86.08Z"/><path class="cls-4" d="M580.15,61.41a10.08,10.08,0,0,1,1.67-.13,2.77,2.77,0,0,1,1.89.56,1.81,1.81,0,0,1,.59,1.41,2,2,0,0,1-.52,1.44,2.79,2.79,0,0,1-2.06.74,3,3,0,0,1-.7-.06v2.7h-.87Zm.87,3.25a2.92,2.92,0,0,0,.72.07c1,0,1.69-.51,1.69-1.44S582.8,62,581.84,62A3.65,3.65,0,0,0,581,62Z"/><path class="cls-4" d="M591.23,64.63c0,2.32-1.41,3.55-3.13,3.55s-3-1.38-3-3.42,1.33-3.54,3.13-3.54S591.23,62.63,591.23,64.63Zm-5.23.11c0,1.44.78,2.73,2.15,2.73s2.16-1.27,2.16-2.8c0-1.34-.7-2.74-2.15-2.74S586,63.26,586,64.74Z"/><path class="cls-4" d="M592.36,61.42a9.06,9.06,0,0,1,1.67-.14,2.76,2.76,0,0,1,2,.55,1.68,1.68,0,0,1,.53,1.28,1.77,1.77,0,0,1-1.27,1.72v0a1.68,1.68,0,0,1,1,1.36,10.73,10.73,0,0,0,.52,1.85h-.9a8.73,8.73,0,0,1-.45-1.61c-.2-.93-.56-1.28-1.35-1.31h-.82v2.92h-.87Zm.87,3.07h.89c.93,0,1.52-.51,1.52-1.28S595,62,594.09,62a3.58,3.58,0,0,0-.86.08Z"/><path class="cls-4" d="M599.11,62.07h-2.05v-.74h5v.74H600v6h-.88Z"/><rect class="cls-2" x="462" y="106" width="195" height="44"/><line class="cls-3" x1="655.5" y1="131" x2="655.5" y2="238"/><path class="cls-4" d="M469.33,113.09a18.76,18.76,0,0,1,2.78-.21,5.84,5.84,0,0,1,4.1,1.26,4.7,4.7,0,0,1,1.42,3.63,5.33,5.33,0,0,1-1.46,3.93,6.18,6.18,0,0,1-4.46,1.46,22.52,22.52,0,0,1-2.38-.12Zm1.31,8.94a8.17,8.17,0,0,0,1.32.08c2.79,0,4.3-1.56,4.3-4.29,0-2.39-1.33-3.9-4.09-3.9a7.78,7.78,0,0,0-1.53.13Z"/><path class="cls-4" d="M484.56,118.33h-3.93V122H485v1.1h-5.69V113h5.46v1.09h-4.15v3.2h3.93Z"/><path class="cls-4" d="M486.52,121.48a4.64,4.64,0,0,0,2.34.66c1.34,0,2.12-.71,2.12-1.73s-.54-1.48-1.91-2c-1.65-.58-2.67-1.44-2.67-2.86,0-1.58,1.31-2.75,3.27-2.75a4.54,4.54,0,0,1,2.24.5l-.36,1.06a4,4,0,0,0-1.92-.48c-1.38,0-1.91.83-1.91,1.52,0,.94.62,1.41,2,2,1.71.66,2.58,1.48,2.58,3s-1.15,2.91-3.54,2.91a5.24,5.24,0,0,1-2.58-.65Z"/><path class="cls-4" d="M495.4,113v10.11h-1.3V113Z"/><path class="cls-4" d="M505.38,122.62a9.48,9.48,0,0,1-3.11.55,4.74,4.74,0,0,1-5.19-5.1c0-3,2.09-5.22,5.48-5.22a6.25,6.25,0,0,1,2.52.47l-.32,1.06a5.22,5.22,0,0,0-2.23-.43,3.78,3.78,0,0,0-4.07,4.06c0,2.57,1.55,4.08,3.9,4.08a4.24,4.24,0,0,0,1.74-.27v-3h-2.05v-1h3.33Z"/><path class="cls-4" d="M507.38,123.07V113h1.42l3.24,5.11a28.57,28.57,0,0,1,1.81,3.29l0,0c-.12-1.35-.15-2.58-.15-4.15V113H515v10.11h-1.32l-3.21-5.13a33.07,33.07,0,0,1-1.89-3.38l0,0c.07,1.27.1,2.49.1,4.17v4.32Z"/><path class="cls-4" d="M526.75,123.07l-.94-1a4.15,4.15,0,0,1-3,1.15,2.86,2.86,0,0,1-3.1-2.83,3.32,3.32,0,0,1,2-3v0a3.46,3.46,0,0,1-.84-2.12,2.45,2.45,0,0,1,2.56-2.49,2.11,2.11,0,0,1,2.24,2.15c0,1.06-.62,1.9-2.22,2.7v0c.85,1,1.81,2.1,2.46,2.82a7.39,7.39,0,0,0,1-3h1.2a7.65,7.65,0,0,1-1.45,3.73c.54.57,1.06,1.14,1.66,1.79Zm-1.59-1.74c-.6-.66-1.72-1.89-2.85-3.18a2.47,2.47,0,0,0-1.3,2,2,2,0,0,0,2.07,2A2.83,2.83,0,0,0,525.16,121.33Zm-3.07-6.17a2.87,2.87,0,0,0,.76,1.82c1-.59,1.68-1.13,1.68-2a1.19,1.19,0,0,0-1.17-1.31A1.31,1.31,0,0,0,522.09,115.16Z"/><path class="cls-4" d="M540.37,122.62a9.41,9.41,0,0,1-3.1.55,4.74,4.74,0,0,1-5.19-5.1c0-3,2.08-5.22,5.47-5.22a6.21,6.21,0,0,1,2.52.47l-.31,1.06a5.28,5.28,0,0,0-2.24-.43,3.78,3.78,0,0,0-4.06,4.06c0,2.57,1.54,4.08,3.9,4.08a4.27,4.27,0,0,0,1.74-.27v-3H537v-1h3.33Z"/><path class="cls-4" d="M542.37,113.09a14,14,0,0,1,2.5-.21,4.14,4.14,0,0,1,2.93.83,2.51,2.51,0,0,1,.79,1.92,2.66,2.66,0,0,1-1.9,2.58v0a2.52,2.52,0,0,1,1.48,2,16.2,16.2,0,0,0,.78,2.78H547.6a13.49,13.49,0,0,1-.67-2.42c-.3-1.39-.84-1.92-2-2h-1.23v4.38h-1.3Zm1.3,4.61H545c1.39,0,2.28-.77,2.28-1.92,0-1.31-.95-1.88-2.33-1.89a5.37,5.37,0,0,0-1.29.12Z"/><path class="cls-4" d="M552.15,119.89l-1,3.18h-1.35L553.18,113h1.58l3.45,10.11h-1.4l-1.08-3.18Zm3.31-1-1-2.91c-.22-.66-.37-1.26-.52-1.85h0c-.15.6-.32,1.22-.51,1.83l-1,2.93Z"/><path class="cls-4" d="M559.69,113.08a14.58,14.58,0,0,1,2.51-.2,4.14,4.14,0,0,1,2.83.84,2.72,2.72,0,0,1,.89,2.12,3,3,0,0,1-.78,2.16,4.22,4.22,0,0,1-3.09,1.11,4.78,4.78,0,0,1-1-.09v4h-1.31ZM561,118a4.07,4.07,0,0,0,1.08.11c1.57,0,2.53-.77,2.53-2.16s-.94-2-2.38-2a5.52,5.52,0,0,0-1.23.1Z"/><path class="cls-4" d="M569,113v4.23h4.89V113h1.32v10.11h-1.32v-4.74H569v4.74h-1.31V113Z"/><path class="cls-4" d="M578.76,113v10.11h-1.31V113Z"/><path class="cls-4" d="M588.1,122.74a6.48,6.48,0,0,1-2.67.48,4.72,4.72,0,0,1-5-5.12,5,5,0,0,1,5.28-5.31,5.44,5.44,0,0,1,2.4.45l-.32,1.07a4.74,4.74,0,0,0-2-.42c-2.37,0-3.94,1.51-3.94,4.17,0,2.47,1.42,4.06,3.88,4.06a5.11,5.11,0,0,0,2.13-.42Z"/><path class="cls-4" d="M592.92,113.09a18.62,18.62,0,0,1,2.77-.21,5.83,5.83,0,0,1,4.1,1.26,4.67,4.67,0,0,1,1.42,3.63,5.36,5.36,0,0,1-1.45,3.93,6.22,6.22,0,0,1-4.47,1.46,22.32,22.32,0,0,1-2.37-.12Zm1.3,8.94a8.17,8.17,0,0,0,1.32.08c2.79,0,4.31-1.56,4.31-4.29,0-2.39-1.34-3.9-4.1-3.9a8,8,0,0,0-1.53.13Z"/><path class="cls-4" d="M608.14,118.33h-3.93V122h4.38v1.1h-5.68V113h5.46v1.09h-4.16v3.2h3.93Z"/><path class="cls-4" d="M610.11,121.48a4.61,4.61,0,0,0,2.34.66c1.33,0,2.11-.71,2.11-1.73s-.54-1.48-1.9-2C611,117.82,610,117,610,115.54c0-1.58,1.3-2.75,3.27-2.75a4.52,4.52,0,0,1,2.23.5l-.36,1.06a4,4,0,0,0-1.92-.48c-1.38,0-1.9.83-1.9,1.52,0,.94.61,1.41,2,2,1.71.66,2.58,1.48,2.58,3s-1.16,2.91-3.54,2.91a5.21,5.21,0,0,1-2.58-.65Z"/><path class="cls-4" d="M619,113v10.11h-1.31V113Z"/><path class="cls-4" d="M629,122.62a9.41,9.41,0,0,1-3.1.55,4.74,4.74,0,0,1-5.19-5.1c0-3,2.08-5.22,5.47-5.22a6.21,6.21,0,0,1,2.52.47l-.31,1.06a5.28,5.28,0,0,0-2.24-.43,3.78,3.78,0,0,0-4.06,4.06c0,2.57,1.54,4.08,3.9,4.08a4.27,4.27,0,0,0,1.74-.27v-3h-2.06v-1H629Z"/><path class="cls-4" d="M631,123.07V113h1.42l3.24,5.11a28.75,28.75,0,0,1,1.82,3.29l0,0c-.12-1.35-.15-2.58-.15-4.15V113h1.23v10.11h-1.32L634,117.94a31.27,31.27,0,0,1-1.89-3.38l0,0c.08,1.27.11,2.49.11,4.17v4.32Z"/><path class="cls-4" d="M469,133.33h.86v3.25h0c.18-.26.36-.5.53-.72l2.06-2.53h1.08l-2.44,2.86,2.63,3.88h-1l-2.22-3.31-.64.74v2.57H469Z"/><path class="cls-4" d="M474.38,133.42a8.87,8.87,0,0,1,1.66-.14,2.76,2.76,0,0,1,1.95.55,1.68,1.68,0,0,1,.53,1.28,1.77,1.77,0,0,1-1.27,1.72v0a1.68,1.68,0,0,1,1,1.36,10.73,10.73,0,0,0,.52,1.85h-.9a8.73,8.73,0,0,1-.45-1.61c-.2-.93-.56-1.28-1.35-1.31h-.82v2.92h-.86Zm.86,3.07h.89c.93,0,1.52-.51,1.52-1.28S477,134,476.1,134a3.58,3.58,0,0,0-.86.08Z"/><path class="cls-4" d="M480.89,138l-.7,2.12h-.9l2.29-6.74h1.05l2.3,6.74H484l-.72-2.12Zm2.21-.68-.66-1.94c-.15-.44-.25-.84-.35-1.23h0c-.1.4-.21.81-.34,1.22l-.66,2Z"/><path class="cls-4" d="M485.92,133.42a8.43,8.43,0,0,1,1.59-.14,2.79,2.79,0,0,1,1.85.49,1.41,1.41,0,0,1,.56,1.19,1.6,1.6,0,0,1-1.14,1.48v0a1.74,1.74,0,0,1,1.39,1.69,1.82,1.82,0,0,1-.57,1.35,3.39,3.39,0,0,1-2.33.63,10.17,10.17,0,0,1-1.35-.08Zm.87,2.76h.79c.92,0,1.46-.48,1.46-1.13s-.6-1.1-1.48-1.1a3.73,3.73,0,0,0-.77.06Zm0,3.23a4.65,4.65,0,0,0,.73,0c.9,0,1.73-.33,1.73-1.31s-.79-1.3-1.74-1.3h-.72Z"/><path class="cls-4" d="M491.34,133.42a8.43,8.43,0,0,1,1.59-.14,2.79,2.79,0,0,1,1.85.49,1.41,1.41,0,0,1,.56,1.19,1.6,1.6,0,0,1-1.14,1.48v0a1.74,1.74,0,0,1,1.39,1.69,1.82,1.82,0,0,1-.57,1.35,3.39,3.39,0,0,1-2.33.63,10.17,10.17,0,0,1-1.35-.08Zm.87,2.76H493c.92,0,1.46-.48,1.46-1.13s-.6-1.1-1.48-1.1a3.73,3.73,0,0,0-.77.06Zm0,3.23a4.65,4.65,0,0,0,.73,0c.9,0,1.73-.33,1.73-1.31s-.79-1.3-1.74-1.3h-.72Z"/><path class="cls-4" d="M500.25,136.91h-2.62v2.43h2.92v.73h-3.79v-6.74h3.64v.73h-2.77v2.13h2.62Z"/><path class="cls-4" d="M501.56,139a3.08,3.08,0,0,0,1.56.44c.89,0,1.41-.47,1.41-1.15s-.36-1-1.27-1.34c-1.1-.39-1.78-1-1.78-1.91a1.94,1.94,0,0,1,2.18-1.83,3.06,3.06,0,0,1,1.49.33l-.24.71a2.68,2.68,0,0,0-1.28-.32c-.92,0-1.27.55-1.27,1,0,.63.41.94,1.34,1.3,1.14.44,1.72,1,1.72,2s-.77,1.94-2.36,1.94a3.48,3.48,0,0,1-1.72-.43Z"/><path class="cls-4" d="M507.48,133.33v2.82h3.26v-2.82h.88v6.74h-.88v-3.16h-3.26v3.16h-.87v-6.74Z"/><path class="cls-4" d="M518.89,136.63c0,2.32-1.41,3.55-3.13,3.55s-3-1.38-3-3.42,1.33-3.54,3.13-3.54S518.89,134.63,518.89,136.63Zm-5.23.11c0,1.44.78,2.73,2.15,2.73s2.16-1.27,2.16-2.8c0-1.34-.7-2.74-2.15-2.74S513.66,135.26,513.66,136.74Z"/><path class="cls-4" d="M520,133.33h.87v6h2.88v.73H520Z"/><path class="cls-4" d="M530.42,137.11c0-.94-.11-2.07-.1-2.91h0c-.23.79-.51,1.63-.85,2.56L528.25,140h-.66l-1.09-3.21c-.32-.95-.59-1.82-.78-2.62h0c0,.84-.07,2-.13,3l-.18,2.89h-.83l.47-6.74h1.11l1.15,3.26c.28.83.51,1.57.68,2.27h0c.17-.68.41-1.42.71-2.27l1.2-3.26H531l.42,6.74h-.85Z"/><path class="cls-4" d="M535.77,133.33v2.82H539v-2.82h.88v6.74H539v-3.16h-3.26v3.16h-.87v-6.74Z"/><path class="cls-4" d="M541.29,140.11l.62-.88a3.64,3.64,0,0,1-.89-2.49c0-2.13,1.35-3.52,3.11-3.52a2.82,2.82,0,0,1,1.68.53l.59-.81.53.36-.62.86a3.63,3.63,0,0,1,.87,2.48c0,2.35-1.45,3.54-3.06,3.54a2.88,2.88,0,0,1-1.71-.54l-.63.86Zm4.09-5.72a1.9,1.9,0,0,0-1.26-.47c-1.47,0-2.21,1.36-2.21,2.77a3.41,3.41,0,0,0,.5,1.81h0ZM542.84,139a1.73,1.73,0,0,0,1.26.48c1.41,0,2.19-1.29,2.19-2.81a3.3,3.3,0,0,0-.47-1.75h0Z"/><path class="cls-4" d="M549.69,133.33h.87v4.51c0,1.79-.88,2.34-2,2.34a2.82,2.82,0,0,1-.93-.16l.13-.71a2.08,2.08,0,0,0,.73.13c.78,0,1.24-.35,1.24-1.67Z"/><path class="cls-4" d="M551.89,139a3.08,3.08,0,0,0,1.56.44c.89,0,1.41-.47,1.41-1.15s-.36-1-1.27-1.34c-1.1-.39-1.78-1-1.78-1.91a1.94,1.94,0,0,1,2.18-1.83,3.06,3.06,0,0,1,1.49.33l-.24.71a2.68,2.68,0,0,0-1.28-.32c-.92,0-1.27.55-1.27,1,0,.63.41.94,1.34,1.3,1.14.44,1.72,1,1.72,2s-.77,1.94-2.36,1.94a3.48,3.48,0,0,1-1.72-.43Z"/><path class="cls-4" d="M556.94,133.33h.87v3.25h0c.18-.26.36-.5.53-.72l2.06-2.53h1.08l-2.44,2.86,2.63,3.88h-1l-2.22-3.31-.64.74v2.57h-.87Z"/><path class="cls-4" d="M568,136.63c0,2.32-1.41,3.55-3.13,3.55s-3-1.38-3-3.42,1.33-3.54,3.13-3.54S568,134.63,568,136.63Zm-5.23.11c0,1.44.78,2.73,2.15,2.73s2.16-1.27,2.16-2.8c0-1.34-.7-2.74-2.15-2.74S562.72,135.26,562.72,136.74Z"/><path class="cls-4" d="M569.08,133.33H570v6h2.88v.73h-3.75Z"/><path class="cls-4" d="M577.29,136.91h-2.62v2.43h2.92v.73H573.8v-6.74h3.64v.73h-2.77v2.13h2.62Z"/><line class="cls-3" x1="85.5" y1="164" x2="85.5" y2="271"/><rect class="cls-2" x="84" y="131" width="239" height="44"/><path class="cls-4" d="M92.64,138v10.11H91.33V138Z"/><path class="cls-4" d="M94.92,148.07V138h1.42l3.24,5.11a28.75,28.75,0,0,1,1.82,3.29l0,0c-.12-1.35-.15-2.58-.15-4.15V138h1.23v10.11h-1.32L98,142.94a31.27,31.27,0,0,1-1.89-3.38l0,0c.08,1.27.11,2.49.11,4.17v4.32Z"/><path class="cls-4" d="M106.71,139.07h-3.08V138h7.49v1.11H108v9h-1.32Z"/><path class="cls-4" d="M117.48,143.33h-3.93V147h4.38v1.1h-5.69V138h5.46v1.09h-4.15v3.2h3.93Z"/><path class="cls-4" d="M119.62,138.09a14.1,14.1,0,0,1,2.51-.21,4.13,4.13,0,0,1,2.92.83,2.52,2.52,0,0,1,.8,1.92,2.66,2.66,0,0,1-1.91,2.58v0a2.52,2.52,0,0,1,1.49,2,16.2,16.2,0,0,0,.78,2.78h-1.35a13.18,13.18,0,0,1-.68-2.42c-.3-1.39-.84-1.92-2-2h-1.23v4.38h-1.31Zm1.31,4.61h1.33c1.4,0,2.28-.77,2.28-1.92,0-1.31-.94-1.88-2.32-1.89a5.37,5.37,0,0,0-1.29.12Z"/><path class="cls-4" d="M134.8,147.74a6.48,6.48,0,0,1-2.67.48,4.72,4.72,0,0,1-5-5.12,5,5,0,0,1,5.28-5.31,5.44,5.44,0,0,1,2.4.45l-.32,1.07a4.74,4.74,0,0,0-2-.42c-2.37,0-3.94,1.51-3.94,4.17,0,2.47,1.42,4.06,3.88,4.06a5.11,5.11,0,0,0,2.13-.42Z"/><path class="cls-4" d="M137.74,138v6c0,2.27,1,3.23,2.36,3.23,1.5,0,2.46-1,2.46-3.23v-6h1.32v5.89c0,3.11-1.64,4.38-3.83,4.38s-3.63-1.18-3.63-4.32V138Z"/><path class="cls-4" d="M146.14,138h1.31v9h4.32v1.1h-5.63Z"/><path class="cls-4" d="M153.82,139.07h-3.07V138h7.48v1.11h-3.09v9h-1.32Z"/><path class="cls-4" d="M159.36,138.09a14,14,0,0,1,2.5-.21,4.14,4.14,0,0,1,2.93.83,2.51,2.51,0,0,1,.79,1.92,2.66,2.66,0,0,1-1.9,2.58v0a2.52,2.52,0,0,1,1.48,2,16.2,16.2,0,0,0,.78,2.78h-1.35a13.49,13.49,0,0,1-.67-2.42c-.3-1.39-.84-1.92-2-2h-1.23v4.38h-1.3Zm1.3,4.61H162c1.39,0,2.28-.77,2.28-1.92,0-1.31-.95-1.88-2.33-1.89a5.37,5.37,0,0,0-1.29.12Z"/><path class="cls-4" d="M168.73,138v6c0,2.27,1,3.23,2.36,3.23,1.5,0,2.46-1,2.46-3.23v-6h1.32v5.89c0,3.11-1.64,4.38-3.83,4.38s-3.63-1.18-3.63-4.32V138Z"/><path class="cls-4" d="M177.13,138.09a14.1,14.1,0,0,1,2.51-.21,4.13,4.13,0,0,1,2.92.83,2.52,2.52,0,0,1,.8,1.92,2.66,2.66,0,0,1-1.91,2.58v0a2.52,2.52,0,0,1,1.49,2,16.2,16.2,0,0,0,.78,2.78h-1.35a13.18,13.18,0,0,1-.68-2.42c-.3-1.39-.84-1.92-2-2h-1.23v4.38h-1.31Zm1.31,4.61h1.33c1.4,0,2.28-.77,2.28-1.92,0-1.31-.94-1.88-2.32-1.89a5.37,5.37,0,0,0-1.29.12Z"/><path class="cls-4" d="M186.91,144.89l-1,3.18h-1.35L188,138h1.57L193,148.07h-1.39l-1.08-3.18Zm3.32-1-1-2.91c-.23-.66-.38-1.26-.53-1.85h0c-.15.6-.31,1.22-.51,1.83l-1,2.93Z"/><path class="cls-4" d="M194.46,138h1.3v9h4.32v1.1h-5.62Z"/><path class="cls-4" d="M211.78,147.74a6.48,6.48,0,0,1-2.67.48,4.72,4.72,0,0,1-5-5.12,5,5,0,0,1,5.28-5.31,5.44,5.44,0,0,1,2.4.45l-.32,1.07a4.74,4.74,0,0,0-2-.42c-2.37,0-3.94,1.51-3.94,4.17,0,2.47,1.42,4.06,3.88,4.06a5.11,5.11,0,0,0,2.13-.42Z"/><path class="cls-4" d="M221.74,142.91c0,3.48-2.11,5.32-4.69,5.32s-4.55-2.07-4.55-5.13c0-3.21,2-5.31,4.7-5.31S221.74,139.91,221.74,142.91Zm-7.84.16c0,2.16,1.17,4.1,3.22,4.1s3.24-1.91,3.24-4.2c0-2-1.05-4.11-3.22-4.11S213.9,140.85,213.9,143.07Z"/><path class="cls-4" d="M232,143.63c-.08-1.41-.17-3.11-.15-4.37h-.05c-.34,1.19-.76,2.45-1.27,3.84L228.7,148h-1l-1.63-4.82c-.48-1.42-.89-2.73-1.17-3.93h0c0,1.26-.11,3-.2,4.47l-.27,4.34h-1.24l.7-10.11h1.67l1.72,4.89c.42,1.24.77,2.35,1,3.4h.05c.25-1,.61-2.13,1.06-3.4l1.8-4.89h1.67l.63,10.11h-1.28Z"/><path class="cls-4" d="M244,143.63c-.08-1.41-.17-3.11-.15-4.37h-.05c-.34,1.19-.76,2.45-1.27,3.84L240.76,148h-1l-1.63-4.82c-.48-1.42-.89-2.73-1.17-3.93h0c0,1.26-.11,3-.2,4.47l-.27,4.34h-1.24l.7-10.11h1.67l1.72,4.89c.42,1.24.77,2.35,1,3.4h0c.25-1,.61-2.13,1.06-3.4l1.8-4.89h1.67l.63,10.11h-1.28Z"/><path class="cls-4" d="M248.86,138v6c0,2.27,1,3.23,2.36,3.23,1.5,0,2.46-1,2.46-3.23v-6H255v5.89c0,3.11-1.64,4.38-3.83,4.38s-3.63-1.18-3.63-4.32V138Z"/><path class="cls-4" d="M257.26,148.07V138h1.43l3.24,5.11a28.57,28.57,0,0,1,1.81,3.29l0,0c-.12-1.35-.15-2.58-.15-4.15V138h1.23v10.11h-1.32l-3.21-5.13a33.07,33.07,0,0,1-1.89-3.38l0,0c.07,1.27.1,2.49.1,4.17v4.32Z"/><path class="cls-4" d="M268.44,138v10.11h-1.31V138Z"/><path class="cls-4" d="M277.78,147.74a6.48,6.48,0,0,1-2.67.48,4.72,4.72,0,0,1-5-5.12,5,5,0,0,1,5.28-5.31,5.44,5.44,0,0,1,2.4.45l-.32,1.07a4.74,4.74,0,0,0-2-.42c-2.37,0-3.94,1.51-3.94,4.17,0,2.47,1.42,4.06,3.88,4.06a5.11,5.11,0,0,0,2.13-.42Z"/><path class="cls-4" d="M281.11,144.89l-1.05,3.18h-1.35L282.15,138h1.57l3.45,10.11h-1.39l-1.08-3.18Zm3.32-1-1-2.91c-.23-.66-.38-1.26-.53-1.85h0c-.15.6-.31,1.22-.51,1.83l-1,2.93Z"/><path class="cls-4" d="M289.42,139.07h-3.07V138h7.48v1.11h-3.09v9h-1.32Z"/><path class="cls-4" d="M296.26,138v10.11H295V138Z"/><path class="cls-4" d="M307.18,142.91c0,3.48-2.11,5.32-4.69,5.32s-4.55-2.07-4.55-5.13c0-3.21,2-5.31,4.7-5.31S307.18,139.91,307.18,142.91Zm-7.84.16c0,2.16,1.17,4.1,3.22,4.1s3.24-1.91,3.24-4.2c0-2-1.05-4.11-3.22-4.11S299.34,140.85,299.34,143.07Z"/><path class="cls-4" d="M308.88,148.07V138h1.42l3.24,5.11a28.75,28.75,0,0,1,1.82,3.29l0,0c-.12-1.35-.15-2.58-.15-4.15V138h1.23v10.11h-1.32l-3.21-5.13a31.27,31.27,0,0,1-1.89-3.38l-.05,0c.08,1.27.11,2.49.11,4.17v4.32Z"/><path class="cls-4" d="M92,163l-.7,2.12h-.9l2.29-6.74h1l2.3,6.74h-.93L94.43,163Zm2.21-.68-.66-1.94c-.15-.44-.25-.84-.35-1.23h0c-.1.4-.21.81-.34,1.22l-.66,2Z"/><path class="cls-4" d="M101.63,164.85a4.32,4.32,0,0,1-1.78.32,3.15,3.15,0,0,1-3.33-3.41,3.35,3.35,0,0,1,3.52-3.54,3.61,3.61,0,0,1,1.6.3l-.21.71a3.17,3.17,0,0,0-1.36-.28,2.51,2.51,0,0,0-2.63,2.78,2.45,2.45,0,0,0,2.59,2.71,3.48,3.48,0,0,0,1.42-.28Z"/><path class="cls-4" d="M103.85,163l-.7,2.12h-.9l2.29-6.74h1l2.3,6.74H107l-.72-2.12Zm2.21-.68-.66-1.94c-.15-.44-.25-.84-.35-1.23h0c-.1.4-.21.81-.34,1.22l-.66,2Z"/><path class="cls-4" d="M108.88,158.42a12.46,12.46,0,0,1,1.85-.14,3.86,3.86,0,0,1,2.73.84,3.1,3.1,0,0,1,1,2.42,3.56,3.56,0,0,1-1,2.62,4.15,4.15,0,0,1-3,1,14,14,0,0,1-1.58-.08Zm.87,6a5.49,5.49,0,0,0,.88.05,2.59,2.59,0,0,0,2.87-2.86,2.4,2.4,0,0,0-2.73-2.6,4.94,4.94,0,0,0-1,.09Z"/><path class="cls-4" d="M119,161.91h-2.62v2.43h2.92v.73h-3.79v-6.74h3.64v.73h-2.77v2.13H119Z"/><path class="cls-4" d="M126.14,162.11c0-.94-.11-2.07-.1-2.91h0c-.23.79-.51,1.63-.85,2.56L124,165h-.66l-1.09-3.21c-.32-.95-.59-1.82-.78-2.62h0c0,.84-.07,2-.13,3l-.18,2.89h-.83l.47-6.74h1.11l1.15,3.26c.28.83.51,1.57.68,2.27h0c.17-.68.41-1.42.71-2.27l1.2-3.26h1.11l.42,6.74h-.85Z"/><path class="cls-4" d="M130,165.07v-2.86l-2.13-3.88h1l.95,1.86c.26.51.46.92.67,1.39h0c.19-.44.42-.88.68-1.39l1-1.86h1l-2.26,3.87v2.87Z"/><path class="cls-4" d="M140.74,164.85a4.32,4.32,0,0,1-1.78.32,3.15,3.15,0,0,1-3.33-3.41,3.35,3.35,0,0,1,3.52-3.54,3.61,3.61,0,0,1,1.6.3l-.21.71a3.17,3.17,0,0,0-1.36-.28,2.51,2.51,0,0,0-2.63,2.78,2.45,2.45,0,0,0,2.59,2.71,3.48,3.48,0,0,0,1.42-.28Z"/><path class="cls-4" d="M147.38,161.63c0,2.32-1.41,3.55-3.13,3.55s-3-1.38-3-3.42,1.33-3.54,3.13-3.54S147.38,159.63,147.38,161.63Zm-5.23.11c0,1.44.78,2.73,2.15,2.73s2.16-1.27,2.16-2.8c0-1.34-.7-2.74-2.15-2.74S142.15,160.26,142.15,161.74Z"/><path class="cls-4" d="M149.38,158.33v4c0,1.51.67,2.15,1.57,2.15s1.64-.66,1.64-2.15v-4h.88v3.93c0,2.07-1.09,2.92-2.55,2.92s-2.42-.79-2.42-2.88v-4Z"/><path class="cls-4" d="M155,158.42a9.06,9.06,0,0,1,1.67-.14,2.76,2.76,0,0,1,1.95.55,1.68,1.68,0,0,1,.53,1.28,1.77,1.77,0,0,1-1.27,1.72v0a1.68,1.68,0,0,1,1,1.36,10.73,10.73,0,0,0,.52,1.85h-.9a8.73,8.73,0,0,1-.45-1.61c-.2-.93-.56-1.28-1.35-1.31h-.82v2.92H155Zm.87,3.07h.89c.93,0,1.52-.51,1.52-1.28s-.63-1.25-1.55-1.26a3.58,3.58,0,0,0-.86.08Z"/><path class="cls-4" d="M160.24,164a3.08,3.08,0,0,0,1.56.44c.89,0,1.41-.47,1.41-1.15s-.36-1-1.27-1.34c-1.1-.39-1.78-1-1.78-1.91a1.94,1.94,0,0,1,2.18-1.83,3.06,3.06,0,0,1,1.49.33l-.24.71a2.68,2.68,0,0,0-1.28-.32c-.92,0-1.27.55-1.27,1,0,.63.41.94,1.34,1.3,1.14.44,1.72,1,1.72,2s-.77,1.94-2.36,1.94a3.48,3.48,0,0,1-1.72-.43Z"/><path class="cls-4" d="M168.78,161.91h-2.62v2.43h2.92v.73h-3.79v-6.74h3.64v.73h-2.77v2.13h2.62Z"/><path class="cls-4" d="M169.57,166.3a14.39,14.39,0,0,0,.6-2.39l1-.1a12.19,12.19,0,0,1-1,2.43Z"/><path class="cls-4" d="M179.07,164.85a4.32,4.32,0,0,1-1.78.32,3.15,3.15,0,0,1-3.33-3.41,3.35,3.35,0,0,1,3.52-3.54,3.61,3.61,0,0,1,1.6.3l-.21.71a3.17,3.17,0,0,0-1.36-.28,2.51,2.51,0,0,0-2.63,2.78,2.45,2.45,0,0,0,2.59,2.71,3.48,3.48,0,0,0,1.42-.28Z"/><path class="cls-4" d="M180.16,158.41a10.08,10.08,0,0,1,1.67-.13,2.77,2.77,0,0,1,1.89.56,1.81,1.81,0,0,1,.59,1.41,2,2,0,0,1-.52,1.44,2.79,2.79,0,0,1-2.06.74,3,3,0,0,1-.7-.06v2.7h-.87Zm.87,3.25a2.92,2.92,0,0,0,.72.07c1.05,0,1.69-.51,1.69-1.44s-.63-1.32-1.59-1.32a3.65,3.65,0,0,0-.82.07Z"/><path class="cls-4" d="M186.35,158.33v2.82h3.26v-2.82h.88v6.74h-.88v-3.16h-3.26v3.16h-.87v-6.74Z"/><path class="cls-4" d="M194.12,158.42a8.43,8.43,0,0,1,1.59-.14,2.79,2.79,0,0,1,1.85.49,1.41,1.41,0,0,1,.56,1.19,1.6,1.6,0,0,1-1.14,1.48v0a1.74,1.74,0,0,1,1.39,1.69,1.82,1.82,0,0,1-.57,1.35,3.39,3.39,0,0,1-2.33.63,10.17,10.17,0,0,1-1.35-.08Zm.87,2.76h.79c.92,0,1.46-.48,1.46-1.13s-.6-1.1-1.48-1.1a3.73,3.73,0,0,0-.77.06Zm0,3.23a4.65,4.65,0,0,0,.73,0c.9,0,1.73-.33,1.73-1.31s-.79-1.3-1.74-1.3H195Z"/><path class="cls-4" d="M200.41,158.33v4c0,1.51.67,2.15,1.57,2.15s1.64-.66,1.64-2.15v-4h.88v3.93c0,2.07-1.09,2.92-2.55,2.92s-2.42-.79-2.42-2.88v-4Z"/><path class="cls-4" d="M205.89,164a3.08,3.08,0,0,0,1.56.44c.89,0,1.41-.47,1.41-1.15s-.36-1-1.27-1.34c-1.1-.39-1.78-1-1.78-1.91a1.94,1.94,0,0,1,2.18-1.83,3.06,3.06,0,0,1,1.49.33l-.24.71a2.68,2.68,0,0,0-1.28-.32c-.92,0-1.27.55-1.27,1,0,.63.41.94,1.34,1.3,1.14.44,1.72,1,1.72,2s-.77,1.94-2.36,1.94a3.48,3.48,0,0,1-1.72-.43Z"/><path class="cls-4" d="M211.81,158.33v6.74h-.87v-6.74Z"/><path class="cls-4" d="M213.33,165.07v-6.74h.95l2.16,3.41a19.08,19.08,0,0,1,1.21,2.19h0c-.08-.9-.1-1.72-.1-2.77v-2.82h.82v6.74h-.88l-2.14-3.42a21.39,21.39,0,0,1-1.26-2.25h0c0,.85.07,1.66.07,2.78v2.88Z"/><path class="cls-4" d="M223.4,161.91h-2.62v2.43h2.92v.73h-3.79v-6.74h3.64v.73h-2.77v2.13h2.62Z"/><path class="cls-4" d="M224.71,164a3.08,3.08,0,0,0,1.56.44c.89,0,1.41-.47,1.41-1.15s-.36-1-1.27-1.34c-1.1-.39-1.78-1-1.78-1.91a1.94,1.94,0,0,1,2.18-1.83,3.06,3.06,0,0,1,1.49.33l-.24.71a2.68,2.68,0,0,0-1.28-.32c-.92,0-1.27.55-1.27,1,0,.63.41.94,1.34,1.3,1.14.44,1.72,1,1.72,2s-.77,1.94-2.36,1.94a3.48,3.48,0,0,1-1.72-.43Z"/><path class="cls-4" d="M229.64,164a3.08,3.08,0,0,0,1.56.44c.89,0,1.41-.47,1.41-1.15s-.36-1-1.27-1.34c-1.1-.39-1.78-1-1.78-1.91a1.94,1.94,0,0,1,2.18-1.83,3.06,3.06,0,0,1,1.49.33l-.24.71a2.68,2.68,0,0,0-1.28-.32c-.92,0-1.27.55-1.27,1,0,.63.41.94,1.34,1.3,1.14.44,1.72,1,1.72,2s-.77,1.94-2.36,1.94a3.48,3.48,0,0,1-1.72-.43Z"/><rect class="cls-2" x="388" y="157" width="127" height="44"/><line class="cls-3" x1="513.5" y1="180" x2="513.5" y2="303"/><path class="cls-4" d="M396.83,165.58a14.58,14.58,0,0,1,2.51-.2,4.14,4.14,0,0,1,2.83.84,2.72,2.72,0,0,1,.89,2.12,3,3,0,0,1-.78,2.16,4.22,4.22,0,0,1-3.09,1.11,4.78,4.78,0,0,1-1.05-.09v4h-1.31Zm1.31,4.87a4.12,4.12,0,0,0,1.08.11c1.57,0,2.53-.77,2.53-2.16s-.94-2-2.38-2a5.59,5.59,0,0,0-1.23.1Z"/><path class="cls-4" d="M404.81,165.59a14.1,14.1,0,0,1,2.51-.21,4.11,4.11,0,0,1,2.92.83,2.52,2.52,0,0,1,.8,1.92,2.66,2.66,0,0,1-1.91,2.58v0a2.52,2.52,0,0,1,1.49,2,16.2,16.2,0,0,0,.78,2.78h-1.35a12.65,12.65,0,0,1-.67-2.42c-.31-1.39-.84-1.92-2-2h-1.23v4.38h-1.31Zm1.31,4.61h1.34c1.39,0,2.27-.77,2.27-1.92,0-1.31-.94-1.88-2.32-1.89a5.37,5.37,0,0,0-1.29.12Z"/><path class="cls-4" d="M421.57,170.41c0,3.48-2.12,5.32-4.69,5.32s-4.55-2.07-4.55-5.13c0-3.21,2-5.31,4.69-5.31S421.57,167.41,421.57,170.41Zm-7.85.16c0,2.16,1.17,4.1,3.23,4.1s3.24-1.91,3.24-4.2c0-2-1.05-4.11-3.23-4.11S413.72,168.35,413.72,170.57Z"/><path class="cls-4" d="M431,175.12a9.48,9.48,0,0,1-3.11.55,4.74,4.74,0,0,1-5.19-5.1c0-3,2.09-5.22,5.48-5.22a6.25,6.25,0,0,1,2.52.47l-.32,1.06a5.22,5.22,0,0,0-2.23-.43,3.78,3.78,0,0,0-4.07,4.06c0,2.57,1.55,4.08,3.9,4.08a4.24,4.24,0,0,0,1.74-.27v-3h-2.05v-1.05H431Z"/><path class="cls-4" d="M433,165.59a13.9,13.9,0,0,1,2.5-.21,4.13,4.13,0,0,1,2.92.83,2.52,2.52,0,0,1,.8,1.92,2.66,2.66,0,0,1-1.91,2.58v0a2.52,2.52,0,0,1,1.49,2,16.2,16.2,0,0,0,.78,2.78h-1.35a13.18,13.18,0,0,1-.68-2.42c-.3-1.39-.84-1.92-2-2h-1.23v4.38H433Zm1.3,4.61h1.33c1.4,0,2.28-.77,2.28-1.92,0-1.31-.94-1.88-2.32-1.89a5.37,5.37,0,0,0-1.29.12Z"/><path class="cls-4" d="M442.73,172.39l-1.05,3.18h-1.35l3.44-10.11h1.57l3.45,10.11H447.4l-1.08-3.18Zm3.32-1-1-2.91c-.23-.66-.38-1.26-.53-1.85h0c-.15.6-.31,1.22-.51,1.83l-1,2.93Z"/><path class="cls-4" d="M458.74,171.13c-.08-1.41-.17-3.11-.15-4.37h0c-.34,1.19-.76,2.45-1.27,3.84l-1.79,4.91h-1l-1.63-4.82c-.48-1.42-.89-2.73-1.17-3.93h0c0,1.26-.11,3-.2,4.47l-.27,4.34H450l.7-10.11h1.67l1.72,4.89c.42,1.24.77,2.35,1,3.4h.05c.25-1,.61-2.13,1.06-3.4l1.8-4.89h1.67l.63,10.11H459Z"/><path class="cls-4" d="M470.8,171.13c-.08-1.41-.17-3.11-.15-4.37h0c-.34,1.19-.76,2.45-1.27,3.84l-1.79,4.91h-1l-1.63-4.82c-.48-1.42-.89-2.73-1.17-3.93h0c0,1.26-.11,3-.2,4.47l-.27,4.34H462l.7-10.11h1.67l1.72,4.89c.42,1.24.77,2.35,1,3.4h.05c.25-1,.61-2.13,1.06-3.4l1.8-4.89h1.67l.63,10.11h-1.28Z"/><path class="cls-4" d="M475.64,165.46v10.11h-1.3V165.46Z"/><path class="cls-4" d="M477.92,175.57V165.46h1.43l3.24,5.11a28.57,28.57,0,0,1,1.81,3.29l0,0c-.12-1.35-.15-2.58-.15-4.15v-4.23h1.23v10.11h-1.32L481,170.44a33.07,33.07,0,0,1-1.89-3.38l0,0c.07,1.27.1,2.49.1,4.17v4.32Z"/><path class="cls-4" d="M495.49,175.12a9.48,9.48,0,0,1-3.11.55,4.74,4.74,0,0,1-5.19-5.1c0-3,2.09-5.22,5.48-5.22a6.25,6.25,0,0,1,2.52.47l-.32,1.06a5.22,5.22,0,0,0-2.23-.43,3.78,3.78,0,0,0-4.07,4.06c0,2.57,1.55,4.08,3.9,4.08a4.24,4.24,0,0,0,1.74-.27v-3h-2v-1.05h3.33Z"/><path class="cls-4" d="M397.54,190.45l-.7,2.12H396l2.28-6.74h1l2.3,6.74h-.93l-.72-2.12Zm2.21-.68-.66-1.94c-.15-.44-.25-.84-.35-1.23h0c-.1.4-.21.81-.34,1.22l-.66,2Z"/><path class="cls-4" d="M407.13,192.35a4.32,4.32,0,0,1-1.78.32,3.14,3.14,0,0,1-3.32-3.41,3.35,3.35,0,0,1,3.51-3.54,3.61,3.61,0,0,1,1.6.3l-.21.71a3.17,3.17,0,0,0-1.36-.28,2.51,2.51,0,0,0-2.63,2.78,2.45,2.45,0,0,0,2.59,2.71,3.48,3.48,0,0,0,1.42-.28Z"/><path class="cls-4" d="M409.35,190.45l-.7,2.12h-.9l2.29-6.74h1l2.3,6.74h-.93l-.72-2.12Zm2.21-.68-.66-1.94c-.15-.44-.25-.84-.35-1.23h0c-.1.4-.21.81-.34,1.22l-.66,2Z"/><path class="cls-4" d="M414.38,185.92a12.46,12.46,0,0,1,1.85-.14,3.86,3.86,0,0,1,2.73.84,3.1,3.1,0,0,1,1,2.42,3.56,3.56,0,0,1-1,2.62,4.15,4.15,0,0,1-3,1,14,14,0,0,1-1.58-.08Zm.87,6a5.49,5.49,0,0,0,.88.05,2.59,2.59,0,0,0,2.87-2.86,2.4,2.4,0,0,0-2.73-2.6,4.94,4.94,0,0,0-1,.09Z"/><path class="cls-4" d="M424.53,189.41h-2.62v2.43h2.92v.73H421v-6.74h3.64v.73h-2.77v2.13h2.62Z"/><path class="cls-4" d="M431.64,189.61c-.05-.94-.11-2.07-.1-2.91h0c-.23.79-.51,1.63-.85,2.56l-1.19,3.27h-.66l-1.09-3.21c-.32-.95-.59-1.82-.78-2.62h0c0,.84-.07,2-.13,3l-.18,2.89h-.83l.47-6.74h1.11l1.15,3.26c.28.83.51,1.57.68,2.27h0c.17-.68.41-1.42.71-2.27l1.2-3.26h1.11l.42,6.74h-.85Z"/><path class="cls-4" d="M435.5,192.57v-2.86l-2.13-3.88h1l.95,1.86c.26.51.46.92.67,1.39h0c.19-.44.42-.88.68-1.39l1-1.86h1l-2.26,3.87v2.87Z"/><path class="cls-4" d="M446.24,192.35a4.32,4.32,0,0,1-1.78.32,3.15,3.15,0,0,1-3.33-3.41,3.35,3.35,0,0,1,3.52-3.54,3.61,3.61,0,0,1,1.6.3l-.21.71a3.17,3.17,0,0,0-1.36-.28,2.51,2.51,0,0,0-2.63,2.78,2.45,2.45,0,0,0,2.59,2.71,3.48,3.48,0,0,0,1.42-.28Z"/><path class="cls-4" d="M452.88,189.13c0,2.32-1.41,3.55-3.13,3.55s-3-1.38-3-3.42,1.33-3.54,3.13-3.54S452.88,187.13,452.88,189.13Zm-5.23.11c0,1.44.78,2.73,2.15,2.73s2.16-1.27,2.16-2.8c0-1.34-.7-2.74-2.15-2.74S447.65,187.76,447.65,189.24Z"/><path class="cls-4" d="M454.88,185.83v4c0,1.51.67,2.15,1.57,2.15s1.64-.66,1.64-2.15v-4H459v3.93c0,2.07-1.09,2.92-2.55,2.92s-2.42-.79-2.42-2.88v-4Z"/><path class="cls-4" d="M460.48,185.92a9.06,9.06,0,0,1,1.67-.14,2.76,2.76,0,0,1,2,.55,1.68,1.68,0,0,1,.53,1.28,1.77,1.77,0,0,1-1.27,1.72v0a1.68,1.68,0,0,1,1,1.36,10.73,10.73,0,0,0,.52,1.85H464a8.73,8.73,0,0,1-.45-1.61c-.2-.93-.56-1.28-1.35-1.31h-.82v2.92h-.87Zm.87,3.07h.89c.93,0,1.52-.51,1.52-1.28s-.63-1.25-1.55-1.26a3.58,3.58,0,0,0-.86.08Z"/><path class="cls-4" d="M465.74,191.51a3.08,3.08,0,0,0,1.56.44c.89,0,1.41-.47,1.41-1.15s-.36-1-1.27-1.34c-1.1-.39-1.78-1-1.78-1.91a1.94,1.94,0,0,1,2.18-1.83,3.06,3.06,0,0,1,1.49.33l-.24.71a2.68,2.68,0,0,0-1.28-.32c-.92,0-1.27.55-1.27,1,0,.63.41.94,1.34,1.3,1.14.44,1.72,1,1.72,2s-.77,1.94-2.36,1.94a3.48,3.48,0,0,1-1.72-.43Z"/><path class="cls-4" d="M474.28,189.41h-2.62v2.43h2.92v.73h-3.79v-6.74h3.64v.73h-2.77v2.13h2.62Z"/><path class="cls-4" d="M475.07,193.8a14.39,14.39,0,0,0,.6-2.39l1-.1a12.19,12.19,0,0,1-.95,2.43Z"/><path class="cls-4" d="M479.86,185.83h.87v3.25h0c.18-.26.36-.5.53-.72l2.06-2.53h1.08L482,188.69l2.63,3.88h-1l-2.22-3.31-.64.74v2.57h-.87Z"/><path class="cls-4" d="M488.77,189.41h-2.62v2.43h2.92v.73h-3.79v-6.74h3.64v.73h-2.77v2.13h2.62Z"/><path class="cls-4" d="M491.29,190.45l-.7,2.12h-.9l2.29-6.74h1l2.3,6.74h-.93l-.72-2.12Zm2.21-.68-.66-1.94c-.15-.44-.25-.84-.35-1.23h0c-.1.4-.21.81-.34,1.22l-.66,2Z"/><rect class="cls-2" x="265" y="282" width="158" height="60"/><line class="cls-3" x1="421.5" y1="332" x2="421.5" y2="353"/><path class="cls-4" d="M283.85,294.63c-.07-1.41-.16-3.11-.15-4.37h0c-.35,1.19-.77,2.45-1.28,3.84L280.6,299h-1L278,294.19c-.48-1.42-.88-2.73-1.17-3.93h0c0,1.26-.1,3-.19,4.47l-.27,4.34h-1.25l.71-10.11h1.66l1.73,4.89c.42,1.24.76,2.35,1,3.4h0c.26-1,.62-2.13,1.07-3.4l1.8-4.89h1.66l.63,10.11h-1.27Z"/><path class="cls-4" d="M288.7,289v6c0,2.27,1,3.23,2.35,3.23s2.46-1,2.46-3.23v-6h1.32v5.89c0,3.11-1.63,4.38-3.82,4.38s-3.63-1.18-3.63-4.32v-6Z"/><path class="cls-4" d="M297.1,289h1.3v9h4.32v1.1H297.1Z"/><path class="cls-4" d="M304.78,290.07H301.7V289h7.49v1.11H306.1v9h-1.32Z"/><path class="cls-4" d="M311.62,289v10.11h-1.31V289Z"/><path class="cls-4" d="M322.42,294.63c-.08-1.41-.17-3.11-.15-4.37h0c-.34,1.19-.76,2.45-1.27,3.84L319.16,299h-1l-1.63-4.82c-.48-1.42-.89-2.73-1.17-3.93h0c0,1.26-.11,3-.2,4.47l-.27,4.34h-1.24l.7-10.11H316l1.72,4.89c.42,1.24.77,2.35,1,3.4h.05c.25-1,.61-2.13,1.06-3.4l1.8-4.89h1.67l.63,10.11h-1.28Z"/><path class="cls-4" d="M331.19,294.33h-3.93V298h4.38v1.1H326V289h5.46v1.09h-4.16v3.2h3.93Z"/><path class="cls-4" d="M333.34,289.09a18.62,18.62,0,0,1,2.77-.21,5.83,5.83,0,0,1,4.1,1.26,4.67,4.67,0,0,1,1.42,3.63,5.36,5.36,0,0,1-1.45,3.93,6.22,6.22,0,0,1-4.47,1.46,22.32,22.32,0,0,1-2.37-.12Zm1.3,8.94a8.17,8.17,0,0,0,1.32.08c2.79,0,4.31-1.56,4.31-4.29,0-2.39-1.34-3.9-4.1-3.9a8,8,0,0,0-1.53.13Z"/><path class="cls-4" d="M344.63,289v10.11h-1.3V289Z"/><path class="cls-4" d="M352.15,294.33h-3.93V298h4.38v1.1h-5.69V289h5.46v1.09h-4.15v3.2h3.93Z"/><path class="cls-4" d="M354.29,289.09a18.76,18.76,0,0,1,2.78-.21,5.8,5.8,0,0,1,4.09,1.26,4.67,4.67,0,0,1,1.43,3.63,5.33,5.33,0,0,1-1.46,3.93,6.19,6.19,0,0,1-4.47,1.46,22.32,22.32,0,0,1-2.37-.12ZM355.6,298a8.17,8.17,0,0,0,1.32.08c2.79,0,4.3-1.56,4.3-4.29,0-2.39-1.33-3.9-4.09-3.9a7.78,7.78,0,0,0-1.53.13Z"/><path class="cls-4" d="M369.52,294.33h-3.93V298H370v1.1h-5.69V289h5.46v1.09h-4.15v3.2h3.93Z"/><path class="cls-4" d="M371.48,297.48a4.64,4.64,0,0,0,2.34.66c1.34,0,2.12-.71,2.12-1.73s-.54-1.48-1.91-2c-1.65-.58-2.67-1.44-2.67-2.86,0-1.58,1.31-2.75,3.27-2.75a4.54,4.54,0,0,1,2.24.5l-.36,1.06a4,4,0,0,0-1.92-.48c-1.38,0-1.91.83-1.91,1.52,0,.94.62,1.41,2,1.95,1.71.66,2.58,1.48,2.58,3s-1.15,2.91-3.54,2.91a5.24,5.24,0,0,1-2.58-.65Z"/><path class="cls-4" d="M380.36,289v10.11h-1.3V289Z"/><path class="cls-4" d="M390.34,298.62a9.48,9.48,0,0,1-3.11.55,4.74,4.74,0,0,1-5.19-5.1c0-3,2.09-5.22,5.48-5.22a6.25,6.25,0,0,1,2.52.47l-.32,1.06a5.22,5.22,0,0,0-2.23-.43,3.78,3.78,0,0,0-4.07,4.06c0,2.57,1.55,4.08,3.9,4.08a4.24,4.24,0,0,0,1.74-.27v-3H387v-1.05h3.33Z"/><path class="cls-4" d="M392.33,299.07V289h1.43l3.24,5.11a28.57,28.57,0,0,1,1.81,3.29l0,0c-.12-1.35-.15-2.58-.15-4.15V289h1.23v10.11H398.6l-3.21-5.13a33.07,33.07,0,0,1-1.89-3.38l0,0c.07,1.27.1,2.49.1,4.17v4.32Z"/><path class="cls-4" d="M276,314l-.7,2.12h-.9l2.29-6.74h1l2.3,6.74h-.93l-.72-2.12Zm2.21-.68-.66-1.94c-.15-.44-.25-.84-.35-1.23h0c-.1.4-.21.81-.34,1.22l-.66,1.95Z"/><path class="cls-4" d="M281.07,309.41a10.08,10.08,0,0,1,1.67-.13,2.77,2.77,0,0,1,1.89.56,1.81,1.81,0,0,1,.59,1.41,2,2,0,0,1-.52,1.44,2.79,2.79,0,0,1-2.06.74,3,3,0,0,1-.7-.06v2.7h-.87Zm.87,3.25a2.92,2.92,0,0,0,.72.07c1,0,1.69-.51,1.69-1.44s-.63-1.32-1.59-1.32a3.65,3.65,0,0,0-.82.07Z"/><path class="cls-4" d="M288.51,309.42a12.46,12.46,0,0,1,1.85-.14,3.86,3.86,0,0,1,2.73.84,3.1,3.1,0,0,1,1,2.42,3.56,3.56,0,0,1-1,2.62,4.15,4.15,0,0,1-3,1,14,14,0,0,1-1.58-.08Zm.87,6a5.49,5.49,0,0,0,.88.05,2.59,2.59,0,0,0,2.87-2.86,2.4,2.4,0,0,0-2.73-2.6,4.94,4.94,0,0,0-1,.09Z"/><path class="cls-4" d="M298.66,312.91H296v2.43H299v.73h-3.79v-6.74h3.64v.73H296v2.13h2.62Z"/><path class="cls-4" d="M305.22,315.77a6.28,6.28,0,0,1-2.07.37,3.17,3.17,0,0,1-3.46-3.4,3.38,3.38,0,0,1,3.65-3.48,4.17,4.17,0,0,1,1.68.31l-.21.71a3.49,3.49,0,0,0-1.49-.29,2.52,2.52,0,0,0-2.71,2.71,2.47,2.47,0,0,0,2.6,2.72,2.84,2.84,0,0,0,1.16-.18v-2H303v-.7h2.22Z"/><path class="cls-4" d="M306.55,309.42a9.06,9.06,0,0,1,1.67-.14,2.76,2.76,0,0,1,1.95.55,1.68,1.68,0,0,1,.53,1.28,1.77,1.77,0,0,1-1.27,1.72v0a1.68,1.68,0,0,1,1,1.36,10.73,10.73,0,0,0,.52,1.85H310a8.73,8.73,0,0,1-.45-1.61c-.2-.93-.56-1.28-1.35-1.31h-.82v2.92h-.87Zm.87,3.07h.89c.93,0,1.52-.51,1.52-1.28s-.63-1.25-1.55-1.26a3.58,3.58,0,0,0-.86.08Z"/><path class="cls-4" d="M315.42,312.91H312.8v2.43h2.92v.73h-3.79v-6.74h3.64v.73H312.8v2.13h2.62Z"/><path class="cls-4" d="M320.34,312.91h-2.62v2.43h2.92v.73h-3.79v-6.74h3.64v.73h-2.77v2.13h2.62Z"/><path class="cls-4" d="M321.13,317.3a14.39,14.39,0,0,0,.6-2.39l1-.1a12.19,12.19,0,0,1-.95,2.43Z"/><path class="cls-4" d="M325.92,309.33h.87v3.25h0c.18-.26.36-.5.53-.72l2.06-2.53h1.08l-2.44,2.86,2.63,3.88h-1l-2.22-3.31-.64.74v2.57h-.87Z"/><path class="cls-4" d="M334.83,312.91h-2.62v2.43h2.92v.73h-3.79v-6.74H335v.73h-2.77v2.13h2.62Z"/><path class="cls-4" d="M337.35,314l-.7,2.12h-.9l2.29-6.74h1l2.3,6.74h-.93l-.72-2.12Zm2.21-.68-.66-1.94c-.15-.44-.25-.84-.35-1.23h0c-.1.4-.21.81-.34,1.22l-.66,1.95Z"/><path class="cls-4" d="M275,326.33h3.63v.73h-2.76v2.24h2.55V330h-2.55v3.05H275Z"/><path class="cls-4" d="M279.82,326.42a9.06,9.06,0,0,1,1.67-.14,2.76,2.76,0,0,1,1.95.55,1.68,1.68,0,0,1,.53,1.28,1.77,1.77,0,0,1-1.27,1.72v0a1.68,1.68,0,0,1,1,1.36,10.73,10.73,0,0,0,.52,1.85h-.9a8.73,8.73,0,0,1-.45-1.61c-.2-.93-.56-1.28-1.35-1.31h-.82v2.92h-.87Zm.87,3.07h.89c.93,0,1.52-.51,1.52-1.28s-.63-1.25-1.55-1.26a3.58,3.58,0,0,0-.86.08Z"/><path class="cls-4" d="M291,329.63c0,2.32-1.41,3.55-3.13,3.55s-3-1.38-3-3.42,1.33-3.54,3.13-3.54S291,327.63,291,329.63Zm-5.23.11c0,1.44.78,2.73,2.15,2.73s2.16-1.27,2.16-2.8c0-1.34-.7-2.74-2.15-2.74S285.76,328.26,285.76,329.74Z"/><path class="cls-4" d="M292.12,333.07v-6.74h.95l2.16,3.41a19.08,19.08,0,0,1,1.21,2.19h0c-.08-.9-.1-1.72-.1-2.77v-2.82h.82v6.74h-.88l-2.14-3.42a21.39,21.39,0,0,1-1.26-2.25h0c.05.85.07,1.66.07,2.78v2.88Z"/><path class="cls-4" d="M300,327.07h-2.05v-.74h5v.74h-2.06v6H300Z"/><path class="cls-4" d="M307.16,329.91h-2.62v2.43h2.92v.73h-3.79v-6.74h3.64v.73h-2.77v2.13h2.62Z"/><path class="cls-4" d="M308.59,333.07v-6.74h1l2.16,3.41a19.08,19.08,0,0,1,1.21,2.19h0c-.08-.9-.1-1.72-.1-2.77v-2.82h.82v6.74h-.88l-2.14-3.42a21.39,21.39,0,0,1-1.26-2.25h0c.05.85.07,1.66.07,2.78v2.88Z"/><path class="cls-4" d="M315.17,326.42a12.46,12.46,0,0,1,1.85-.14,3.86,3.86,0,0,1,2.73.84,3.1,3.1,0,0,1,.95,2.42,3.56,3.56,0,0,1-1,2.62,4.15,4.15,0,0,1-3,1,14,14,0,0,1-1.58-.08Zm.87,6a5.49,5.49,0,0,0,.88.05,2.59,2.59,0,0,0,2.87-2.86,2.4,2.4,0,0,0-2.73-2.6,4.94,4.94,0,0,0-1,.09Z"/><path class="cls-4" d="M327.44,329.91h-2.62v2.43h2.92v.73H324v-6.74h3.64v.73h-2.77v2.13h2.62Z"/><path class="cls-4" d="M328.87,326.33h.87v6h2.88v.73h-3.75Z"/><path class="cls-4" d="M337.08,329.91h-2.62v2.43h2.92v.73h-3.79v-6.74h3.64v.73h-2.77v2.13h2.62Z"/><path class="cls-4" d="M343.22,332.85a4.32,4.32,0,0,1-1.78.32,3.15,3.15,0,0,1-3.33-3.41,3.35,3.35,0,0,1,3.52-3.54,3.61,3.61,0,0,1,1.6.3l-.21.71a3.17,3.17,0,0,0-1.36-.28,2.51,2.51,0,0,0-2.63,2.78,2.45,2.45,0,0,0,2.59,2.71,3.48,3.48,0,0,0,1.42-.28Z"/><path class="cls-4" d="M345.87,327.07h-2.05v-.74h5v.74h-2.06v6h-.88Z"/><path class="cls-4" d="M350.43,326.33v6.74h-.87v-6.74Z"/><path class="cls-4" d="M353.43,333.07l-2.2-6.74h.94l1.05,3.32c.29.91.54,1.73.72,2.52h0c.19-.78.47-1.63.77-2.51l1.14-3.33h.93l-2.41,6.74Z"/><path class="cls-4" d="M361,329.91H358.4v2.43h2.92v.73h-3.79v-6.74h3.64v.73H358.4v2.13H361Z"/><rect class="cls-2" x="290" y="220" width="216" height="44"/><line class="cls-3" x1="504.5" y1="227" x2="504.5" y2="313"/><path class="cls-4" d="M306.4,237.74a6.48,6.48,0,0,1-2.67.48,4.73,4.73,0,0,1-5-5.12,5,5,0,0,1,5.28-5.31,5.4,5.4,0,0,1,2.4.45l-.31,1.07a4.77,4.77,0,0,0-2-.42c-2.37,0-3.95,1.51-3.95,4.17,0,2.47,1.43,4.06,3.89,4.06a5.18,5.18,0,0,0,2.13-.42Z"/><path class="cls-4" d="M308,228.09a14.1,14.1,0,0,1,2.51-.21,4.13,4.13,0,0,1,2.92.83,2.52,2.52,0,0,1,.8,1.92,2.66,2.66,0,0,1-1.91,2.58v0a2.52,2.52,0,0,1,1.49,2,16.2,16.2,0,0,0,.78,2.78h-1.35a13.18,13.18,0,0,1-.68-2.42c-.3-1.39-.84-1.92-2-2h-1.23v4.38H308Zm1.31,4.61h1.33c1.4,0,2.28-.77,2.28-1.92,0-1.31-.94-1.88-2.32-1.89a5.37,5.37,0,0,0-1.29.12Z"/><path class="cls-4" d="M321.34,233.33h-3.93V237h4.38v1.1H316.1V228h5.46v1.09h-4.15v3.2h3.93Z"/><path class="cls-4" d="M325.12,234.89l-1.05,3.18h-1.35L326.15,228h1.58l3.45,10.11h-1.4l-1.08-3.18Zm3.31-1-1-2.91c-.22-.66-.37-1.26-.52-1.85h0c-.15.6-.32,1.22-.51,1.83l-1,2.93Z"/><path class="cls-4" d="M333.43,229.07h-3.08V228h7.49v1.11h-3.09v9h-1.32Z"/><path class="cls-4" d="M340.27,228v10.11H339V228Z"/><path class="cls-4" d="M344.77,238.07,341.47,228h1.41l1.57,5c.44,1.36.81,2.59,1.08,3.78h0c.29-1.17.71-2.45,1.16-3.77l1.71-5h1.39l-3.61,10.11Z"/><path class="cls-4" d="M356.15,233.33h-3.93V237h4.38v1.1h-5.68V228h5.46v1.09h-4.16v3.2h3.93Z"/><path class="cls-4" d="M368.54,237.74a6.48,6.48,0,0,1-2.67.48,4.72,4.72,0,0,1-5-5.12,5,5,0,0,1,5.28-5.31,5.44,5.44,0,0,1,2.4.45l-.32,1.07a4.74,4.74,0,0,0-2-.42c-2.37,0-3.94,1.51-3.94,4.17,0,2.47,1.42,4.06,3.88,4.06a5.11,5.11,0,0,0,2.13-.42Z"/><path class="cls-4" d="M378.5,232.91c0,3.48-2.11,5.32-4.69,5.32s-4.55-2.07-4.55-5.13c0-3.21,2-5.31,4.7-5.31S378.5,229.91,378.5,232.91Zm-7.84.16c0,2.16,1.17,4.1,3.22,4.1s3.24-1.91,3.24-4.2c0-2-1.05-4.11-3.22-4.11S370.66,230.85,370.66,233.07Z"/><path class="cls-4" d="M380.2,228.09a18.62,18.62,0,0,1,2.77-.21,5.83,5.83,0,0,1,4.1,1.26,4.67,4.67,0,0,1,1.42,3.63A5.36,5.36,0,0,1,387,236.7a6.22,6.22,0,0,1-4.47,1.46,22.32,22.32,0,0,1-2.37-.12Zm1.3,8.94a8.17,8.17,0,0,0,1.32.08c2.79,0,4.31-1.56,4.31-4.29,0-2.39-1.34-3.9-4.1-3.9a8,8,0,0,0-1.53.13Z"/><path class="cls-4" d="M391.49,228v10.11h-1.3V228Z"/><path class="cls-4" d="M393.77,238.07V228h1.43l3.24,5.11a28.57,28.57,0,0,1,1.81,3.29l0,0c-.12-1.35-.15-2.58-.15-4.15V228h1.23v10.11H400l-3.21-5.13a33.07,33.07,0,0,1-1.89-3.38l0,0c.07,1.27.1,2.49.1,4.17v4.32Z"/><path class="cls-4" d="M411.34,237.62a9.48,9.48,0,0,1-3.11.55,4.74,4.74,0,0,1-5.19-5.1c0-3,2.09-5.22,5.48-5.22a6.25,6.25,0,0,1,2.52.47l-.32,1.06a5.22,5.22,0,0,0-2.23-.43,3.78,3.78,0,0,0-4.07,4.06c0,2.57,1.55,4.08,3.9,4.08a4.24,4.24,0,0,0,1.74-.27v-3H408v-1.05h3.33Z"/><path class="cls-4" d="M298.83,254a3.08,3.08,0,0,0,1.56.44c.89,0,1.41-.47,1.41-1.15s-.36-1-1.27-1.34c-1.1-.39-1.78-1-1.78-1.91a1.94,1.94,0,0,1,2.18-1.83,3.06,3.06,0,0,1,1.49.33l-.24.71a2.68,2.68,0,0,0-1.28-.32c-.92,0-1.27.55-1.27,1,0,.63.41.94,1.34,1.3,1.14.44,1.72,1,1.72,2s-.77,1.94-2.36,1.94a3.48,3.48,0,0,1-1.72-.43Z"/><path class="cls-4" d="M304.75,248.33v2.82H308v-2.82h.88v6.74H308v-3.16h-3.26v3.16h-.87v-6.74Z"/><path class="cls-4" d="M316.16,251.63c0,2.32-1.41,3.55-3.13,3.55s-3-1.38-3-3.42,1.33-3.54,3.13-3.54S316.16,249.63,316.16,251.63Zm-5.23.11c0,1.44.78,2.73,2.15,2.73s2.16-1.27,2.16-2.8c0-1.34-.7-2.74-2.15-2.74S310.93,250.26,310.93,251.74Z"/><path class="cls-4" d="M317.29,248.42a9.06,9.06,0,0,1,1.67-.14,2.76,2.76,0,0,1,2,.55,1.68,1.68,0,0,1,.53,1.28,1.77,1.77,0,0,1-1.27,1.72v0a1.68,1.68,0,0,1,1,1.36,10.73,10.73,0,0,0,.52,1.85h-.9a8.73,8.73,0,0,1-.45-1.61c-.2-.93-.56-1.28-1.35-1.31h-.82v2.92h-.87Zm.87,3.07h.89c.93,0,1.52-.51,1.52-1.28S319.94,249,319,249a3.58,3.58,0,0,0-.86.08Z"/><path class="cls-4" d="M324,249.07H322v-.74h5v.74h-2.06v6H324Z"/><path class="cls-4" d="M334.56,254.85a4.32,4.32,0,0,1-1.78.32,3.15,3.15,0,0,1-3.33-3.41,3.35,3.35,0,0,1,3.52-3.54,3.61,3.61,0,0,1,1.6.3l-.21.71A3.17,3.17,0,0,0,333,249a2.51,2.51,0,0,0-2.63,2.78,2.45,2.45,0,0,0,2.59,2.71,3.48,3.48,0,0,0,1.42-.28Z"/><path class="cls-4" d="M341.2,251.63c0,2.32-1.41,3.55-3.13,3.55s-3-1.38-3-3.42,1.33-3.54,3.13-3.54S341.2,249.63,341.2,251.63Zm-5.23.11c0,1.44.78,2.73,2.15,2.73s2.16-1.27,2.16-2.8c0-1.34-.7-2.74-2.15-2.74S336,250.26,336,251.74Z"/><path class="cls-4" d="M343.2,248.33v4c0,1.51.67,2.15,1.57,2.15s1.64-.66,1.64-2.15v-4h.88v3.93c0,2.07-1.09,2.92-2.55,2.92s-2.42-.79-2.42-2.88v-4Z"/><path class="cls-4" d="M348.8,248.42a9.06,9.06,0,0,1,1.67-.14,2.76,2.76,0,0,1,1.95.55,1.68,1.68,0,0,1,.53,1.28,1.77,1.77,0,0,1-1.27,1.72v0a1.68,1.68,0,0,1,1,1.36,10.73,10.73,0,0,0,.52,1.85h-.9a8.73,8.73,0,0,1-.45-1.61c-.2-.93-.56-1.28-1.35-1.31h-.82v2.92h-.87Zm.87,3.07h.89c.93,0,1.52-.51,1.52-1.28s-.63-1.25-1.55-1.26a3.58,3.58,0,0,0-.86.08Z"/><path class="cls-4" d="M354.06,254a3.08,3.08,0,0,0,1.56.44c.89,0,1.41-.47,1.41-1.15s-.36-1-1.27-1.34c-1.1-.39-1.78-1-1.78-1.91a1.94,1.94,0,0,1,2.18-1.83,3.06,3.06,0,0,1,1.49.33l-.24.71a2.68,2.68,0,0,0-1.28-.32c-.92,0-1.27.55-1.27,1,0,.63.41.94,1.34,1.3,1.14.44,1.72,1,1.72,2s-.77,1.94-2.36,1.94a3.48,3.48,0,0,1-1.72-.43Z"/><path class="cls-4" d="M362.6,251.91H360v2.43h2.92v.73h-3.79v-6.74h3.64v.73H360v2.13h2.62Z"/><path class="cls-4" d="M363.39,256.3a14.39,14.39,0,0,0,.6-2.39l1-.1a12.19,12.19,0,0,1-1,2.43Z"/><path class="cls-4" d="M369.05,248.33v4c0,1.51.67,2.15,1.57,2.15s1.64-.66,1.64-2.15v-4h.88v3.93c0,2.07-1.09,2.92-2.55,2.92s-2.42-.79-2.42-2.88v-4Z"/><path class="cls-4" d="M374.65,255.07v-6.74h1l2.16,3.41a19.08,19.08,0,0,1,1.21,2.19h0c-.08-.9-.1-1.72-.1-2.77v-2.82h.82v6.74h-.88l-2.14-3.42a21.39,21.39,0,0,1-1.26-2.25h0c.05.85.07,1.66.07,2.78v2.88Z"/><path class="cls-4" d="M382.1,248.33v6.74h-.87v-6.74Z"/><path class="cls-4" d="M385.1,255.07l-2.2-6.74h.94l1.05,3.32c.29.91.54,1.73.72,2.52h0c.19-.78.47-1.63.77-2.51l1.14-3.33h.93l-2.41,6.74Z"/><path class="cls-4" d="M392.69,251.91h-2.62v2.43H393v.73H389.2v-6.74h3.64v.73h-2.77v2.13h2.62Z"/><path class="cls-4" d="M394.12,248.42a9.06,9.06,0,0,1,1.67-.14,2.76,2.76,0,0,1,1.95.55,1.68,1.68,0,0,1,.53,1.28,1.77,1.77,0,0,1-1.27,1.72v0a1.68,1.68,0,0,1,1,1.36,10.73,10.73,0,0,0,.52,1.85h-.9a8.73,8.73,0,0,1-.45-1.61c-.2-.93-.56-1.28-1.35-1.31H395v2.92h-.87Zm.87,3.07h.89c.93,0,1.52-.51,1.52-1.28s-.63-1.25-1.55-1.26a3.58,3.58,0,0,0-.86.08Z"/><path class="cls-4" d="M399.38,254a3.08,3.08,0,0,0,1.56.44c.89,0,1.41-.47,1.41-1.15s-.36-1-1.27-1.34c-1.1-.39-1.78-1-1.78-1.91a1.94,1.94,0,0,1,2.18-1.83,3.06,3.06,0,0,1,1.49.33l-.24.71a2.68,2.68,0,0,0-1.28-.32c-.92,0-1.27.55-1.27,1,0,.63.41.94,1.34,1.3,1.14.44,1.72,1,1.72,2s-.77,1.94-2.36,1.94a3.48,3.48,0,0,1-1.72-.43Z"/><path class="cls-4" d="M405.3,248.33v6.74h-.87v-6.74Z"/><path class="cls-4" d="M408.1,249.07h-2.05v-.74h5v.74H409v6h-.88Z"/><path class="cls-4" d="M413.57,255.07v-2.86l-2.13-3.88h1l.95,1.86c.26.51.46.92.67,1.39h0c.19-.44.42-.88.68-1.39l1-1.86h1l-2.26,3.87v2.87Z"/><path class="cls-4" d="M425.36,251.63c0,2.32-1.41,3.55-3.13,3.55s-3-1.38-3-3.42,1.33-3.54,3.13-3.54S425.36,249.63,425.36,251.63Zm-5.23.11c0,1.44.78,2.73,2.15,2.73s2.16-1.27,2.16-2.8c0-1.34-.7-2.74-2.15-2.74S420.13,250.26,420.13,251.74Z"/><path class="cls-4" d="M426.49,248.33h3.63v.73h-2.76v2.24h2.55V252h-2.55v3h-.87Z"/><path class="cls-4" d="M434.57,253l-.7,2.12H433l2.29-6.74h1.05l2.3,6.74h-.93L437,253Zm2.21-.68-.66-1.94c-.15-.44-.25-.84-.35-1.23h0c-.1.4-.21.81-.34,1.22l-.66,2Z"/><path class="cls-4" d="M439.6,248.42a9.06,9.06,0,0,1,1.67-.14,2.76,2.76,0,0,1,2,.55,1.68,1.68,0,0,1,.53,1.28,1.77,1.77,0,0,1-1.27,1.72v0a1.68,1.68,0,0,1,1,1.36,10.73,10.73,0,0,0,.52,1.85h-.9a8.73,8.73,0,0,1-.45-1.61c-.2-.93-.56-1.28-1.35-1.31h-.82v2.92h-.87Zm.87,3.07h.89c.93,0,1.52-.51,1.52-1.28s-.63-1.25-1.55-1.26a3.58,3.58,0,0,0-.86.08Z"/><path class="cls-4" d="M446.35,249.07H444.3v-.74h5v.74h-2.06v6h-.88Z"/><path class="cls-4" d="M449.86,254a3.08,3.08,0,0,0,1.56.44c.89,0,1.41-.47,1.41-1.15s-.36-1-1.27-1.34c-1.1-.39-1.78-1-1.78-1.91a1.94,1.94,0,0,1,2.18-1.83,3.06,3.06,0,0,1,1.49.33l-.24.71a2.68,2.68,0,0,0-1.28-.32c-.92,0-1.27.55-1.27,1,0,.63.41.94,1.34,1.3,1.14.44,1.72,1,1.72,2s-.77,1.94-2.36,1.94a3.48,3.48,0,0,1-1.72-.43Z"/><path class="cls-4" d="M454.31,256.3a14.39,14.39,0,0,0,.6-2.39l1-.1a12.19,12.19,0,0,1-.95,2.43Z"/><path class="cls-4" d="M459.1,248.33H460v6h2.88v.73H459.1Z"/><path class="cls-4" d="M469.19,251.63c0,2.32-1.41,3.55-3.13,3.55s-3-1.38-3-3.42,1.33-3.54,3.13-3.54S469.19,249.63,469.19,251.63Zm-5.23.11c0,1.44.78,2.73,2.15,2.73s2.16-1.27,2.16-2.8c0-1.34-.7-2.74-2.15-2.74S464,250.26,464,251.74Z"/><path class="cls-4" d="M470.32,255.07v-6.74h.95l2.16,3.41a19.08,19.08,0,0,1,1.21,2.19h0c-.08-.9-.1-1.72-.1-2.77v-2.82h.82v6.74h-.88l-2.14-3.42a21.39,21.39,0,0,1-1.26-2.25h0c.05.85.07,1.66.07,2.78v2.88Z"/><path class="cls-4" d="M476.9,248.42a12.46,12.46,0,0,1,1.85-.14,3.86,3.86,0,0,1,2.73.84,3.1,3.1,0,0,1,.95,2.42,3.56,3.56,0,0,1-1,2.62,4.15,4.15,0,0,1-3,1,14,14,0,0,1-1.58-.08Zm.87,6a5.49,5.49,0,0,0,.88.05,2.59,2.59,0,0,0,2.87-2.86,2.4,2.4,0,0,0-2.73-2.6,4.94,4.94,0,0,0-1,.09Z"/><path class="cls-4" d="M489.32,251.63c0,2.32-1.41,3.55-3.13,3.55s-3-1.38-3-3.42,1.33-3.54,3.13-3.54S489.32,249.63,489.32,251.63Zm-5.23.11c0,1.44.78,2.73,2.15,2.73s2.16-1.27,2.16-2.8c0-1.34-.7-2.74-2.15-2.74S484.09,250.26,484.09,251.74Z"/><path class="cls-4" d="M490.45,255.07v-6.74h.95l2.16,3.41a19.08,19.08,0,0,1,1.21,2.19h0c-.08-.9-.1-1.72-.1-2.77v-2.82h.82v6.74h-.88l-2.14-3.42a21.39,21.39,0,0,1-1.26-2.25h0c.05.85.07,1.66.07,2.78v2.88Z"/><line class="cls-6" x1="16.5" y1="91.5" x2="16.5" y2="54.5"/><line class="cls-6" x1="16.5" y1="140.5" x2="16.5" y2="104"/><path d="M6.49,53v-.51L9.4,49.62a4.62,4.62,0,0,0,.6-.68,1.59,1.59,0,0,0,.27-.56,1.71,1.71,0,0,0,.07-.49,1.22,1.22,0,0,0-.41-1,1.9,1.9,0,0,0-1.23-.35,3,3,0,0,0-1.09.19,2.18,2.18,0,0,0-.82.59l-.51-.44a2.85,2.85,0,0,1,1-.74,3.87,3.87,0,0,1,1.43-.26,3,3,0,0,1,1.23.23,1.7,1.7,0,0,1,1.09,1.66,2.52,2.52,0,0,1-.09.67,3,3,0,0,1-.34.7,5.39,5.39,0,0,1-.72.82L7.26,52.62l-.2-.28H11.4V53Z"/><path d="M15.07,53a2.54,2.54,0,0,1-1.44-.42,2.88,2.88,0,0,1-1-1.22,5.27,5.27,0,0,1,0-3.83,2.82,2.82,0,0,1,1-1.22,2.63,2.63,0,0,1,2.88,0,2.91,2.91,0,0,1,1,1.22,5.27,5.27,0,0,1,0,3.83,3,3,0,0,1-1,1.22A2.54,2.54,0,0,1,15.07,53Zm0-.66a1.78,1.78,0,0,0,1.08-.33,2.17,2.17,0,0,0,.72-1,5,5,0,0,0,0-3.17,2.12,2.12,0,0,0-.72-1,1.72,1.72,0,0,0-1.08-.34,1.77,1.77,0,0,0-1.07.34,2.2,2.2,0,0,0-.73,1,5,5,0,0,0,0,3.17,2.26,2.26,0,0,0,.73,1A1.83,1.83,0,0,0,15.07,52.38Z"/><path d="M20.12,53v-6.7l.32.34h-2V46h2.37v7Z"/><path d="M24.72,53a4.29,4.29,0,0,1-1.43-.24,2.87,2.87,0,0,1-1.08-.66l.35-.57a2.34,2.34,0,0,0,.91.58,3.18,3.18,0,0,0,1.24.23A2.06,2.06,0,0,0,26.07,52a1.3,1.3,0,0,0,.46-1,1.36,1.36,0,0,0-.21-.77,1.41,1.41,0,0,0-.73-.51,4.32,4.32,0,0,0-1.4-.18H22.7L23.06,46h3.83v.64H23.35l.37-.35-.31,2.94L23,48.85h1.31a4.63,4.63,0,0,1,1.7.26,1.9,1.9,0,0,1,.93.73,2,2,0,0,1,.28,1.08A2.1,2.1,0,0,1,27,52a1.84,1.84,0,0,1-.84.76A3.1,3.1,0,0,1,24.72,53Z"/><path d="M6.28,102v-.51l2.91-2.85a6.21,6.21,0,0,0,.6-.68,2,2,0,0,0,.27-.56,2.14,2.14,0,0,0,.07-.49,1.2,1.2,0,0,0-.42-1,1.85,1.85,0,0,0-1.22-.35,3.09,3.09,0,0,0-1.1.19,2.15,2.15,0,0,0-.81.59l-.51-.44a2.7,2.7,0,0,1,1-.74,3.8,3.8,0,0,1,1.43-.26,3.1,3.1,0,0,1,1.23.23,1.85,1.85,0,0,1,.8.65,1.81,1.81,0,0,1,.29,1,2.18,2.18,0,0,1-.1.67,2.36,2.36,0,0,1-.34.7,5.25,5.25,0,0,1-.71.82l-2.67,2.62-.2-.28h4.34V102Z"/><path d="M14.86,102a2.54,2.54,0,0,1-1.44-.42,2.88,2.88,0,0,1-1-1.22,5.27,5.27,0,0,1,0-3.83,2.82,2.82,0,0,1,1-1.22,2.63,2.63,0,0,1,2.88,0,2.82,2.82,0,0,1,1,1.22,5.14,5.14,0,0,1,0,3.83,2.88,2.88,0,0,1-1,1.22A2.54,2.54,0,0,1,14.86,102Zm0-.66a1.82,1.82,0,0,0,1.08-.33,2.24,2.24,0,0,0,.72-1,5,5,0,0,0,0-3.17,2.19,2.19,0,0,0-.72-1,1.87,1.87,0,0,0-2.15,0,2.13,2.13,0,0,0-.73,1,5,5,0,0,0,0,3.17,2.19,2.19,0,0,0,.73,1A1.81,1.81,0,0,0,14.86,101.38Z"/><path d="M19.91,102v-6.7l.32.34h-2V95h2.37v7Z"/><path d="M25.17,102a2.86,2.86,0,0,1-1.57-.41,2.58,2.58,0,0,1-1-1.2,4.88,4.88,0,0,1-.33-1.89,4.38,4.38,0,0,1,.4-2,2.85,2.85,0,0,1,1.13-1.22,3.33,3.33,0,0,1,1.67-.41,4.43,4.43,0,0,1,.9.09,2.56,2.56,0,0,1,.76.29l-.29.58a1.8,1.8,0,0,0-.62-.25,3.57,3.57,0,0,0-.74-.08,2.36,2.36,0,0,0-1.81.72A3,3,0,0,0,23,98.42c0,.15,0,.33,0,.55a3.6,3.6,0,0,0,.12.64l-.25-.19a1.82,1.82,0,0,1,.43-.88,2,2,0,0,1,.8-.56,3,3,0,0,1,1.05-.19,2.85,2.85,0,0,1,1.23.26,2.11,2.11,0,0,1,.83.73,2.05,2.05,0,0,1,.3,1.11,2.14,2.14,0,0,1-.31,1.14,2.1,2.1,0,0,1-.86.75A2.84,2.84,0,0,1,25.17,102Zm0-.61a2,2,0,0,0,.88-.18,1.5,1.5,0,0,0,.61-.53,1.53,1.53,0,0,0,.22-.81,1.38,1.38,0,0,0-.48-1.1,1.89,1.89,0,0,0-1.28-.41,2.1,2.1,0,0,0-.94.2,1.62,1.62,0,0,0-.63.55,1.33,1.33,0,0,0-.23.78,1.37,1.37,0,0,0,.21.73,1.61,1.61,0,0,0,.62.56A2.26,2.26,0,0,0,25.14,101.43Z"/><line class="cls-6" x1="16.5" y1="189.5" x2="16.5" y2="153"/><path d="M6.38,151v-.51l2.91-2.85a6.21,6.21,0,0,0,.6-.68,2,2,0,0,0,.27-.56,1.71,1.71,0,0,0,.07-.49,1.2,1.2,0,0,0-.42-1,1.85,1.85,0,0,0-1.22-.35,3.09,3.09,0,0,0-1.1.19,2.15,2.15,0,0,0-.81.59l-.51-.44a2.7,2.7,0,0,1,1-.74,3.83,3.83,0,0,1,1.43-.26,3.1,3.1,0,0,1,1.23.23,1.85,1.85,0,0,1,.8.65,1.81,1.81,0,0,1,.29,1,2.18,2.18,0,0,1-.1.67,2.36,2.36,0,0,1-.34.7,5.25,5.25,0,0,1-.71.82l-2.67,2.62-.2-.28h4.34V151Z"/><path d="M15,151a2.54,2.54,0,0,1-1.44-.42,2.88,2.88,0,0,1-1-1.22,5.27,5.27,0,0,1,0-3.83,2.82,2.82,0,0,1,1-1.22,2.63,2.63,0,0,1,2.88,0,2.82,2.82,0,0,1,1,1.22,5.14,5.14,0,0,1,0,3.83,2.88,2.88,0,0,1-1,1.22A2.54,2.54,0,0,1,15,151Zm0-.66a1.82,1.82,0,0,0,1.08-.33,2.24,2.24,0,0,0,.72-1,5,5,0,0,0,0-3.17,2.19,2.19,0,0,0-.72-1,1.87,1.87,0,0,0-2.15,0,2.13,2.13,0,0,0-.73,1,5,5,0,0,0,0,3.17,2.19,2.19,0,0,0,.73,1A1.81,1.81,0,0,0,15,150.38Z"/><path d="M20,151v-6.7l.32.34h-2V144h2.37v7Z"/><path d="M23.63,151l3-6.68.22.32H22.54l.37-.35v1.66H22.2v-2h5.14v.51L24.41,151Z"/><line class="cls-6" x1="16.5" y1="236.5" x2="16.5" y2="200"/><path d="M6.13,198v-.51L9,194.62a4.62,4.62,0,0,0,.6-.68,1.59,1.59,0,0,0,.27-.56,1.71,1.71,0,0,0,.07-.49,1.22,1.22,0,0,0-.41-1,1.9,1.9,0,0,0-1.23-.35,3,3,0,0,0-1.09.19,2.18,2.18,0,0,0-.82.59l-.51-.44a2.85,2.85,0,0,1,1-.74,3.87,3.87,0,0,1,1.43-.26,3,3,0,0,1,1.23.23,1.7,1.7,0,0,1,1.09,1.66,2.52,2.52,0,0,1-.09.67,3,3,0,0,1-.34.7,5.39,5.39,0,0,1-.72.82L6.9,197.62l-.2-.28H11V198Z"/><path d="M14.71,198a2.54,2.54,0,0,1-1.44-.42,2.88,2.88,0,0,1-1-1.22,5.27,5.27,0,0,1,0-3.83,2.82,2.82,0,0,1,1-1.22,2.63,2.63,0,0,1,2.88,0,2.91,2.91,0,0,1,1,1.22,5.27,5.27,0,0,1,0,3.83,3,3,0,0,1-1,1.22A2.54,2.54,0,0,1,14.71,198Zm0-.66a1.78,1.78,0,0,0,1.08-.33,2.17,2.17,0,0,0,.72-1,5,5,0,0,0,0-3.17,2.12,2.12,0,0,0-.72-1,1.72,1.72,0,0,0-1.08-.34,1.77,1.77,0,0,0-1.07.34,2.2,2.2,0,0,0-.73,1,5,5,0,0,0,0,3.17,2.26,2.26,0,0,0,.73,1A1.83,1.83,0,0,0,14.71,197.38Z"/><path d="M19.76,198v-6.7l.32.34h-2V191h2.37v7Z"/><path d="M24.81,198a3.88,3.88,0,0,1-1.44-.24,2,2,0,0,1-.93-.69,1.8,1.8,0,0,1-.33-1.08,1.65,1.65,0,0,1,.32-1,2,2,0,0,1,.92-.66,4.75,4.75,0,0,1,2.92,0,2.07,2.07,0,0,1,.94.66,1.65,1.65,0,0,1,.32,1,1.8,1.8,0,0,1-.33,1.08,2.05,2.05,0,0,1-.94.69A3.93,3.93,0,0,1,24.81,198Zm0-3.51a3.65,3.65,0,0,1-1.32-.21,1.84,1.84,0,0,1-.84-.6,1.6,1.6,0,0,1-.29-.95,1.58,1.58,0,0,1,.31-1,1.92,1.92,0,0,1,.85-.64,3.92,3.92,0,0,1,2.59,0,1.9,1.9,0,0,1,.86.64,1.58,1.58,0,0,1,.31,1,1.53,1.53,0,0,1-.29.95,1.79,1.79,0,0,1-.84.6A3.81,3.81,0,0,1,24.81,194.53Zm0,2.9a2.41,2.41,0,0,0,1.46-.38,1.27,1.27,0,0,0,0-2.05,2.48,2.48,0,0,0-1.46-.38,2.45,2.45,0,0,0-1.45.38,1.27,1.27,0,0,0,0,2.05A2.38,2.38,0,0,0,24.81,197.43Zm0-3.38a2.07,2.07,0,0,0,1.28-.34,1.06,1.06,0,0,0,.46-.91,1.08,1.08,0,0,0-.47-.93,2.52,2.52,0,0,0-2.53,0,1.14,1.14,0,0,0,0,1.84A2.06,2.06,0,0,0,24.81,194.05Z"/><line class="cls-6" x1="16.5" y1="283.5" x2="16.5" y2="247"/><path d="M6.28,245v-.51l2.91-2.85a6.21,6.21,0,0,0,.6-.68,2,2,0,0,0,.27-.56,2.14,2.14,0,0,0,.07-.49,1.2,1.2,0,0,0-.42-1,1.85,1.85,0,0,0-1.22-.35,3.09,3.09,0,0,0-1.1.19,2.15,2.15,0,0,0-.81.59l-.51-.44a2.7,2.7,0,0,1,1-.74,3.8,3.8,0,0,1,1.43-.26,3.1,3.1,0,0,1,1.23.23,1.85,1.85,0,0,1,.8.65,1.81,1.81,0,0,1,.29,1,2.18,2.18,0,0,1-.1.67,2.36,2.36,0,0,1-.34.7,5.25,5.25,0,0,1-.71.82l-2.67,2.62-.2-.28h4.34V245Z"/><path d="M14.86,245a2.54,2.54,0,0,1-1.44-.42,2.88,2.88,0,0,1-1-1.22,5.27,5.27,0,0,1,0-3.83,2.82,2.82,0,0,1,1-1.22,2.63,2.63,0,0,1,2.88,0,2.82,2.82,0,0,1,1,1.22,5.14,5.14,0,0,1,0,3.83,2.88,2.88,0,0,1-1,1.22A2.54,2.54,0,0,1,14.86,245Zm0-.66a1.82,1.82,0,0,0,1.08-.33,2.24,2.24,0,0,0,.72-1,5,5,0,0,0,0-3.17,2.19,2.19,0,0,0-.72-1,1.87,1.87,0,0,0-2.15,0,2.13,2.13,0,0,0-.73,1,5,5,0,0,0,0,3.17,2.19,2.19,0,0,0,.73,1A1.81,1.81,0,0,0,14.86,244.38Z"/><path d="M19.91,245v-6.7l.32.34h-2V238h2.37v7Z"/><path d="M24.48,237.92a2.81,2.81,0,0,1,1.57.42,2.57,2.57,0,0,1,1,1.19,4.84,4.84,0,0,1,.33,1.89,4.41,4.41,0,0,1-.41,2,2.77,2.77,0,0,1-1.12,1.22,3.26,3.26,0,0,1-1.67.41,4.36,4.36,0,0,1-.9-.09,2.31,2.31,0,0,1-.76-.29l.29-.58a1.81,1.81,0,0,0,.62.26,3.57,3.57,0,0,0,.74.07,2.35,2.35,0,0,0,1.8-.72,3,3,0,0,0,.68-2.15c0-.15,0-.33,0-.55a3,3,0,0,0-.11-.64l.25.19a1.86,1.86,0,0,1-.43.89,2,2,0,0,1-.8.55,3,3,0,0,1-2.28-.07,2,2,0,0,1-.83-.73,2,2,0,0,1-.3-1.11,2,2,0,0,1,.31-1.14,2,2,0,0,1,.85-.74A2.74,2.74,0,0,1,24.48,237.92Zm0,.61a1.94,1.94,0,0,0-.89.19,1.4,1.4,0,0,0-.82,1.33,1.39,1.39,0,0,0,.47,1.1,1.89,1.89,0,0,0,1.29.41,2,2,0,0,0,.94-.2,1.47,1.47,0,0,0,.63-.55,1.4,1.4,0,0,0,.23-.78,1.37,1.37,0,0,0-.21-.73,1.59,1.59,0,0,0-.62-.55A2.14,2.14,0,0,0,24.51,238.53Z"/><line class="cls-6" x1="16.5" y1="331.5" x2="16.5" y2="295"/><path d="M5,293v-.51l2.91-2.85a6.21,6.21,0,0,0,.6-.68,2,2,0,0,0,.27-.56,2.14,2.14,0,0,0,.07-.49,1.2,1.2,0,0,0-.42-1,1.85,1.85,0,0,0-1.22-.35,3.09,3.09,0,0,0-1.1.19,2.15,2.15,0,0,0-.81.59l-.51-.44a2.7,2.7,0,0,1,1-.74,3.8,3.8,0,0,1,1.43-.26,3.1,3.1,0,0,1,1.23.23,1.85,1.85,0,0,1,.8.65,1.81,1.81,0,0,1,.29,1,2.18,2.18,0,0,1-.1.67,2.36,2.36,0,0,1-.34.7,5.25,5.25,0,0,1-.71.82l-2.67,2.62-.2-.28H9.9V293Z"/><path d="M13.57,293a2.54,2.54,0,0,1-1.44-.42,2.88,2.88,0,0,1-1-1.22,5.27,5.27,0,0,1,0-3.83,2.82,2.82,0,0,1,1-1.22,2.63,2.63,0,0,1,2.88,0,2.82,2.82,0,0,1,1,1.22,5.14,5.14,0,0,1,0,3.83,2.88,2.88,0,0,1-1,1.22A2.54,2.54,0,0,1,13.57,293Zm0-.66a1.82,1.82,0,0,0,1.08-.33,2.24,2.24,0,0,0,.72-1,5,5,0,0,0,0-3.17,2.19,2.19,0,0,0-.72-1,1.87,1.87,0,0,0-2.15,0,2.13,2.13,0,0,0-.73,1,5,5,0,0,0,0,3.17,2.19,2.19,0,0,0,.73,1A1.81,1.81,0,0,0,13.57,292.38Z"/><path d="M17.27,293v-.51l2.91-2.85a6.21,6.21,0,0,0,.6-.68,2,2,0,0,0,.27-.56,2.14,2.14,0,0,0,.07-.49,1.2,1.2,0,0,0-.42-1,1.85,1.85,0,0,0-1.22-.35,3.09,3.09,0,0,0-1.1.19,2.15,2.15,0,0,0-.81.59l-.51-.44a2.7,2.7,0,0,1,1.05-.74,3.8,3.8,0,0,1,1.43-.26,3.1,3.1,0,0,1,1.23.23,1.85,1.85,0,0,1,.8.65,1.81,1.81,0,0,1,.29,1,2.18,2.18,0,0,1-.1.67,2.36,2.36,0,0,1-.34.7,5.25,5.25,0,0,1-.71.82L18,292.62l-.2-.28h4.34V293Z"/><path d="M25.85,293a2.54,2.54,0,0,1-1.44-.42,2.88,2.88,0,0,1-1-1.22,5.27,5.27,0,0,1,0-3.83,2.82,2.82,0,0,1,1-1.22,2.63,2.63,0,0,1,2.88,0,2.82,2.82,0,0,1,1,1.22,5.14,5.14,0,0,1,0,3.83,2.88,2.88,0,0,1-1,1.22A2.54,2.54,0,0,1,25.85,293Zm0-.66a1.82,1.82,0,0,0,1.08-.33,2.32,2.32,0,0,0,.72-1,5,5,0,0,0,0-3.17,2.26,2.26,0,0,0-.72-1,1.87,1.87,0,0,0-2.15,0,2.07,2.07,0,0,0-.73,1,5,5,0,0,0,0,3.17,2.12,2.12,0,0,0,.73,1A1.81,1.81,0,0,0,25.85,292.38Z"/><path d="M6.48,342v-.51l2.91-2.85a4.62,4.62,0,0,0,.6-.68,1.59,1.59,0,0,0,.27-.56,1.71,1.71,0,0,0,.07-.49,1.22,1.22,0,0,0-.41-1,1.9,1.9,0,0,0-1.23-.35,3.07,3.07,0,0,0-1.09.19,2.18,2.18,0,0,0-.82.59l-.51-.44a2.85,2.85,0,0,1,1.05-.74,3.87,3.87,0,0,1,1.43-.26,3,3,0,0,1,1.23.23,1.7,1.7,0,0,1,1.09,1.66,2.52,2.52,0,0,1-.09.67,2.63,2.63,0,0,1-.34.7,5.39,5.39,0,0,1-.72.82l-2.67,2.62-.2-.28h4.34V342Z"/><path d="M15.06,342a2.54,2.54,0,0,1-1.44-.42,2.88,2.88,0,0,1-1-1.22,5.27,5.27,0,0,1,0-3.83,2.82,2.82,0,0,1,1-1.22,2.63,2.63,0,0,1,2.88,0,2.91,2.91,0,0,1,1,1.22,5.27,5.27,0,0,1,0,3.83,3,3,0,0,1-1,1.22A2.54,2.54,0,0,1,15.06,342Zm0-.66a1.78,1.78,0,0,0,1.08-.33,2.17,2.17,0,0,0,.72-1,5,5,0,0,0,0-3.17,2.12,2.12,0,0,0-.72-1,1.72,1.72,0,0,0-1.08-.34,1.77,1.77,0,0,0-1.07.34,2.2,2.2,0,0,0-.73,1,5,5,0,0,0,0,3.17,2.26,2.26,0,0,0,.73,1A1.83,1.83,0,0,0,15.06,341.38Z"/><path d="M18.76,342v-.51l2.91-2.85a4.62,4.62,0,0,0,.6-.68,1.59,1.59,0,0,0,.27-.56,1.71,1.71,0,0,0,.07-.49,1.22,1.22,0,0,0-.41-1,1.9,1.9,0,0,0-1.23-.35,3,3,0,0,0-1.09.19,2.18,2.18,0,0,0-.82.59l-.51-.44a2.85,2.85,0,0,1,1.05-.74,3.87,3.87,0,0,1,1.43-.26,3,3,0,0,1,1.23.23,1.7,1.7,0,0,1,1.09,1.66,2.52,2.52,0,0,1-.09.67,3,3,0,0,1-.34.7,5.39,5.39,0,0,1-.72.82l-2.67,2.62-.2-.28h4.34V342Z"/><path d="M25.79,342v-6.7l.32.34h-2V335h2.37v7Z"/></svg>